<svg viewBox="0 0 57 51" xmlns="http://www.w3.org/2000/svg" fill-rule="evenodd" clip-rule="evenodd" stroke-linejoin="round" stroke-miterlimit="1.414">
  <path d="M22.778 1.802l31.517 1.75.196.024.19.057.18.088.16.12.14.15h.01l.12.17.09.19.06.2.03.2.087 7.31.19 18.2-.02.265-.062.257-.11.245-.15.22-.184.19-.22.158-.24.12-.26.075-.27.026-3.463.044.01.005h-.61l.005.005.005 4.067h.046l-.022.28-.06.27-.115.256-.15.235-.19.204-.223.17-.25.13-.27.087-.28.042-.28-.01-.28-.053-.26-.1-.243-.14-.218-.185-5.21-5.12-.004.01h-3.18l.06.064.002 2.287.02.015.087 10.05-.03.336-.083.33-.14.305-.19.28-.24.247h.003l-.28.2-.306.146-.33.09-.34.034-6.66.05-9.38.05-6.15.01h.003l-1.86.93v.006l-6.21 3.07-.33.127-.34.073-.35.016-.1-.016-.25-.04-.336-.104-.31-.16-.28-.21-.24-.25-.196-.29-.14-.32L4 49l-.026-.346.03-3.81V43.6l.013-.012H2.25v-.034l-.318-.028-.308-.08-.292-.127-.266-.18-.236-.21-.198-.24-.156-.27-.11-.3-.06-.31-.01-.318.346-7.165.788-14.867.12-2.115.044-.277.09-.26.13-.244.17-.22.202-.183.23-.144.25-.1.262-.06.267-.015 8.137.135 6.035.12.22.03.21.068.195.1.173.132.152.15-.006.005.12.18.09.194.05.2.02.206.18 9.18-.04.034 2.36.485-.053.06L31.38 29.61l.294.07.427.646-.644.422-.35-.06-12.44-2.176-1.09-.2-.154-.035-.145-.06-.14-.086-.128-.11-.107-.13-.08-.147-.06-.16-.03-.17-.22.01-.34-8.768-.05.05-5.285.123-.013.17H4.74l.04.04-.09 3.27-.208 10.64.08-.03-.26 6.65.01-.01 1.715-.022.35.02.337.09.32.15.29.194.25.244.205.29.15.32.09.34.02.28v.07h.022v3.72l3.93-1.94 1.596-.79.296-.12.312-.075.32-.025 4.823.01 8.12.05.044.07h7.734l.016.01.088-12.23v-.01l.04-.32.09-.31.14-.29.19-.26.227-.22.264-.18.285-.13.304-.076.315-.023 5.67.05.275.023.27.07.25.11.23.15.21.18-.046.044 2.85 2.85.01-1.657.027-.28.078-.27.12-.256.164-.23.2-.193.23-.16.254-.116.27-.07.274-.02v.056h4.133l.027.027.194-15.58.11-.034V5.84l.027-.024-28.33-2.31-.06-.1-6.24-.425-.024-.03-.436 8.32-.036.57-.57.54-.52-.58.02-.75.24-8.82.01-.11.023-.1.04-.1.06-.092.07-.083.086-.072.093-.06.11-.04.11-.025.114-.003 4.98.27z" fill="#231f20"/>
</svg>
