<svg viewBox="0 0 68 63" xmlns="http://www.w3.org/2000/svg">
  <path d="M8.806 25.07l-.026.06.002-.006-.025.062-.025.063.002-.01-.025.06-.03.06v-.01l-.03.06-.03.06-.02.07-.03.07v-.01l-.05.14-.01.03-.03.11-.04.15-.04.15-.04.15-.04.16-.04.17-.04.17-.03.17-.03.17-.03.18-.03.19-.03.18-.03.19-.02.19-.02.19-.02.19-.02.2-.01.2-.01.2-.01.2-.01.21-.01.21-.01.21V31l.01.215.01.21.01.214.01.22.02.22.01.22.02.22.02.22.02.22.03.21.02.22.02.21.03.21.03.21.03.21.03.21.04.2.04.2.04.2.04.2.04.2.05.2.05.19.05.19.05.19.05.18.06.18.03.09 9.18-.08.12.01.12.03.11.04.1.07.09.08.08.1.06.11.04.12.02.12v.13l-.03.12-.04.12-.06.11-.05.07-.04.06-.04.07-.04.07-.04.06-.05.07-.04.07-.04.07-.04.07-.04.07-.04.07-.04.07-.03.07-.03.08-.04.07-.03.07-.03.08-.04.08-.03.07-.03.08-.03.08-.03.08-.03.08-.03.08-.03.08-.03.08-.03.08-.02.08-.02.08-.02.08-.03.08-.02.08-.02.08-.02.08-.02.09-.02.09-.02.09-.02.08-.02.09-.02.09-.02.09-.02.09-.01.09-.01.1-.02.1-.02.09-.01.1-.01.1-.01.1-.01.1v.1l-.01.1-.01.1v.1l-.01.1-.01.1v1.48l.01.11.01.12.01.11.01.11.01.12.01.11.02.23.03.23.03.24.03.24.03.24.04.24.04.25.04.25.05.25.05.26.06.26.06.26.06.26.06.27.06.27.07.27.08.28.08.28.08.28.09.28.09.28.09.29.1.29.1.29.08.25.01.01.1.06.09.05.1.06.09.05.09.05.1.05.09.05.09.05.09.05.1.05.1.05.09.04.09.04.09.04.094.04.09.04.09.04.09.04.09.04.09.03.085.04.09.04.09.03.09.03.08.03.09.03.082.02.09.03.09.03.09.03.08.02.09.03.08.03.08.03.09.02.08.02.08.02.08.02.09.01.08.02.08.01.08.01.08.01.08.01.08.01.08.01.08.01.08.01.08.01.08.01.07.01.08.01h.773l.08-.01.074-.01.07-.01.07-.01.08-.01h-.01l.08-.01.08-.01h-.01l.08-.01.08-.01h-.01l.08-.01.08-.01.08-.01.08-.02H25l.08-.01.08-.02h-.01l.07-.02.08-.02h-.01l.08-.02.07-.02.07-.02.07-.02.07-.02.07-.03.07-.03.07-.02.07-.02.07-.03.07-.03.07-.03.07-.03.07-.03.07-.03.07-.03.07-.03.07-.03.07-.03.07-.04.07-.03.06-.03.07-.04.07-.03.07-.038.06-.04.063-.04.07-.04.07-.04.07-.04.07-.04.07-.04.06-.04.07-.04.04-.03-.05-.09-.08-.16-.08-.16-.08-.16-.08-.16-.08-.16-.07-.16-.07-.16-.07-.16-.07-.16-.07-.16-.07-.16-.064-.155-.06-.157-.06-.16-.06-.16-.06-.15-.06-.15-.06-.16-.06-.15-.05-.15-.05-.15-.05-.15-.05-.15-.05-.15-.05-.15-.05-.15-.04-.15-.04-.15-.04-.15-.04-.14-.04-.15-.038-.15-.03-.15-.03-.14-.03-.147-.03-.15-.03-.15-.03-.15-.03-.15-.02-.15-.02-.14-.02-.147-.02-.146-.02-.15-.02-.15-.01-.15-.01-.15-.01-.15-.01-.14v-.14l-.01-.15v-.42l.01-.14v-.14l.01-.13.01-.09v-.09.02V42l-.01-.2-.01-.207-.03-.438-.01-.23v-.12l-.01-.12-.01-.12v-.48l-.01-.12.01-.126.01-.13.01-.13.01-.13.01-.13.02-.14.02-.13.02-.13.01-.07.02-.07.01-.07.02-.07.02-.07.02-.07.02-.07.03-.07.02-.07.03-.07.03-.07.03-.07.03-.07.03-.07.035-.07.04-.07.04-.07.04-.07.04-.07.05-.07.045-.07.05-.07.05-.06.055-.07.05-.06.06-.06.06-.06.06-.06.06-.06.06-.06.06-.05.066-.06.07-.05.07-.05.07-.05.07-.05.08-.05.07-.04.073-.04.08-.04.08-.04.08-.04.08-.03.08-.03.08-.04.08-.04.08-.03.08-.03.08-.03.08-.03.09-.02.09-.03.09-.03.1-.02.09-.02.09-.02.1-.02.1-.02.1-.02.09-.01.16-.01.17.01.16.02.32.07.32.07.32.07.32.07.31.07.31.08.3.08.3.08.294.08.29.08.29.08.28.08.28.09.28.09.28.09.27.09.27.09.27.1.26.09.26.09.26.1.26.1.25.1.25.1.25.1.25.1.25.11.24.11.24.11.237.11.23.11.23.11.23.11.223.11.223.12.23.12.22.12.22.12.21.12.22.12.21.13.04.02.17.1.21.13.21.12.21.13.21.13.2.13.2.13.2.13.19.13.2.14.19.13.19.13.19.13.19.14.19.14.19.14.18.14.19.14.19.14.183.14.18.15.18.14.18.14.18.14.18.15.18.15.17.15.17.15.18.15.17.15.17.15.17.15.175.16.34.31.34.31.34.31.34.31.34.31.34.32.34.32.68.644.69.66.35.33.35.33.35.33.36.34.37.332.37.34.37.34.38.34.38.35.19.17.19.17.196.17.2.17.2.17.2.17.204.18.2.17.21.18.13.11 1.1-.55-.11-17.09.01-.14.02-.2.08-.33.13-.31.19-.29.07-.09.06-.08.05-.08.053-.08.06-.1-.02.03.06-.09.06-.096-.02.04.05-.09.05-.09-.02.04.06-.09.05-.1-.02.04.05-.09.03-.06.04-.1.02-.06.04-.1.02-.06.03-.1.02-.06.03-.1.01-.06.03-.1.01-.057.02-.1.01-.06.02-.1.01-.06.01-.11.01-.06v-.17l.01-.11V31l-.004-.07-.01-.11v-.07l-.01-.12-.01-.078-.02-.12-.02-.12.01.04-.02-.12-.02-.1-.02-.105-.02-.11-.03-.11-.03-.11-.03-.11-.04-.11-.04-.12-.04-.115-.05-.12-.04-.12-.05-.12-.05-.12-.057-.13-.06-.12-.06-.13-.07-.13-.07-.13-.07-.13-.07-.14-.08-.14-.09-.15-.16-.34-.1-.36-.04-.37-.03-4.9h-.04l.02-12.07h-.16l-.11.11-.18.18-.18.18-.18.17-.18.18-.18.18-.17.177-.17.18-.17.18-.17.17-.17.17-.164.18-.17.17-.13.14-.04.03-.16.18-.16.17-.16.17-.16.17-.16.17-.31.35-.31.35-.31.34-.31.34-.3.34-.6.69-.3.34-.29.34-.3.34-.29.34-.3.33-.3.33-.1.11-.05.05-.15.16-.16.16-.16.16-.16.16-.16.16-.16.16-.16.16-.16.16-.16.16-.16.15-.16.16-.16.15-.17.15-.17.16-.17.15-.17.15-.17.15-.18.14-.18.14-.18.14-.18.15-.18.14-.19.15-.18.14-.188.14-.19.14-.19.14-.19.14-.2.13-.2.13-.2.13-.2.13-.21.12-.21.12-.21.12-.22.12-.22.12-.22.12-.22.11-.223.11-.23.11-.23.11-.23.11-.24.1-.24.1-.24.1-.24.1-.24.09-.25.1-.254.09-.25.09-.26.09-.26.08-.27.09-.27.08-.27.08-.28.08-.28.08-.29.07-.29.07-.29.07-.3.07-.3.06-.31.06-.02.01-.28.05-.31.06-.32.05-.32.04-.32.04-.324.04-.33.04-.34.04-.34.04-.35.04-.35.03-.35.03-.36.03-.36.02-.43.02-12.26-1-1.06-.44h.2l1.076-.38 12.1-.31.34-.05.34-.06.34-.06.33-.06.32-.07.32-.06.31-.07.31-.07.3-.07.3-.07.296-.08.29-.07.284-.08.28-.08.25-.077.02-.01.27-.08.27-.08.26-.08.255-.08.25-.09.25-.09.25-.09.24-.09.24-.09.23-.09.23-.09.22-.09.22-.1.22-.1.22-.1.21-.1.21-.1.2-.107.2-.11.2-.1.19-.11.19-.11.19-.11.19-.11.18-.11.18-.12.18-.12.18-.11.17-.114.17-.11.17-.12.16-.12.16-.12.16-.12.16-.13.16-.13.16-.127.15-.13.15-.13.15-.13.15-.13.14-.14.15-.13.14-.14.14-.14.14-.14.14-.14.14-.14.14-.14.13-.14.14-.14.14-.15.13-.15.13-.15.14-.15.13-.15.13-.15.13-.15.13-.16.13-.15.13-.16.13-.16.13-.16.13-.16.05-.05.09-.1.27-.33.27-.33.27-.34.27-.346.27-.35.28-.35.56-.72.28-.36.29-.37.3-.38.3-.38.3-.38.16-.19.16-.19.16-.19.16-.2.17-.2.03-.04.13-.155.17-.195.17-.19.17-.196.18-.2.18-.2.18-.19.18-.19.19-.2.19-.2.19-.2.19-.196.2-.2.2-.19.21-.2.2-.2.2-.19.26-.21.29-.17.31-.12.33-.08.33-.02 2.43-.02h.85l.35.03.34.08.33.14.3.18.27.23.23.27.18.3.13.32.08.34.03.35-.05 11.36-.05 7.296.1.18.09.19.09.19.09.18.08.18.08.18.08.18.08.18.07.18.07.19.07.18.06.18.06.18.06.18.05.19.05.18.04.18.04.18.03.18.03.18.02.18.02.18.02.18.01.18.01.18.01.18v.36l-.01.17v.18l-.01.18-.01.17-.02.18-.02.17-.02.17-.03.17-.03.17-.03.17-.04.17-.04.163-.05.164-.05.17-.05.16-.06.16-.06.16-.06.16-.07.15-.07.156-.07.16-.08.15-.08.15-.08.15-.09.14-.09.15-.09.14-.09.14-.06.08-.01 1.84h-.01l-.03 15.71h-.15l-.03.3-.08.29-.12.27-.16.24-.2.21-.23.18-.25.15v.035l-3.22 1.58-.28.11-.29.07-.3.02-.29-.03-.29-.084-.27-.13-.25-.17-.22-.19-.22-.19-.22-.2-.22-.19-.21-.19-.21-.19-.22-.19-.21-.19-.21-.18-.2-.19-.2-.188-.2-.18-.2-.186-.2-.19-.39-.36-.38-.37-.38-.36-.37-.36-.36-.35-.36-.35-.36-.35-.35-.34-.34-.34-.68-.67-.66-.66-.33-.325-.32-.32-.32-.32-.32-.31-.32-.307-.32-.31-.32-.3-.16-.15-.16-.15-.16-.14-.16-.14-.16-.145-.16-.14-.16-.14-.16-.14-.16-.14-.17-.14-.16-.14-.16-.14-.16-.14-.17-.14-.17-.13-.16-.14-.17-.13-.17-.13-.17-.13-.16-.13-.17-.13-.17-.13-.17-.13-.18-.13-.18-.13-.17-.12-.18-.13-.18-.12-.18-.12-.18-.12-.18-.12-.19-.12-.15-.09-.04-.027-.19-.11-.19-.114-.19-.11-.19-.11-.2-.11-.2-.11-.2-.11-.2-.11-.2-.11-.21-.1-.21-.11-.21-.105-.22-.11-.21-.1-.22-.11-.22-.1-.23-.1-.23-.1-.23-.1-.23-.1-.24-.1-.24-.1-.24-.1-.24-.098-.25-.09-.25-.09-.26-.09-.25-.09-.26-.09-.265-.08-.27-.09-.27-.08-.28-.09-.28-.08-.28-.08-.29-.08-.29-.08-.29-.08-.3-.08-.3-.08-.08-.02-.05.01.02-.006-.06.01-.06.01.02-.01-.06.02-.06.02.02-.01-.054.02-.05.016.02-.01-.06.02.02-.01-.06.02.02-.01-.06.02.02-.01-.06.02.03-.01-.05.02.02-.01-.056.02.03-.01-.05.02.03-.01-.05.03.02-.01-.05.02.03-.02-.05.03.03-.02-.05.03.03-.02-.04.03.02-.02-.05.03.02-.02-.05.03.02-.02-.044.03.024-.02-.04.03.03-.02-.046.04.03-.02-.04.03.03-.02-.04.03.03-.02-.04.03.02-.02-.033.03.03-.02-.04.03.02-.03-.03.04.02-.02-.04.04.02-.03-.03.04.02-.022-.03.03.02-.02-.03.035.02-.027-.03.04.02-.02-.03.04.02-.03-.03.03.02-.03-.03.04.02-.026-.03.04.02-.02-.03.04.01-.02-.02.04.01-.03-.03.04.01-.02-.02.04.01-.02-.02.04.01-.02-.02.04.01-.02-.02.05.01-.03-.02.04.01-.03-.02.04.01-.02-.02.04.01-.02-.02.04.01-.02-.01.04v-.02l-.02.046v-.02l-.01.046.01-.02-.01.04.01-.02-.01.05.01-.02-.01.04v-.03l-.03.1.01-.04-.02.1.01-.03-.01.09-.01.08v-.03l-.01.085-.01.09v-.02l-.01.09-.01.09v.1l-.004.09v.8l.02.43.01.22v.81l-.01.12v.12l-.01.11-.01.11-.01.11v.33l-.007.1v.23l.003.11.01.12.01.12.01.11.01.12.01.11.01.12.01.12.015.11.02.12.01.12.02.12.02.12.02.12.02.13.02.12.02.13.03.12.02.13.03.13.03.13.03.13.03.13.03.13.04.13.03.13.04.14.04.13.04.13.04.132.05.13.05.14.05.133.05.13.05.14.05.14.05.14.06.14.05.147.06.14.06.14.06.14.06.15.06.15.06.15.06.15.06.14.07.15.07.15.07.15.07.15.07.15.08.15.07.15.08.15.08.16.08.19.04.19.01.2-.02.2-.056.19-.09.18-.12.17-.14.14-.08.06-.08.07-.08.06-.087.06-.08.06-.09.06-.09.06-.08.06-.08.06-.09.05-.085.06-.09.06-.09.06-.08.06-.09.05-.08.05-.09.05-.09.05-.09.05-.09.05-.08.05-.09.05-.09.05-.09.04-.09.04-.09.04-.09.04-.09.04-.09.04-.09.03-.09.04-.09.04-.1.03-.09.03-.09.03-.096.03-.09.03-.1.03-.1.03-.098.03-.09.03-.1.02-.1.02-.1.02-.1.02-.09.02-.09.02-.1.02-.1.02-.1.01-.1.02-.09.02-.1.01-.09.01-.098.01-.1.01-.09.01-.1.01-.1.01-.1.01h-.7l-.1-.01-.1-.01h-.1l-.1-.01-.1-.01-.1-.01-.1-.01-.1-.01-.1-.016-.1-.014-.1-.01-.108-.02-.1-.02-.1-.02-.1-.02-.1-.02-.1-.02-.1-.02-.1-.02-.1-.03-.1-.026-.1-.03-.1-.03-.1-.02-.11-.03-.1-.03-.1-.036-.11-.04-.11-.04-.1-.03-.108-.04-.1-.04-.11-.04-.11-.04-.1-.04-.105-.04-.11-.02-.11-.05-.1-.04-.1-.05-.1-.05-.105-.05-.11-.05-.1-.05-.11-.05-.11-.05-.11-.06-.1-.05-.103-.05-.1-.06-.11-.06-.11-.06-.11-.06-.103-.06-.1-.06-.108-.07-.1-.07-.11-.06-.11-.07-.11-.07-.1-.07-.13-.1-.116-.13-.09-.14-.07-.15-.1-.31-.1-.31-.09-.31-.09-.31-.08-.307-.08-.3-.08-.3-.08-.29-.07-.29-.07-.29-.07-.29-.07-.29-.06-.29-.05-.28-.05-.28-.05-.28-.04-.28-.04-.27-.04-.27-.04-.26-.03-.26-.03-.26-.03-.26-.02-.26-.02-.25-.02-.25-.005-.13-.01-.12-.01-.13-.01-.12v-.1l-.01-.12v-.84l.006-.11v-.12l.01-.12v-.22l.01-.12.01-.11.01-.113.01-.11.01-.11.01-.11.01-.11.01-.11.01-.11.01-.11.02-.11.02-.11.02-.11.02-.11.02-.1.02-.1.02-.11.02-.1.02-.105.03-.102.02-.1.03-.1.026-.11.03-.1.03-.1.03-.1.02-.1.03-.1.03-.1.034-.1.03-.09.03-.1.04-.09.04-.1.03-.09.036-.09.04-.1.04-.09.034-.09.04-.09.04-.09.04-.09.05-.09.04-.08h-8.3V38l-.1-.01-.1-.027-.09-.04-.08-.055-.07-.065-.06-.075-.05-.08-.04-.09h.04l-.03-.093-.03-.1-.06-.195-.05-.2-.054-.2-.05-.205-.05-.207-.05-.21-.04-.21-.04-.212-.04-.214-.04-.218-.036-.218-.03-.22-.03-.22-.03-.22-.03-.224-.03-.22-.02-.224-.02-.226-.02-.225-.02-.227-.02-.227-.01-.222-.01-.22-.01-.22-.01-.22-.02-.2-.03-.23.02-.22v-.23l.01-.22.01-.22v-.22l.01-.22.01-.22.01-.22.014-.21.02-.21.02-.21.02-.21.02-.21.03-.21.03-.2.03-.2.03-.2.03-.2.03-.19.03-.19.03-.19.04-.18.04-.18.04-.18.04-.18.043-.18.05-.17.05-.17.05-.16.04-.12.01-.03.05-.15.03-.07.03-.07.03-.07.03-.08.03-.07V25l.03-.07.03-.07.03-.07.03-.06.55-.21.21.548-.03.06z" />
</svg>
