<svg viewBox="0 0 68 46" xmlns="http://www.w3.org/2000/svg" fill-rule="evenodd" clip-rule="evenodd" stroke-linejoin="round" stroke-miterlimit="1.414">
  <g fill="#231f20">
    <path d="M26.96 23.403l.296.12.27.168.24.22.197.25.152.28.1.3.05.32-.008.32-.062.31-.113.3-2.92 6.08-.13-.06-.026.04-.13.2-.193.21-.218.18h-.005l-.246.13-.262.08-4.505 1.09-6.52 1.56-.017.03-.108.17-.108.17-.108.17-.107.16-.11.16-.11.15-.11.15-.11.14-.11.14-.1.14-.1.13-.1.12-.1.12-.19.23-.18.23-.02.02-.17.19-.17.2-.08.1-.08.09-.08.1-.07.09-.07.09-.06.09-.07.09-.06.08-.06.08-.06.09-.06.09-.05.09-.05.09-.03.04-.02.04-.02.04-.02.05-.02.05-.02.04-.02.05-.02.05-.02.05-.02.05-.02.04-.02.04-.02.05-.01.05-.01.04-.02.04-.01.05-.01.05-.01.05-.01.05-.01.05-.01.06-.01.06-.01.06-.01.06v.06l-.01.06v.06l-.01.06v.59l.01.08v.07l.01.08.01.08.01.08.01.08.01.08.02.09.01.09.01.09.02.08.02.09.02.09.02.1.01.04.01.05.02.1-.36.68-.69-.37-.04-.1-.02-.06-.02-.04-.04-.1-.04-.1-.03-.09-.03-.1-.03-.1-.03-.1-.03-.09-.02-.09-.02-.09-.03-.09-.02-.09-.02-.09-.02-.09-.02-.08-.02-.09-.02-.09-.02-.09-.02-.09-.01-.08-.01-.08-.01-.08-.01-.08-.01-.08-.01-.08-.01-.08v-.46l.01-.08.01-.07v-.08l.01-.07.01-.07.01-.07.01-.07.01-.07.01-.07.01-.07.01-.07.02-.07.02-.07.02-.06.02-.07.02-.07.02-.07.03-.07.02-.06.03-.07.02-.07.05-.12.06-.13.05-.12.06-.12.06-.12.06-.12.06-.12.06-.12.07-.11.07-.11.07-.11.07-.11.07-.11.14-.23.14-.22.01-.02.16-.24.16-.24.08-.12.08-.12.08-.13.08-.13.08-.13.08-.14.08-.13.08-.14.08-.15.07-.14.08-.15.08-.15.08-.16.08-.17.08-.17.08-.18.09-.16.12-.15.14-.12.15-.1.17-.07 5.44-1.84-.11-.18 5.07-1.44-.01-.02.38-.83 1.13-2.54-.05-.02-.16-.08-.16-.08-.16-.09-.16-.09-.16-.1-.17-.11-.16-.1-.17-.11-.17-.12-.17-.12-.17-.12-.17-.13-.17-.13-.17-.14-.17-.14-.17-.14-.16-.15-.09-.08-.09-.08-.08-.08-.09-.08-.09-.08-.08-.08-.09-.08-.09-.08-.08-.09-.09-.1-.08-.08-.08-.09-.08-.09-.08-.09-.08-.09-.08-.09-.08-.09-.08-.09-.08-.09-.08-.09-.08-.1-.07-.1-.07-.1-.07-.1-.07-.1-.03-.05-.04-.05-.07-.1-.07-.1-.07-.11-.07-.11-.07-.11-.07-.11-.07-.11-.07-.11-.06-.11-.06-.12-.06-.11-.06-.12-.06-.12-.06-.12-.06-.12-.06-.12-.06-.12-.05-.12-.05-.13-.05-.12-.05-.13-.05-.13-.05-.13-.04-.13-.05-.13-.04-.13-.03-.09-.03-.09-.02-.09-.02-.1-.02-.1-.02-.09-.02-.09-.02-.09-.02-.09-.02-.09v-.01l-.02-.1-.02-.1-.01-.09-.01-.1-.01-.1-.01-.1-.02-.19-.01-.21-.01-.2-.01-.21v-.42l.01-.21.01-.21.01-.21.01-.22.02-.22.02-.22.02-.22.02-.22.02-.23.03-.23.02-.1.02-.12.04-.23.04-.23.04-.23.05-.23.05-.23.05-.23.03-.12.03-.12.03-.12.03-.12.03-.11.04-.11.04-.12.04-.11.04-.12.04-.12.03-.11.04-.12.04-.12.04-.11.04-.12.05-.11.05-.11.04-.11.05-.11.05-.11.05-.11.05-.11.05-.11.05-.11.04-.08.01-.03.06-.11.05-.11.06-.1.06-.11.06-.11.06-.1.06-.11.06-.1.06-.1.07-.1.07-.1.07-.1.07-.1.07-.1.07-.1.08-.1.07-.1.08-.1.08-.09.08-.1.07-.09.09-.09.09-.09.09-.09.09-.08.09-.09.09-.08.1-.08.1-.08.1-.08.11-.07.1-.08.11-.07.11-.07.11-.07.12-.07.11-.07.11-.07.12-.06.12-.06.12-.05.11-.05.1-.04.1-.04.1-.04.1-.04.1-.04.2-.07.09-.03.13-.04.21-.06.21-.07.22-.06.22-.06.22-.06.22-.05.22-.05.23-.05.23-.04.23-.04.23-.04.24-.04.24-.04.24-.03.24-.03.24-.03.24-.03.24-.02.24-.02.24-.02.25-.02.24-.02.24-.01.24-.01.25-.01h.75l.25.01.24.01.25.01.24.01.24.02.25.02.242.02.24.02.24.03.24.03.24.03.24.03.24.04.23.04.12.02.12.02.12.03.12.02.12.02.11.03.11.03.11.03.11.03.11.03.11.03.11.03.07.02.04.01.11.03.11.04.11.04.11.04.11.04.103.04.11.04.11.04.11.04.1.04.1.04.11.04.1.04.1.05.1.05.1.05.1.05.1.05.1.058.09.05.1.06.1.06.1.06.1.06.1.07.1.07.09.07.09.07.09.07.09.08.09.07.09.07.09.08.09.08.08.08.09.08.08.08.08.08.08.08.08.09.08.09.08.09.076.085.08.09.08.08.07.09.07.09.08.1.07.09.07.1.07.1.07.097.07.09.07.1.07.1.07.09.06.1.06.1.07.1.06.1.06.1.06.1.06.1.06.1.06.1.06.11.05.11.06.1.06.11.05.106.05.11.06.11.06.11.1.21.1.22.1.22.09.22.09.22.09.22.09.22.08.22.08.22.07.22.07.22.07.22.06.22.06.22.06.22.06.218.05.21.05.22.04.21.04.21.04.21.02.11.02.1.01.07.01.03.01.11.02.11.02.1.01.1.01.1.01.1.01.1.01.1.01.1.01.1.01.1v.6l-.01.1-.006.09-.01.1-.01.095-.01.1-.01.09-.01.09-.02.09-.01.1-.02.09-.02.09-.02.1-.02.09-.025.09-.024.1-.03.1-.04.1-.04.09-.03.1-.04.09-.04.09-.04.09-.04.09-.04.08-.04.09-.04.09-.05.08-.05.08-.05.08-.054.08-.06.08-.05.08-.054.08-.06.08-.06.08-.06.08-.06.08-.06.08-.06.08-.06.08-.12.155-.136.15-.13.15-.14.15-.14.15-.14.15-.15.148-.15.14-.15.15-.15.14-.15.14-.15.14-.156.14-.15.14-.16.14-.15.137-.16.13-.15.13-.16.13-.15.12-.15.12-.15.12-.15.12-.14.11-.15.11-.14.11-.14.11-.27.21-.26.19-.24.18-.23.16-.21.15-.19.13-.13.09-.07.58-.13.02 1.55 3.76-.02.02 11.21 3.31.11.04.1.06.09.07.09.088.12.15.13.15.12.14.13.15.12.15.12.15h.005l.11.14.11.15.11.14.11.14.11.14.1.14.1.14.1.14.1.14.09.14.09.13.09.13.09.14.09.13.08.14.08.13.08.14.07.13.08.13.07.133.07.14.07.14.06.13.06.14.06.13.06.13.06.14.05.14.05.14.05.14.04.14.04.14.04.14.04.14.03.14.03.14.03.14.03.14.02.15.02.14.02.14.02.14.01.14.01.14.01.14.01.15v.3l-.01.15-.003.15-.01.16-.01.15-.01.16-.01.16-.01.16-.02.15v.01l-.02.16-.03.16-.615.48-.47-.61.02-.15.01-.14v-.01l.01-.14v-.14l.01-.14v-.66l-.01-.13v-.13l-.01-.12-.01-.12-.02-.13-.02-.12-.02-.12-.02-.12-.02-.12-.03-.12-.03-.12-.03-.12-.04-.1-.03-.12-.03-.11-.04-.11-.04-.11-.05-.11-.05-.11-.05-.11-.05-.11-.05-.12-.05-.11-.06-.11-.06-.11-.06-.11-.06-.12-.07-.11-.07-.12-.07-.113-.08-.12-.07-.12-.08-.12-.08-.12-.08-.11-.08-.11-.09-.12-.09-.12-.09-.12-.1-.12-.1-.12-.1-.12-.1-.12-.11-.12-.11-.12-.11-.13-.12-.13-.11-.12-.12-.13-.12-.13-.13-.14-.12-.14-.09-.1L35.5 32.2l-.07.29-.17-.05-.15-.07-.14-.1-.127-.12V32l-.11-.138-.088-.154-1.98-4.51-.07-.196-.04-.207.008-.21-.01-.002.13-1.537.04-.218.07-.21.11-.192.147-.172.17-.145v-.01l.04-.03.03-.02.18-.14.127-.1.14-.12.17-.14.19-.15.2-.17.22-.18.24-.2.25-.21.13-.11.13-.11.13-.12.13-.12.14-.12.13-.12.13-.12.133-.13.14-.12.13-.13.14-.13.13-.13.13-.13.13-.13.13-.13.13-.13.127-.14.12-.13.12-.13.12-.13.11-.13.11-.13.11-.13.1-.12.1-.12.1-.13.09-.13.04-.06.04-.06.04-.06.04-.06.04-.06.04-.06.04-.06.03-.06.03-.05.03-.05.03-.05.03-.05.03-.05.02-.04.02-.05.02-.05.02-.04.01-.04.015-.04.015-.04.01-.03.01-.03.01-.03.01-.03v-.02l.007-.02.01-.03.008-.03.01-.04v-.18l.004-.05v-.43l-.01-.07v-.06l-.003-.07-.01-.07-.01-.07-.01-.07-.004-.07-.01-.07-.01-.07-.01-.07-.02-.07-.01-.07-.02-.07-.01-.08-.01-.02-.01-.05-.02-.08-.02-.08.02-.14-.04-.16-.04-.16-.05-.17-.05-.17-.05-.17-.06-.17-.06-.17-.06-.17-.06-.18-.07-.17-.07-.18-.07-.17-.07-.17-.08-.17-.08-.18-.08-.18-.08-.17-.09-.17-.09-.17-.09-.17-.05-.08-.04-.08-.05-.09-.05-.08-.05-.08-.05-.08-.05-.08-.04-.08-.05-.08-.05-.08-.05-.07-.05-.08-.05-.08-.05-.08-.05-.07-.06-.07-.05-.07-.05-.07-.05-.07-.05-.07-.05-.06-.05-.06-.05-.07-.06-.06-.05-.06-.05-.06-.05-.06-.05-.06-.05-.05-.06-.06-.05-.05-.05-.05-.05-.06-.05-.05-.05-.05-.05-.04-.05-.05-.05-.05-.05-.04-.05-.04-.05-.04-.05-.04-.05-.04-.05-.04-.05-.03-.05-.03-.04-.03-.04-.03-.05-.03-.05-.02v-.03l-.05-.03-.06-.02-.06-.02-.06-.02-.06-.03-.06-.02-.06-.02-.07-.02-.07-.03-.07-.02-.07-.03-.07-.02-.07-.03-.07-.03-.08-.03-.08-.02-.08-.02-.08-.03-.08-.02-.08-.02-.08-.02-.03-.01-.05-.01-.09-.02-.08-.02-.08-.02-.08-.01-.08-.02-.09-.01-.09-.02-.09-.01-.09-.02-.09-.01-.09-.02-.09-.01-.19-.03-.19-.02-.19-.02-.19-.02-.19-.01-.19-.01-.2-.01-.2-.01-.2-.01h-1.02l-.2.01-.21.01-.21.01-.21.01-.21.02-.21.02-.2.02-.2.02-.2.03-.2.03-.2.03-.2.02-.2.03-.2.03-.2.03-.19.04-.19.04-.19.04-.18.04-.18.04-.18.04-.17.04-.17.05-.17.05-.17.04-.16.05-.16.05-.15.05-.09.03-.06.02-.14.05-.06.03-.07.03-.07.02-.07.02-.07.03-.06.03-.04.02-.03.02-.03.02-.033.02-.04.02-.03.02-.04.02-.04.02-.04.03-.03.02-.04.03-.04.03-.03.03-.04.03-.04.03-.04.03-.04.04-.04.04-.04.04-.04.04-.04.04-.04.04-.04.04-.04.04-.04.05-.04.05-.03.05-.04.05-.03.05-.03.06-.04.05-.04.06-.04.06-.03.06-.03.06-.04.06-.03.07-.03.07-.03.06-.03.07-.04.07-.01.02-.02.05-.03.07-.03.07-.03.08-.03.07-.03.08-.03.08-.03.08-.03.08-.03.08-.03.08-.03.08-.03.08-.03.08-.03.08-.03.09-.03.08-.02.08-.03.09-.02.08-.02.08-.03.09-.02.09-.03.09-.02.08-.04.18-.04.18-.04.18-.03.17-.03.17-.03.17-.01.09-.02.08-.03.17-.03.17-.02.17-.02.17-.016.17-.02.16-.01.17-.01.16v.6l.005.14.01.13v.13l.01.13v.06l.01.06v.11l.01.05v.06l.01.05.01.05.004.05.01.04.01.04.01.04.01.04.01.04.01.03.01.03.02.07.02.07.02.07.02.07.03.08.03.07.02.08.03.08.03.07.03.08.04.07.03.07.03.07.04.08.04.08.04.07.04.07.04.07.04.07.04.07.04.07.04.07.05.08.04.07.05.07.05.07.03.04.02.03.05.07.05.07.05.07.05.07.05.07.05.07.05.07.05.07.06.07.05.07.05.07.06.06.06.06.06.07.05.07.06.07.06.06.06.06.06.06.06.06.06.06.06.06.06.06.06.06.06.06.12.11.12.11.12.11.12.1.12.1.12.1.12.1.12.09.12.09.11.09.11.08.12.08.11.08.11.07.11.07.1.06.1.05.09.05.09.05.09.04.08.04.074.04.06.03.034.01.19-.03.32.013.32.07zm-1.903.506l-.107.12.175-.19-.068.06zm.26-.23l-.13.1h-.002l.137-.11h-.004z"/>
    <path d="M48.837 10.936l-.006.005v.02l-.01.01-.01.01-.01.01-.01.01-.01.02-.01.02-.01.02-.01.02-.01.02-.01.02-.01.02-.01.03-.02.03-.01.03-.02.03-.02.03-.02.03-.02.03-.02.04-.02.03-.02.04-.01.04-.01.04-.01.03-.04.09-.04.09-.03.09-.03.09-.04.09-.04.1v.01l-.03.1-.03.11-.03.1-.04.11-.03.11-.03.12-.03.12-.02.12-.02.12-.02.12-.02.12-.02.12-.02.12-.02.12-.01.12-.01.12-.02.12-.01.09v.04l-.01.12-.01.12-.01.12-.01.12-.01.11-.01.11v.62l.01.1v.09l.01.09.01.08.01.07V16l.01.06.01.06.01.05.01.04.01.04.01.04.01.05.02.05.02.05.01.05.02.05.02.05.01.05.02.05.02.044.02.05.02.05.02.05.02.05.02.048.02.05.02.05.02.04.05.1.05.1.05.094.02.03.03.07.05.09.05.09.05.09.05.09.06.09.06.09.06.09.06.086.07.085.06.09.07.08.06.08.07.08.06.08.07.07.07.08.06.07.07.07.07.064.06.06.07.06.06.06.06.05.06.05.06.05.06.04.05.04.05.04.05.04.05.04.04.03.03.02.03-.01.32.05.3.1.28.15.26.19.22.23.17.27.12.3.07.31.01.32-.05.32-.09.3-.13.33-.02.02-1.62 3.99-.13-.05-.02.04-.13.21-.19.22-.21.19-.01-.01-.24.13-.26.09-2.52.69-4.08 1.13-.02.04-.07.12-.07.12-.07.11-.07.11-.07.11-.06.1-.07.1-.06.09-.07.09-.13.18-.12.17-.11.16-.11.15-.04.05-.06.09-.1.13-.05.06-.04.07-.04.06-.04.06-.04.06-.04.06-.03.06-.04.06-.03.06-.03.06-.03.05-.03.06-.03.05-.03.05-.02.06-.03.06-.02.06-.02.06-.02.06-.02.06-.02.07-.01.07-.01.07-.01.08-.01.08-.01.09v.09l-.01.09v.29l.01.11v.11l.01.12.02.12.01.13.02.13v.03l.02.1-.4.67-.67-.39-.04-.11-.01-.03-.04-.14-.04-.14-.04-.13-.035-.13-.03-.13-.03-.13-.03-.13-.02-.12-.02-.12-.02-.12-.02-.12-.01-.11-.01-.12v-.65l.01-.1.01-.1.01-.1.015-.1.02-.1.026-.1.03-.1.03-.1.03-.1.03-.09.03-.09.04-.09.03-.09.04-.09.04-.09.04-.08.04-.08.04-.08.04-.08.08-.17.05-.11.03-.06.09-.17.09-.17.09-.17.09-.17.04-.09.05-.09.03-.09.04-.1.04-.1.04-.1.04-.1.04-.11.04-.11.05-.11.04-.11.04-.12.04-.12.05-.13.08-.18.1-.16.13-.15.16-.12.18-.1 2.97-1.25-.1-.18 3.07-1.04-.03-.03.3-.79v-.01l.38-1.07-.05-.03-.11-.08-.11-.08-.11-.08-.11-.09-.11-.09-.11-.09-.11-.09-.11-.1-.11-.1-.11-.1-.11-.11-.11-.11-.11-.11-.11-.11-.11-.12-.11-.12-.11-.12-.11-.13-.11-.13-.11-.13-.104-.13-.1-.14-.1-.14-.1-.15-.1-.15-.1-.15-.1-.15-.06-.11-.03-.05-.09-.16-.09-.17-.082-.17-.045-.09-.04-.08-.04-.08-.04-.09-.04-.09-.04-.09-.04-.09-.04-.09-.04-.09-.034-.09-.03-.09-.03-.09-.03-.1-.03-.1-.03-.09-.03-.09-.03-.1-.03-.11-.03-.13-.03-.14-.03-.14-.023-.14-.02-.14-.01-.02-.013-.13-.01-.15-.01-.15-.01-.14-.01-.15-.01-.15v-.61l.01-.16v-.16l.01-.16.01-.16.01-.16V14l.02-.167.02-.17v-.047l.01-.12.02-.167.02-.17.03-.17.03-.17.03-.17.04-.17.04-.17.04-.17.04-.17.04-.17.05-.17.04-.17.05-.17.05-.17.06-.17.06-.17.06-.16v-.01l.07-.17.07-.17.07-.16.07-.16.08-.16.08-.16.04-.09.04-.08.04-.08.05-.08.04-.07.05-.08.05-.08.05-.08.05-.08.05-.07.06-.08.05-.08.05-.08.05-.08.06-.07.06-.07.07-.07.06-.07.06-.07.07-.07.07-.07.07-.07.08-.07.08-.06.08-.06.08-.06.08-.06.08-.06.09-.06.08-.06.09-.06.1-.05.09-.06.09-.05.14-.07.07-.04.06-.03.14-.06.14-.06.14-.06.15-.05.14-.05.15-.05.14-.04.15-.04.15-.04.15-.04.15-.04.15-.04.15-.04.16-.03.15-.03.15-.02.15-.03.15-.03.16-.02.15-.02.16-.02.16-.01.16-.01.16-.02.16-.01.16-.01.16-.01.16-.01h.66l.16.01h.16l.16.01.16.01.16.02.16.02.16.01.16.02.155.02.16.03.16.03.16.03.16.03.16.03.15.03.16.04.15.04.15.05.15.05.15.05.15.06.065.03.08.03.15.06.1.07.14.07.14.07.08.04.07.04.07.04.07.04.07.04.07.04.07.05.07.04.07.05.07.05.08.05.07.05.07.05.06.06.06.06.07.06.07.05.06.06.06.06.06.06.06.06.06.06.06.07.06.06.06.06.05.06.05.06.06.07.1.13.1.14.09.14.09.14.09.14.08.15.08.15.08.15.08.15.08.15.07.15.07.15.07.16.07.16.07.16.07.15.06.16.06.16.06.16.05.16.055.16.05.16.05.17.05.16.05.17.05.16.04.16.04.16.04.16.04.16.03.16.04.16.03.16.03.16.02.15.02.15.02.15.02.16.02.16v.02l.01.14.01.15.01.15.01.15v.15l.01.14v.3l-.01.14-.01.14-.02.15-.01.14-.02.14-.02.08-.01.07-.01.07-.01.07-.02.07-.02.08-.02.07-.02.07-.03.07-.02.07-.02.07-.02.07-.03.07-.03.07-.06.12-.07.13-.07.13-.07.13-.07.12-.08.12-.08.12-.08.11-.08.12-.08.11-.09.12-.09.11-.08.11-.09.11-.09.11-.09.11-.1.1-.09.11-.09.1-.09.1-.1.1-.09.1-.1.1-.1.1-.093.1-.09.1-.1.09-.19.18-.18.18-.19.17-.18.15-.17.15-.16.14-.15.13-.14.12-.13.11-.11.09-.02.22-.14.02.87 2.49-.03.03 6.55 2.33.12.06.1.08.1.09.08.1.15.22.14.21.14.21.14.21.03.05.03.05.06.1.06.1.06.1.06.1.06.1.06.1.06.1.06.1.05.09.055.1.05.09.05.1.05.1.04.1.05.1.05.1.04.1.04.1.04.1.04.1.03.09.04.1.04.1.03.1.03.09.03.1.03.1.03.1.03.1.03.1.02.1.02.1.02.1.02.1.02.1.01.11.01.1.01.1.01.11.01.11V33l-.01.11-.01.11-.01.11-.01.11-.01.11-.01.11-.01.12v.01l-.02.1-.02.12-.6.49-.482-.61.01-.107.01-.09v-.01l.01-.1.01-.1v-.47l-.04-.05-.02-.09-.01-.09-.01-.09-.01-.086-.01-.083-.01-.08-.01-.08-.01-.08-.01-.09-.02-.08-.02-.08-.02-.08-.02-.08-.03-.08-.03-.08-.03-.08-.03-.08-.03-.073-.03-.08-.03-.08-.03-.08-.03-.08-.04-.07-.037-.08L64 31l-.033-.08-.04-.08-.04-.08-.04-.07-.045-.08-.042-.08-.043-.08-.05-.08-.05-.08-.05-.08-.054-.08-.056-.088-.05-.08-.056-.09-.06-.08-.06-.085-.06-.09-.07-.085-.07-.09-.06-.09-.03-.04-.03-.05-.14-.18-.15-.183-.14-.17-6.9-2.2-.08.24-.16-.06-.15-.08-.14-.1-.12-.13-.1-.14-.08-.16-1.23-3.22-.05-.17-.03-.17v-.18l.07-1.1.03-.2.06-.2.1-.18.12-.17.15-.15.04-.03.02-.01.09-.08.16-.15.1-.09.11-.11.12-.12.13-.13.14-.14.15-.14.15-.16.15-.16.15-.17.16-.18.08-.08.08-.09.07-.09.07-.09.08-.09.08-.09.07-.09.07-.09.07-.1.07-.09.07-.09.07-.09.07-.09.07-.09.06-.09.06-.09.05-.09.05-.09.05-.08.05-.08.04-.08.04-.07.04-.07.03-.07.03-.07.03-.06.02-.06v-.04l.01-.02.01-.02.01-.02v-.02l.01-.03-.01.03.01-.03.01-.03-.01.04v-.06l.01-.02.01-.05v-.36l-.01-.09-.01-.09-.01-.1-.01-.1-.02-.1-.01-.09v-.02l-.02-.1-.02-.11-.02-.11-.03-.11-.02-.11-.03-.12-.03-.12-.03-.12-.04-.12-.04-.12-.04-.12-.04-.13-.04-.12-.05-.12-.04-.12-.04-.12-.05-.12-.05-.12-.05-.12-.05-.12-.05-.12-.05-.12-.06-.11-.06-.11-.05-.11-.06-.11-.05-.1-.06-.1-.06-.1-.06-.1-.06-.1-.06-.09-.06-.09-.06-.09-.06-.08-.06-.08-.06-.07-.06-.07-.06-.07-.02-.03V11l-.03-.03-.03-.02-.03-.03-.03-.02-.03-.03-.02-.02-.03-.02-.06-.04-.02-.02-.02-.01-.02-.02-.02-.017-.02-.01-.02-.012-.02-.01-.02-.01-.01-.01h-.01l-.02-.01-.03-.01-.02-.01-.02-.01-.03-.01-.03-.01-.03-.01-.03-.01-.07-.03-.07-.03-.07-.03-.07-.02-.04-.01-.03-.01-.08-.03-.08-.02-.08-.02-.08-.02-.09-.02-.09-.02-.09-.02-.09-.02-.1-.02-.1-.01-.1-.02-.1-.01-.11-.01H53l-.11-.01h-.67l-.118.01-.11.01-.11.01-.11.01-.11.01-.115.01-.11.01-.11.01-.11.01-.11.02-.11.02-.11.02-.11.02-.11.02-.11.02-.11.03-.104.02-.1.03-.11.03-.1.03-.1.03-.1.03-.09.03-.09.03-.09.03-.08.03-.09.03-.08.03-.08.03-.07.04-.07.03-.06.04-.03.02-.033.01-.06.03-.02.01.05-.02-.02.01-.02.02.047-.03-.027.02-.02.02.04-.03-.02.02zm-.236 9.328l-.1.144.18-.23-.07.086zm.26-.256l-.13.12-.01.018.18-.162-.03.024zM10.8.33l.12.002.118.004.12.005.118.01.12.01.118.01.12.01.118.02.12.02.118.02.118.02.12.02.117.02.118.03.118.03.12.03.12.03.12.03.12.04.12.04.12.04.12.04.12.05.07.03.05.02.12.05.12.06.11.06.11.06.11.06.11.07.11.07.11.07.07.05.07.05.11.09.11.09.11.1.1.1.09.1.09.1.08.1.08.11.08.1.08.11.08.11.07.11.07.11.07.11.06.11.07.11.06.11.05.12.06.12.06.11.06.11.05.11.05.12.05.12.05.12.05.12.05.12.04.12.04.12.04.12.03.12.04.12.04.12.03.12.03.12.03.12.03.12.02.12.03.12.02.12.02.12.02.12.02.12.02.12.02.11.01.12.01.11.01.11.01.02V7l.01.11.01.11v.11l.01.11v.33l-.01.114-.01.11-.01.116-.01.11-.01.11-.02.11-.03.11-.03.12-.03.12-.04.12-.04.11-.04.107-.05.105-.05.1-.05.1-.06.095-.06.094-.06.09-.06.09-.06.09-.07.09-.06.08-.06.08-.07.08-.07.09-.07.08-.06.08-.07.08-.07.08-.07.08-.07.08-.14.14-.14.15-.14.14-.14.14-.14.13-.13.12-.13.12-.12.11-.12.11-.12.1-.11.09-.1.09-.14.12.47 1.37-.04.05 4.37 1.62.12.06.11.08.1.09.07.11.1.15.1.15.1.15.1.15.03.05.06.1.08.14.08.15.08.14.05.12.07.14.03.07.03.07.03.08.03.07.03.07.03.07.03.07.03.07.03.07.02.07.03.08.02.07.02.07.02.07.02.07.02.08.02.07.02.08.02.07.02.08.02.08.01.08.01.08.01.08.01.08.01.08.01.08.01.08v.46l-.01.08v.24l-.01.08-.01.08-.01.08-.01.08v.01l-.01.07-.02.08-.6.49-.48-.61v-.54l-.01-.06v-.12l-.01-.06v-.06l-.01-.06-.01-.06-.01-.06-.01-.05-.01-.06-.02-.05-.01-.06-.01-.05-.01-.06-.01-.05-.01-.06-.01-.05-.02-.05-.02-.05-.02-.05-.02-.05-.02-.05-.02-.05-.03-.05-.02-.05-.02-.05-.03-.05-.02-.05-.03-.05-.03-.05-.03-.05-.03-.05-.03-.06-.04-.05-.03-.05-.04-.05-.07-.11-.08-.11-.08-.11-.09-.11-.09-.11-.06-.08-.03-.04-.1-.13-.1-.12-.04-.04-4.72-1.51-.07.23-.16-.05-.15-.07-.14-.1-.12-.12-.1-.14h-.01l-.08-.16-.88-2.24-.05-.16-.03-.17v-.17l.04-.77.03-.2.06-.2.09-.18.12-.16.15-.14.03-.02.01-.01.06-.06.11-.11.14-.14.07-.08.09-.09.09-.1.1-.1.1-.11.1-.11.11-.12.1-.12.1-.12.1-.12.1-.12.1-.12.04-.06.05-.06.05-.07.04-.06.04-.06.04-.06.04-.05.04-.06.03-.06.03-.05.03-.05.03-.05.02-.05.02-.04.02-.04.02-.04.02-.03.01-.03.01-.02.01-.04-.02.05.01-.04.01-.04-.02.06.01-.03.01-.03-.01.06.01-.03v-.1l-.01.05v-.24l-.01-.04v-.1l-.01-.06-.1-.09-.01-.06-.01-.06-.01-.05v-.01l-.01-.07-.02-.07-.02-.07-.03-.08-.02-.07-.02-.08-.02-.07-.02-.08-.02-.08-.02-.08-.02-.08-.03-.08-.03-.08-.03-.08-.03-.08-.03-.08-.03-.08-.03-.08-.04-.08-.03-.08-.03-.08-.04-.08-.03-.08-.03-.08-.04-.07-.04-.07-.03-.07-.04-.07L13.2 5l-.03-.06-.03-.06-.04-.06-.04-.06-.04-.05-.04-.05-.04-.04-.04-.04-.03-.04-.03-.04-.03-.04-.03-.03-.03-.03-.02-.02-.03-.02-.02-.02-.04-.03.05.04-.03-.03-.01-.01h-.01l.03.02-.01-.01-.02-.01-.02-.01-.02-.01-.03-.01-.03-.01-.03-.01-.04-.01-.04-.01-.01-.01h-.03l-.04-.01-.05-.01-.05-.01-.05-.01-.05-.01H12l-.054-.01-.058-.01-.06-.01h-.06l-.06-.01-.064-.01-.06-.01h-.06l-.068-.01H11l-.07.01h-.142l-.07.01-.07.002-.07.007-.07.01-.07.01-.07.01-.07.01-.07.01-.07.01-.07.02-.073.02-.065.02-.066.02-.066.01-.064.01-.066.02-.06.01-.06.02-.056.02-.057.02-.052.02-.05.02-.05.02-.05.02-.045.02-.04.02-.04.02h-.01l-.008.01-.006.01-.01.01-.01.02-.014.03-.015.03-.016.03-.02.04L9 4.8l-.03.04-.02.048-.02.05-.02.057-.02.053-.02.06v.01l-.02.05-.02.07-.02.07-.02.07-.02.07-.02.07-.02.07-.016.076-.016.072-.01.074-.01.08-.01.078-.015.08-.015.08-.01.08-.01.08-.01.08-.005.06v.02l-.01.075-.008.076-.008.07-.01.07-.006.07v.45l.01.05v.11l.01.04v.12l.01.02v.04l.01.05.01.06.02.05.02.05.02.05.02.06.02.05.02.06.03.06.03.05.03.05.03.06.01.01.02.04.03.05.03.06.03.05.03.05.03.05.03.06.03.05.04.06.03.05.04.05.04.05.04.05.04.05.04.05.04.04.04.05.04.04.03.04.04.04.03.04.03.04.04.04.03.03.04.03.03.03.03.03.03.03.03.02.03.02.1.01.31.1.29.15.25.19.22.24.17.27.13.29.07.31.01.32-.04.31-.1.3-.13.32h.01l-.02.02-1.06 2.7-.13-.05-.04.07-.11.18-.19.21-.21.19-.01-.02-.24.13-.26.08-1.58.4-2.97.79-.04.06-.05.08-.05.08-.1.14-.1.13-.09.13-.09.12-.09.11-.08.1-.03.04-.05.06-.07.09-.07.08-.06.08-.03.03-.02.03-.03.03-.02.03-.02.03-.02.03-.02.04-.02.03-.02.03-.02.04.01-.02-.02.04-.02.04v-.02l-.01.05-.01.05v-.02l-.01.05-.01.04-.01.04-.02.04-.01.04-.01.05-.01.05-.01.05v.17l-.01.06v.38l.01.08.01.09V20l.01.073-.39.66-.66-.4-.03-.07-.01-.03-.03-.1-.03-.1-.03-.09-.03-.1-.03-.1-.03-.1-.02-.09-.02-.09-.02-.09-.02-.084-.01-.08-.01-.09-.01-.08-.01-.08v-.33l.01-.08.01-.08.01-.08.01-.08.01-.08.01-.08.02-.07.02-.07.02-.08.02-.07.03-.07.02-.07.02-.07.03-.07.02-.07.05-.13.06-.12.06-.12.03-.07.03-.05.05-.12.06-.12.06-.12.05-.13.06-.13.05-.13.03-.07.03-.07.02-.07.02-.07.03-.08.03-.07.03-.08.02-.08.02-.08.03-.09.07-.17.11-.17.13-.15.15-.11.18-.1L5.19 14l-.1-.15 2.14-.74-.026-.03.185-.518v-.01l.04-.12-.09-.06-.09-.06-.09-.07-.08-.07-.08-.07-.09-.08-.08-.07-.09-.08-.08-.08-.09-.08-.09-.09-.08-.09-.09-.09-.09-.09-.08-.1-.08-.09-.08-.1-.08-.1-.08-.1-.08-.11-.08-.11-.08-.11-.07-.12-.07-.113-.05-.09-.02-.03-.07-.13-.06-.12-.06-.12-.07-.13-.06-.14-.06-.13-.06-.14-.07-.12L4.8 9l-.05-.14-.05-.15-.04-.16-.03-.11-.02-.12-.02-.11-.02-.11-.02-.1-.02-.1-.01-.11-.01-.11-.01-.115-.007-.11V6.8l.007-.12.006-.12.01-.12.01-.12.01-.12.01-.124.026-.12v-.03l.01-.1.02-.13.015-.13.02-.13.02-.13.02-.13.03-.13.02-.11.03-.13.03-.13.03-.13.03-.12.04-.13.03-.13.04-.13.04-.13.04-.12.05-.11.05-.13.05-.13.056-.13.06-.13.06-.13.06-.12.07-.13.07-.13.07-.13.075-.12.08-.12.086-.12.09-.12.11-.13.097-.11.06-.07.06-.06.05-.053.05-.05.06-.06.06-.057.06-.055.07-.05.07-.05.07-.05.07-.05.08-.05.08-.05.07-.04.08-.04.08-.04.11-.05.04-.02.08-.03h.09l.1-.04.11-.04.11-.04.11-.03.11-.04.11-.04.11-.03.11-.03.11-.03.12-.02.11-.02.11-.03L9 .46l.12-.02.11-.02.11-.02.1.01.12-.01.11-.02.12-.01.12-.01.12-.01.12-.01.12-.008h.6zm-2.71 9.984l.007-.007-.113.16.006-.01.19-.243-.09.1zm.258-.265l.008-.01-.142.13.007-.01-.02.03.21-.19-.05.04zm.283-.2l.01-.01-.15.09.01-.01-.03.02.19-.12-.02.01zm.43-5.23l.04-.02-.02.01-.02.01-.01.01-.02.01-.02.02.05-.03h-.02l.04-.03h-.02zm.04-.02l-.01.01.02-.02zm.01-.01l-.01.01.02-.01h-.01zm.01-.01l-.01.01.01-.01zm.01-.01l-.01.01.02-.02h-.01zm0 0l-.01.01.01-.01h-.01z"/>
  </g>
</svg>
