<svg viewBox="0 0 38 47" xmlns="http://www.w3.org/2000/svg" fill-rule="evenodd" clip-rule="evenodd" stroke-linejoin="round" stroke-miterlimit="1.414">
  <path d="M35.668 1.883l-.057.778-.13.14-.02.02-.15.15-.15.16-.15.16-.15.16-.15.16-.15.16-.15.16-.15.16-.15.17-.15.17-.15.17-.15.17-.15.17-.15.17-.14.17-.15.18-.14.17-.14.18-.15.18-.14.18-.14.18-.09.12-.05.06-.14.18-.14.18-.14.19-.14.19-.14.19-.14.186-.14.19-.14.19-.14.19-.14.19-.14.19-.14.196-.14.198-.14.19-.13.2-.13.19-.13.2-.14.2-.14.2-.14.2-.13.2-.132.2-.132.21-.14.2-.13.2-.13.21-.132.206-.13.202-.13.21-.13.21-.13.21-.13.21-.13.21-.13.21-.124.21-.125.21-.125.21-.255.427-.25.43-.25.43-.25.43-.24.435-.25.43-.24.44-.24.437-.24.44-.233.44-.23.44-.23.44-.23.44-.23.44-.22.44-.22.44-.22.444-.22.44-.22.44-.212.44-.06.125-.15.32-.21.44-.21.44-.21.44-.203.44-.2.44-.2.437-.2.438-.19.43-.195.434-.19.43-.19.43-.18.43-.18.42-.18.423-.01.02-.176.4-.18.416-.177.41-.18.41-.17.41-.17.406-.17.4-.17.4-.16.396-.16.39-.157.387-.15.38-.15.38-.15.37-.13.33-.02.04-.146.366-.144.36-.14.353-.132.35-.134.345-.13.34-.15.397-.11.27-.258.64-.24.61-.23.6-.03.076-.19.49-.21.533-.2.51-.17.44-.02.043-.18.45-.165.42-.15.39-.135.36-.12.29-.01.03-.12.29-.1.25-.153.397-.09.24-.03.08-.14.3-.18.28-.23.236-.27.2-.29.15-.31.1-.323.042-.322-.01-.32-.07-.3-.12-.274-.16-.25-.21-.21-.248-.16-.27-.07-.15-1.86-4.18-1.7-3.9-2.65-6.45-1.51-3.84-.043-.11.25-.73.74.25.06.1L5 29.686l3.56 5.98 2.107 3.663.13.23.11-.29.21-.55.198-.51.03-.08.25-.61.25-.63.27-.65.11-.27.17-.4.15-.34.15-.35.153-.36.16-.36.16-.36.16-.37.02-.04.148-.33.176-.37.173-.38.18-.38.18-.39.184-.39.18-.39.19-.4.19-.4.19-.4.2-.4.2-.41.2-.41.2-.42.2-.4v-.02l.21-.42.22-.42.22-.43.22-.43.22-.43.23-.43.23-.43.23-.43.23-.43.24-.43.24-.43.24-.44.25-.44.25-.44.18-.32.07-.12.25-.435.26-.437.26-.434.26-.44.27-.43.27-.436.27-.43.274-.43.28-.43.275-.43.28-.43.28-.43.28-.424.28-.43.29-.42.29-.43.3-.42.294-.42.3-.41.3-.41.15-.204.15-.202.15-.208.155-.2.15-.21.15-.2.155-.2.15-.2.16-.2.15-.2.15-.2.15-.2.16-.2.16-.2.15-.19.16-.195.16-.2.16-.19.16-.19.15-.19.16-.19.16-.19.16-.19.16-.186.16-.184.16-.19.165-.18.16-.18.16-.18.16-.18.16-.18.16-.18.16-.18.16-.17.16-.177.165-.17.166-.17.06-.066.106-.11.17-.17.162-.17.17-.17.17-.16.17-.16.16-.16.17-.16.165-.16.17-.16.17-.16.17-.16.17-.15.17-.15.17-.15.17-.15.176-.15.17-.143.17-.14.17-.14.17-.14.18-.14.02-.01.15-.12.78.047z" fill="#231f20"/>
</svg>
