<svg viewBox="0 0 57 38" xmlns="http://www.w3.org/2000/svg" fill-rule="evenodd" clip-rule="evenodd" stroke-linejoin="round" stroke-miterlimit="1.414">
  <g fill="#231f20">
    <ellipse cx="12.266" cy="33.391" rx="3.8" ry="4.024"/>
    <path d="M7.757 16.49l.09.002.265.003.268.006.27.01.273.01.274.01.277.02.278.02.28.02.282.02.284.02.285.03.287.03.288.03.29.03.29.03.294.04.294.04.295.04.3.04.3.04.3.05.26.04.05.01.3.05.3.06.3.05.3.06.31.06.31.06.31.06.31.07.31.07.31.07.31.07.31.07.02.01.29.07.31.08.31.08.31.08.3.09.31.09.31.09.3.09.3.1.3.09.31.1.276.09h.02l.3.11.3.11.3.106.3.11.3.115.29.117.29.11.29.12.29.125.29.12.21.09.08.04.29.137.284.133.28.134.28.14.13.06.15.08.275.15.27.145.27.15.15.09.11.07.27.16.26.16.26.16.09.05.17.112.25.176.25.17.242.18.04.02.2.16.23.19.236.19.23.19.23.19.11.1.11.1.11.1.11.09.11.1.07.063.04.04.11.1.108.105.1.105.1.1.1.11.1.11.1.1.1.11.1.11.096.11.09.1.09.11.09.11.09.11.08.09.01.012.09.11.085.11.09.11.08.11.09.116.08.11.08.12.08.11.08.118.08.11.08.114.08.114.08.11.07.12.05.07.03.05.07.12.064.12.07.12.065.12.066.12.068.12.07.12.06.12.06.12.056.12.06.12.06.12.06.12.05.12.05.12.05.12.05.12.05.12.04.12.04.12.04.12.04.12.04.125.04.12.03.12.02.06.015.06.03.12.03.12.03.12.03.12.02.123.025.126.02.12.02.12.02.12.02.126.015.12.01.12.02.12.01.12.01.12v.065l.01.057-.4.67-.67-.396-.02-.046-.02-.055-.05-.093-.05-.096-.05-.09-.05-.1-.05-.09-.054-.09-.08-.1-.052-.09-.06-.09-.06-.09-.06-.09-.06-.08-.062-.08-.06-.09-.06-.08-.036-.043-.03-.04-.06-.08-.07-.09-.06-.08-.064-.08-.07-.09-.07-.08-.07-.08-.07-.08-.07-.082-.074-.08-.07-.08-.07-.08-.07-.08-.07-.08-.076-.08-.08-.08-.08-.07-.08-.08-.08-.075-.084-.08-.082-.08-.085-.08-.086-.08-.086-.076-.084-.074-.03-.03-.05-.04-.085-.07-.09-.08-.09-.07-.09-.08-.09-.075-.09-.07-.09-.07-.09-.075-.09-.07-.09-.07-.094-.07-.09-.08-.09-.07-.09-.07-.012-.01-.09-.07-.09-.07-.1-.07-.1-.07-.093-.07-.1-.07-.1-.08-.1-.07-.1-.07-.1-.07-.1-.07-.106-.07-.1-.07-.107-.07-.103-.07-.04-.02-.07-.05-.105-.07-.11-.07-.105-.07-.102-.07-.11-.064-.22-.14-.22-.136-.22-.13-.22-.13-.194-.11-.03-.02-.225-.14-.23-.14-.23-.14-.15-.09-.08-.05-.23-.14-.238-.13-.24-.132-.11-.05-.135-.08-.24-.14-.24-.14-.24-.14-.136-.07-.11-.06-.24-.14-.243-.14-.25-.135-.25-.136-.07-.034-.18-.1-.25-.14-.25-.13-.26-.13-.25-.14-.26-.13-.26-.134-.26-.13-.26-.13-.265-.13-.26-.13-.02-.01-.24-.12-.26-.13-.27-.124-.27-.124-.266-.12-.27-.12-.27-.12-.27-.11-.27-.115-.27-.11-.27-.11-.26-.1-.017-.003-.27-.116-.27-.11-.273-.1-.27-.106-.27-.1-.275-.1-.28-.1-.29-.14-.276-.1-.27-.094-.27-.096-.27-.09-.04-.017-.232-.08-.27-.09-.27-.09-.27-.086-.27-.083-.27-.08-.27-.08-.27-.08-.27-.07-.26-.076-.27-.07-.27-.07-.26-.07-.26-.064-.26-.07-.26-.06-.26-.06-.26-.06-.26-.06-.25-.06-.25-.05-.25-.04-.084-.02-.16-.03-.24-.054-.24-.04-.244-.04-.24-.035-.24-.03-.234-.03-.237-.03-.23-.03-.23-.03-.13-.01-.1-.01-.55-.55.56-.547.1-.01.137-.01.24-.02.24-.015.245-.016.25-.01.25-.01.25-.01.256-.01.26-.01.26-.005h.176zM4.487 1.667l.377.004.377.01.38.01.38.02.38.02.39.02h.04l.34.03.39.03.39.03.39.04.39.04.39.04.39.04.39.05.4.05.39.05.4.06.4.06.4.07.4.07.4.07.4.07.4.08.4.08.4.08.41.09.4.09.41.09.41.1.41.1.41.1.41.1.41.11.41.11.41.11.42.12.41.12.41.13.42.13.42.14.42.136.42.14.42.14.42.145.42.15.42.15.42.154.29.11.13.05.42.17.42.17.42.17.428.178.43.18.42.18.424.19.424.19.426.197.43.193.43.2.43.204.43.21.17.08.26.13.43.217.43.22.43.225.43.23.43.23.43.236.43.24.43.24.433.25.43.25.434.258.042.03.385.24.438.27.43.27.44.27.426.27.44.29.43.29.43.29.43.29.023.02.4.29.43.31.427.315.3.22.13.1.426.323.42.33.42.34.1.08.32.26.42.35.42.35.42.36.41.36.42.37.42.37.41.38.41.386.41.384.41.39.41.394.41.4.096.096.31.312.4.41.4.42.4.42.405.43.334.36.065.07.4.44.39.45.39.45.397.45.39.46.39.46.39.46.39.47.298.355.09.12.38.48.382.49.38.49.38.49.32.43.05.07-.02.77-.776-.012-.07-.06-.41-.34-.48-.39-.48-.383-.473-.382-.48-.38-.12-.09-.35-.29-.47-.38-.47-.37-.465-.37-.46-.366-.463-.36-.46-.36-.46-.35-.46-.35-.073-.05-.38-.3-.45-.35-.45-.35-.45-.34-.45-.34-.35-.3-.1-.083-.44-.34-.44-.33-.44-.33-.44-.327-.44-.32-.436-.312-.43-.32-.43-.32-.43-.312-.43-.31-.43-.31-.43-.305-.33-.23-.1-.07-.42-.3-.42-.3-.42-.3-.13-.09-.28-.21-.42-.29-.413-.29-.38-.27-.02-.02-.4-.29-.41-.28-.4-.28-.41-.28-.01-.01-.4-.27-.4-.28-.4-.273-.4-.27-.36-.24-.04-.03-.4-.265-.4-.268-.4-.26-.4-.26-.4-.25-.39-.25-.4-.25-.4-.24-.4-.24-.4-.24-.4-.23-.24-.14-.15-.09-.397-.23-.397-.23-.39-.23-.39-.22-.39-.212-.39-.21-.394-.21-.39-.205-.39-.2-.39-.2-.39-.193-.39-.197-.39-.186-.12-.06-.267-.125-.388-.18-.387-.18-.39-.18-.38-.18-.38-.17-.388-.164-.38-.16L19 6.95l-.384-.16-.38-.15-.38-.15-.39-.15-.38-.15-.37-.14h-.01l-.38-.14-.38-.136-.38-.136-.377-.13-.38-.13-.38-.12-.37-.12-.38-.12-.377-.12-.38-.11-.38-.11-.374-.107-.37-.1-.37-.1-.37-.1-.38-.09-.37-.09L9.94 4l-.37-.09-.37-.08-.37-.08-.37-.08-.37-.07-.39-.08-.37-.07-.37-.06-.326-.053-.04-.006-.365-.06-.36-.06-.368-.05-.366-.05-.367-.04L4.4 3l-.36-.04-.36-.036-.36-.037-.36-.03-.36-.024-.193-.02-.166-.01-.54-.56.57-.54.17-.006h.2l.37-.01.37-.01.38-.006h.75z"/>
  </g>
</svg>
