<svg xmlns="http://www.w3.org/2000/svg" width="87" height="26" viewBox="0 0 87 26">
  <g fill-rule="evenodd">
    <path d="M12 .713L.31 7.617h22.63M3.137 20.195V7.617H20.3v5.958"/>
    <path d="M3.137 20.195L20.3 25.16v-6.148l-6.022-3.115"/>
    <path d="M3.137 20.195l11.14-4.298 3.08 1.594m9.465-3.92h.838c.75 0 1.126-.45 1.126-1.36 0-.47-.09-.8-.274-.99-.184-.19-.422-.29-.715-.29h-.975v2.65zm0 4.49h1.1c.704 0 1.056-.54 1.056-1.64 0-.2-.015-.39-.048-.56-.032-.17-.09-.33-.17-.46-.084-.13-.196-.24-.338-.31-.142-.08-.318-.11-.528-.11h-1.072v3.1zm-1.84-7.53c0-.35.08-.6.24-.75.16-.15.41-.23.75-.23h2.47c.395 0 .73.06 1.01.19s.506.3.68.52c.174.22.3.49.378.81.078.32.117.67.117 1.06 0 .5-.092.93-.275 1.29-.183.37-.435.62-.756.74.504.19.847.48 1.03.87.184.4.275.86.275 1.38 0 .4-.04.79-.13 1.16-.08.38-.23.7-.43.98-.2.28-.46.51-.79.68-.32.17-.72.26-1.2.26h-2.38c-.33 0-.58-.08-.74-.23-.16-.15-.24-.41-.24-.76v-7.94zm7.1 2.21c0-.27.062-.49.186-.66.123-.16.323-.25.597-.25.275 0 .474.09.598.25.123.17.185.39.185.66v.71h.028c.128-.46.295-.85.5-1.15.207-.3.456-.45.75-.45.228 0 .423.09.583.26.16.17.24.45.24.83 0 .26-.08.49-.23.7-.15.21-.43.31-.82.31-.27 0-.49.09-.68.26-.19.18-.28.43-.28.76v3.69c0 .35-.08.6-.23.76-.15.16-.36.24-.61.24-.26 0-.46-.08-.61-.24-.16-.16-.23-.41-.23-.76v-5.9zm4.52-2.46c0-.26.093-.49.28-.68.19-.18.415-.28.68-.28.266 0 .493.1.68.29.188.19.282.42.282.68 0 .27-.094.5-.28.68-.19.19-.416.29-.68.29-.267 0-.493-.09-.68-.28-.19-.18-.283-.41-.283-.68zm.123 2.56c0-.35.075-.6.226-.76.16-.16.36-.24.62-.24s.46.08.61.24c.15.16.23.42.23.77v5.8c0 .35-.07.61-.22.77-.15.16-.35.24-.61.24s-.46-.08-.61-.24c-.15-.16-.22-.41-.22-.76v-5.8zm3.063 2.22c0-.45.022-.87.068-1.26.046-.39.154-.73.323-1.02.16-.29.41-.51.74-.68.32-.17.76-.25 1.32-.25.47 0 .86.08 1.17.22.3.15.54.33.71.55.17.22.29.44.35.68.06.24.09.43.09.6 0 .33-.08.57-.24.72-.16.15-.35.23-.59.23-.29 0-.5-.07-.64-.21-.14-.14-.21-.38-.21-.73 0-.24-.06-.42-.18-.54-.12-.12-.27-.18-.46-.18-.17 0-.3.05-.4.13-.1.09-.17.21-.22.37-.05.16-.08.35-.09.56-.01.21-.02.44-.02.69v1.65c0 .63.05 1.08.16 1.35.1.28.29.42.55.42.15 0 .3-.05.42-.16.13-.1.2-.3.2-.6.02-.48.1-.8.24-.97.14-.16.34-.24.61-.24.25 0 .45.09.6.26.15.17.23.41.23.72 0 .19-.03.41-.09.68-.06.27-.17.52-.34.77s-.41.45-.71.62c-.3.17-.7.25-1.2.25-.56 0-1-.09-1.33-.26-.32-.17-.57-.4-.74-.69-.17-.29-.28-.63-.32-1.02-.05-.39-.07-.81-.07-1.26V15.1zm7.485 1.56c0 .35.014.63.04.86.03.22.075.4.14.52.063.13.143.21.24.26.095.05.212.08.35.08.137 0 .253-.02.35-.07.096-.05.176-.14.24-.26.064-.13.11-.3.137-.52.028-.22.042-.51.042-.85v-1.78c0-.34-.017-.61-.05-.83-.03-.21-.08-.38-.15-.51-.068-.12-.15-.21-.247-.26-.096-.05-.204-.07-.323-.07-.128 0-.238.02-.33.07-.09.05-.17.14-.24.26-.068.12-.12.29-.15.51-.033.22-.05.49-.05.83v1.78zm-1.758-1.89c0-.39.037-.77.11-1.12.073-.35.206-.66.398-.92.193-.26.45-.47.776-.62.32-.15.74-.23 1.24-.23s.92.08 1.24.23c.32.15.58.36.77.62.19.26.32.57.4.92.07.36.11.73.11 1.13v2.03c0 .41-.04.78-.11 1.13-.08.35-.21.66-.4.92-.19.26-.45.47-.78.62-.33.15-.74.23-1.25.23s-.92-.08-1.25-.23c-.33-.15-.59-.36-.78-.62-.2-.26-.33-.57-.4-.92-.08-.35-.11-.72-.11-1.13v-2.02zm6.318-4.35c0-.35.076-.6.227-.76.15-.16.354-.24.61-.24.257 0 .46.08.612.24.15.16.227.42.227.77v2.42h.02c.13-.32.35-.56.64-.72.29-.16.6-.24.92-.24.46 0 .85.15 1.15.45.3.3.45.77.45 1.4v4.96c0 .35-.08.61-.23.77-.15.16-.36.24-.61.24-.26 0-.46-.08-.62-.24-.15-.16-.23-.41-.23-.76V14.1c0-.274-.06-.474-.19-.6s-.28-.185-.46-.185c-.27 0-.48.103-.64.314-.16.21-.24.55-.24 1.02v4c0 .35-.07.6-.23.76-.15.16-.36.24-.61.24-.26 0-.46-.08-.61-.24-.15-.16-.23-.41-.23-.76v-8.26zM61.2 15.6l-.59.414c-.184.13-.332.246-.447.35-.114.105-.204.21-.268.317-.064.11-.107.22-.13.34-.023.12-.035.26-.035.42 0 .29.053.51.158.66.106.15.25.23.433.23.28 0 .49-.13.65-.4.16-.26.24-.6.24-.99V15.6zm1.676 2.26c0 .24.016.455.048.648s.048.35.048.47c0 .44-.28.66-.838.66-.23 0-.433-.065-.61-.2-.18-.132-.27-.382-.27-.75l-.027.014c-.155.34-.373.58-.652.722-.28.14-.57.212-.872.212-.247 0-.476-.04-.687-.117-.21-.08-.394-.2-.55-.36-.155-.16-.276-.37-.363-.62-.087-.26-.13-.56-.13-.9 0-.57.09-1.03.267-1.37.18-.35.488-.64.927-.88l1.497-.79c.358-.18.536-.45.536-.79 0-.2-.055-.38-.165-.53-.11-.15-.27-.22-.48-.22-.294 0-.495.07-.605.22-.11.15-.183.37-.22.66-.018.16-.1.3-.247.39-.146.09-.33.14-.55.14-.09 0-.19-.01-.295-.04-.105-.03-.2-.06-.288-.12-.087-.06-.158-.13-.213-.22-.055-.09-.082-.2-.082-.33 0-.32.062-.6.185-.85.124-.25.29-.46.502-.62.21-.17.457-.29.74-.38.285-.09.587-.13.908-.13.558 0 1.002.06 1.332.17.33.12.58.27.75.48.168.2.278.43.328.7.05.26.076.55.076.85v3.83zm3.16-1.432c0 .534.056.97.17 1.31.115.34.337.51.666.51.312 0 .506-.17.584-.51.078-.34.117-.822.117-1.446v-.98c0-.413-.012-.753-.035-1.02-.022-.266-.06-.48-.116-.64-.055-.16-.128-.273-.22-.337s-.206-.096-.343-.096c-.11 0-.2.02-.3.07-.1.04-.19.13-.26.27-.08.13-.14.31-.2.55-.05.23-.08.54-.08.91v1.4zm-1.677-6.06c0-.35.07-.603.22-.763.15-.16.35-.24.61-.24.25 0 .46.08.61.24.15.16.22.413.22.762v2.328h.02c.15-.284.36-.5.62-.646.26-.15.54-.22.85-.22.37 0 .68.08.91.24.23.16.41.37.54.64.13.26.21.57.26.92.04.35.07.72.07 1.1v2c0 .38-.03.75-.07 1.1-.05.35-.14.66-.26.92-.13.26-.31.48-.55.64-.24.16-.54.24-.92.24-.32 0-.61-.08-.87-.22s-.46-.36-.62-.66c0 .25-.08.45-.23.62-.16.16-.36.25-.61.25-.26 0-.46-.08-.61-.24-.15-.16-.23-.42-.23-.77v-8.26zm6.23-.095c0-.262.09-.49.28-.68.19-.184.41-.28.68-.28.26 0 .49.096.68.284.18.19.28.418.28.685 0 .266-.1.493-.28.68-.19.19-.42.284-.68.284-.27 0-.49-.095-.68-.284-.19-.19-.28-.416-.28-.68zm.12 2.567c0-.35.07-.603.22-.764.15-.16.35-.24.61-.24.25 0 .46.08.61.24.15.16.22.414.22.763v5.8c0 .35-.08.6-.23.76-.15.16-.36.24-.61.24-.26 0-.46-.08-.62-.24-.15-.16-.23-.42-.23-.77v-5.8zm3.4.428h-.18c-.25 0-.44-.043-.56-.135-.13-.09-.19-.253-.19-.48 0-.24.06-.405.18-.497.12-.093.31-.14.55-.14h.18v-1.28c0-.35.07-.604.22-.764.15-.16.35-.24.61-.24s.46.08.61.24c.15.16.23.413.23.762V12h.38c.25 0 .43.047.56.14.12.09.18.256.18.495 0 .23-.06.39-.19.482-.13.092-.31.138-.56.138h-.38v4.38c0 .156.03.278.08.365.05.087.18.14.37.158.19.01.34.055.45.138.11.084.16.235.16.455 0 .29-.08.49-.26.61-.17.12-.44.18-.79.18-.32 0-.59-.04-.81-.12-.22-.07-.4-.18-.53-.31s-.22-.27-.27-.44c-.06-.16-.09-.33-.09-.51v-4.91zm6.38 2.34l-.59.417c-.19.13-.34.246-.45.35-.12.105-.2.21-.27.317-.07.105-.11.217-.13.337-.03.12-.04.25-.04.41 0 .28.05.5.16.65.1.15.25.22.43.22.27 0 .49-.14.64-.4.15-.27.23-.6.23-.99v-1.34zm1.67 2.26c0 .24.01.458.04.65.03.19.05.35.05.47 0 .44-.28.66-.84.66-.23 0-.43-.067-.61-.2-.18-.134-.27-.384-.27-.75l-.03.012c-.16.34-.38.58-.65.725-.28.144-.57.215-.88.215-.25 0-.48-.04-.69-.116-.21-.08-.39-.2-.55-.36-.16-.16-.28-.366-.36-.62-.09-.252-.13-.552-.13-.9 0-.57.09-1.027.27-1.37.18-.346.49-.64.93-.876l1.49-.786c.35-.18.53-.443.53-.783 0-.21-.06-.38-.17-.53-.11-.15-.27-.22-.48-.22-.3 0-.5.07-.61.22-.11.15-.18.37-.22.66-.02.17-.1.3-.25.39-.15.09-.33.14-.55.14-.09 0-.19-.01-.3-.03-.11-.03-.2-.07-.29-.12-.09-.06-.16-.13-.21-.22-.06-.09-.08-.2-.08-.33 0-.32.06-.61.18-.86s.29-.46.5-.62c.21-.17.46-.3.74-.38.28-.09.59-.13.91-.13.56 0 1 .05 1.33.17.33.11.58.27.75.47.17.2.28.44.33.7.05.26.07.55.07.85v3.83zm1.59-4.6h-.18c-.25 0-.44-.043-.56-.135-.12-.09-.19-.253-.19-.48 0-.24.06-.405.18-.497.12-.093.31-.14.55-.14h.18v-1.28c0-.35.07-.604.22-.764.15-.16.36-.24.61-.24.26 0 .46.08.61.24.15.16.22.413.22.762V12h.38c.24 0 .43.047.55.14.12.09.182.256.182.495 0 .23-.06.39-.183.482-.12.092-.31.138-.557.138h-.38v4.38c0 .156.03.278.085.365.06.087.18.14.37.158.196.01.35.055.46.138.11.084.17.235.17.455 0 .29-.08.49-.26.61-.17.12-.44.18-.8.18-.33 0-.6-.04-.82-.12-.22-.07-.397-.18-.52-.31-.13-.13-.22-.27-.28-.44-.05-.16-.08-.33-.08-.51v-4.91z"/>
    <path d="M26.598 23.932c0 .074-.016.132-.05.173-.03.04-.09.06-.17.06-.077 0-.134-.023-.17-.07-.037-.05-.056-.11-.056-.18v-.08h-.008c-.125.22-.314.33-.57.33-.166 0-.302-.034-.41-.105-.105-.07-.188-.17-.247-.3-.06-.13-.1-.285-.123-.466-.023-.182-.034-.382-.034-.6v-.31c0-.26.018-.48.053-.66.035-.18.093-.324.172-.435.08-.12.18-.2.302-.24.12-.06.27-.08.445-.08.153 0 .284.02.393.06.11.04.198.1.267.17.07.07.12.15.155.24.034.09.05.18.05.27 0 .1-.02.18-.065.25-.044.06-.116.09-.22.09-.098 0-.167-.03-.206-.08-.04-.06-.065-.15-.077-.29-.01-.07-.04-.13-.08-.19-.05-.06-.13-.09-.25-.09-.05 0-.1.01-.14.03-.05.02-.08.06-.12.12-.03.06-.06.14-.08.25-.02.11-.03.25-.03.43v.42c0 .18 0 .34.01.47s.02.24.05.32c.02.08.06.14.11.18.04.04.11.06.19.06.12 0 .21-.06.25-.17.05-.12.07-.27.07-.45v-.17h-.23c-.08 0-.14-.03-.18-.07-.04-.05-.06-.11-.06-.17 0-.09.02-.15.06-.19.04-.04.1-.06.18-.06h.48c.1 0 .17.02.22.06.04.04.06.12.06.21v1.22zm.386-1.898c0-.085.02-.154.058-.204.038-.052.1-.077.184-.077.085 0 .147.025.185.077.04.05.06.12.06.204v.217h.01c.04-.14.09-.26.16-.35.07-.09.14-.14.23-.14.07 0 .13.03.18.08.05.05.08.14.08.26 0 .08-.02.15-.07.22-.04.07-.13.1-.25.1-.08 0-.15.03-.21.08-.05.06-.08.14-.08.24v1.14c0 .11-.02.19-.07.24-.04.05-.11.08-.19.08s-.14-.02-.19-.07c-.04-.05-.07-.13-.07-.24v-1.82zm1.376.03c0-.108.023-.187.07-.237.047-.05.11-.075.19-.075.078 0 .14.026.188.075.046.05.07.13.07.236v1.41c0 .085.016.146.05.185.034.038.084.057.15.057.09 0 .158-.032.203-.098.05-.065.07-.17.07-.315v-1.24c0-.106.03-.185.07-.235.05-.05.11-.075.19-.075s.14.026.19.075c.05.05.07.13.07.236v1.793c0 .108-.02.186-.07.236-.04.05-.11.074-.19.074s-.14-.024-.19-.074c-.04-.05-.07-.124-.07-.224h-.01c-.04.1-.11.174-.2.224-.09.05-.18.074-.28.074-.14 0-.26-.046-.35-.138-.09-.092-.14-.236-.14-.432v-1.533zm1.948 0c0-.108.023-.187.07-.237.047-.05.11-.074.19-.074.078 0 .14.025.188.074.046.05.07.13.07.237h.008c.046-.1.11-.177.195-.23.08-.054.17-.08.26-.08.11 0 .21.024.28.073.07.05.13.116.16.198.04.082.06.178.08.285.01.108.02.222.02.34v.618c0 .12-.01.233-.02.34-.02.108-.05.204-.09.286-.04.082-.1.148-.17.198-.08.05-.17.074-.29.074-.1 0-.19-.02-.27-.063-.08-.043-.14-.11-.19-.197h-.01v.776c0 .107-.02.186-.07.236-.05.05-.11.074-.19.074s-.14-.024-.19-.074c-.05-.05-.07-.13-.07-.236v-2.618zm.518 1.132c0 .164.018.3.053.404.03.105.1.158.2.158.09 0 .15-.053.18-.158.02-.104.03-.254.03-.447v-.323c0-.128-.01-.233-.01-.315-.01-.083-.02-.15-.04-.198-.02-.05-.04-.085-.07-.105-.03-.02-.07-.03-.11-.03-.03 0-.06.008-.09.022-.03.014-.06.042-.09.083-.02.04-.04.098-.06.17-.02.072-.02.167-.02.284v.46zm1.32-.55c0-.12.01-.237.034-.346.023-.11.064-.205.123-.286.06-.08.14-.144.24-.19.1-.048.228-.07.384-.07s.284.022.384.07c.11.046.19.11.24.19.06.08.1.176.13.286.02.11.04.225.04.347v.625c0 .126-.01.242-.03.35-.02.107-.06.202-.12.283-.06.08-.14.145-.24.19-.1.048-.22.07-.38.07s-.28-.022-.38-.07c-.1-.045-.18-.11-.24-.19s-.1-.176-.12-.283c-.02-.108-.03-.224-.03-.35v-.625zm.543.584c0 .108 0 .196.01.264s.02.12.04.16c.02.037.04.065.07.08.03.016.06.024.1.024.04 0 .08-.008.11-.024.03-.015.05-.043.07-.08.02-.04.03-.092.04-.16s.01-.156.01-.264v-.55c0-.104-.01-.19-.02-.257-.01-.066-.03-.12-.05-.157-.02-.038-.05-.065-.08-.08-.03-.017-.06-.025-.1-.025-.04 0-.07.01-.1.03-.03.02-.05.05-.07.08-.02.04-.04.09-.05.16-.01.07-.02.16-.02.26v.55zm2.92.642c0 .09-.03.163-.09.215-.06.053-.13.08-.2.08-.08 0-.14-.027-.2-.08-.06-.052-.09-.124-.09-.215v-2.52c0-.108.02-.186.07-.233.05-.05.12-.08.23-.08h1.06c.1 0 .18.02.22.07.04.04.07.11.07.18 0 .07-.02.13-.07.18-.05.05-.12.07-.23.07h-.79v.7h.79c.1 0 .18.02.23.07.04.05.07.11.07.18s-.02.13-.07.18c-.05.05-.12.07-.23.07h-.79v1.1zm1.35-1.225c0-.122.01-.238.03-.347.02-.11.06-.205.12-.286.06-.08.14-.144.24-.19.1-.048.22-.07.38-.07s.28.022.38.07c.1.046.18.11.24.19s.1.176.12.286c.02.11.03.225.03.347v.625c0 .126-.01.242-.04.35-.03.107-.07.202-.13.283-.06.08-.14.145-.24.19-.1.048-.23.07-.39.07s-.28-.022-.38-.07c-.11-.045-.18-.11-.24-.19s-.11-.176-.13-.283c-.02-.108-.04-.224-.04-.35v-.625zm.54.583c0 .108 0 .196.01.264s.02.12.04.16c.02.037.04.065.07.08.03.016.06.024.11.024s.08-.008.11-.024c.03-.015.05-.043.07-.08.02-.04.03-.092.04-.16s.01-.156.01-.264v-.55c0-.104-.01-.19-.02-.257-.01-.066-.03-.12-.05-.157-.02-.038-.05-.065-.08-.08-.03-.017-.07-.025-.1-.025-.04 0-.08.01-.11.03-.02.02-.05.05-.07.08-.02.04-.04.09-.05.16-.01.07-.02.16-.02.26v.55zm1.37-1.196c0-.085.02-.154.06-.204.03-.052.1-.077.18-.077.08 0 .14.025.18.077.04.05.05.12.05.204v.217h.01c.03-.14.09-.26.15-.35.06-.09.14-.14.23-.14.07 0 .13.03.18.08.05.05.07.14.07.26 0 .08-.03.15-.07.22-.05.07-.13.1-.26.1-.08 0-.15.03-.21.08-.06.06-.09.14-.09.24v1.14c0 .11-.02.19-.07.24-.05.05-.11.08-.19.08s-.14-.02-.19-.07c-.05-.05-.07-.13-.07-.24v-1.82zm1.31.685c0-.15 0-.29.02-.4.01-.12.05-.22.1-.31s.13-.15.24-.2c.1-.05.24-.07.42-.07.27 0 .45.07.56.22.1.15.16.38.16.68 0 .05-.01.1-.01.14-.01.04-.02.08-.04.12-.02.03-.05.06-.09.07-.04.02-.09.03-.16.03h-.68v.23c0 .06 0 .13.01.19 0 .06.01.11.03.15.01.04.04.08.07.1.03.03.07.04.12.04.06 0 .11-.03.14-.07.04-.05.06-.11.06-.17.01-.11.03-.19.08-.22.04-.04.1-.06.18-.06s.14.02.19.05c.05.03.07.1.07.2 0 .21-.07.37-.19.49-.13.12-.3.17-.51.17-.18 0-.32-.02-.42-.07-.11-.05-.19-.11-.24-.2-.06-.08-.09-.18-.11-.3s-.03-.25-.03-.4v-.48zm.89-1.81c.03-.03.05-.05.08-.06.02-.01.05-.01.08-.01.04 0 .08.01.12.05.04.03.06.07.06.13 0 .04-.01.07-.04.11s-.05.06-.08.08l-.34.31c-.02.02-.05.04-.07.05-.03.01-.05.01-.08.01-.06 0-.1-.02-.13-.06s-.05-.08-.05-.14c0-.05.02-.1.06-.14l.35-.37zm.09 1.75v-.19c0-.09-.02-.16-.05-.22-.03-.06-.09-.09-.18-.09s-.15.03-.18.09c-.04.06-.05.13-.05.22v.19h.45zm1.11.32c-.07-.06-.13-.11-.18-.16-.04-.05-.08-.1-.11-.15-.03-.05-.05-.1-.06-.15-.01-.05-.01-.11-.01-.17 0-.21.06-.37.2-.47.13-.11.3-.16.51-.16.14 0 .25.02.34.06.09.04.16.09.21.15.05.06.09.12.11.19.02.06.03.12.03.16 0 .08-.02.14-.06.18-.04.05-.11.07-.22.07-.14 0-.21-.07-.22-.2-.01-.08-.03-.14-.07-.18-.04-.04-.1-.06-.16-.06s-.1.01-.13.04c-.04.03-.05.07-.05.13 0 .04.01.08.02.12.02.04.05.07.09.1l.32.24c.08.06.15.11.21.17.06.05.11.1.15.16.04.05.07.11.09.17.02.06.03.13.03.21 0 .11-.02.21-.06.29-.03.08-.09.15-.16.21-.06.06-.14.1-.24.13-.09.03-.19.04-.29.04-.14 0-.25-.02-.35-.06-.09-.04-.16-.09-.21-.16-.05-.06-.09-.13-.11-.21-.027-.08-.038-.15-.038-.22 0-.1.02-.17.072-.21.05-.04.11-.05.17-.05.1 0 .16.02.2.08.03.05.06.13.07.24 0 .05.02.09.05.13.03.04.09.06.17.06.13 0 .2-.08.2-.22 0-.06-.01-.1-.04-.14-.02-.04-.07-.09-.14-.14l-.4-.3zM67.64 4c1.738 0 3.32.17 4.75.513 1.427.342 2.654.75 3.676 1.22 1.023.473 1.814.96 2.374 1.466s.84.92.84 1.24c0 .27-.075.52-.22.73-.147.21-.43.31-.853.31-.21 0-.556-.12-1.034-.37-.48-.25-1.137-.52-1.973-.82-.835-.3-1.87-.57-3.103-.82-1.234-.25-2.72-.37-4.457-.37-1.737 0-3.222.12-4.456.36-1.234.24-2.27.51-3.104.82-.836.3-1.494.57-1.973.82-.48.24-.823.36-1.035.36-.422 0-.706-.11-.852-.32-.146-.21-.22-.46-.22-.74 0-.33.28-.74.84-1.25.56-.51 1.352-1 2.375-1.47s2.25-.88 3.677-1.22c1.428-.33 3.01-.5 4.748-.5"/>
  </g>
</svg>
