<svg viewBox="0 0 116 40" xmlns="http://www.w3.org/2000/svg" fill-rule="evenodd" clip-rule="evenodd" stroke-miterlimit="3.864">
  <path d="M19.17 5.937c-.12-.207-.19-.462-.19-.738 0-.7.44-1.26.984-1.26s.83.56.83 1.25c0 .29-.05.55-.146.76" fill="none" stroke="#231f20" stroke-width=".3"/>
  <path d="M20.22 4.89c0 .32-.203.484-.677.63-.202.062-.393.152-.525.037 0 0-.027-.245-.017-.51.01-.1.33-.212 1.22-.156z" fill="none" stroke="#231f20" stroke-width=".3"/>
  <path d="M18.98 5.045c.05-.525.44-1.097.984-1.097s.837.534.83 1.02c.01.04-.404-.082-.948-.082-.544 0-.63.115-.866.16m-1.843-2.582c-.233 0-.835.128-1.05.507-.214.38-.346.61-.164.8.183.2.475.31.78-.05.306-.36.324-.72.525-.8.2-.07.813-.5-.09-.45zm3.628.342S20.24 2.5 19.93 2.5c-.31 0-.584.343-.33.562.257.22.69.56.763.616.073.054.397.374.507.324.11-.05.548-.475.383-.653-.164-.18-.488-.55-.488-.55zm-4.7 3.004c-.07-.17-.107-.364-.107-.57 0-.69.44-1.25.985-1.25.543 0 .83.56.83 1.25 0 .4-.096.757-.282.986" fill="none" stroke="#231f20" stroke-width=".3"/>
  <path d="M17.188 4.954c0 .32-.192.462-.666.608-.202.062-.393.152-.525.037 0 0-.043-.24-.033-.5.004-.1.553-.16 1.224-.15z" fill="none" stroke="#231f20" stroke-width=".3"/>
  <path d="M15.958 5.087c.05-.525.44-1.097.985-1.097.543 0 .836.534.83 1.02.01.04-.405-.082-.95-.082-.542 0-.728.134-.865.16m-2.17 2.468s-.037 1.342 1.05 1.305c1.086-.03 1.214-1.25 1.214-1.25M14.82 8.88s.725.27.835.757c.11.488 1.305 1.264 2.573 1.123 1.27-.142 2.433-.073 3.136-1.648m-1.16-1.27s.343 1.434 1.52 1.252c1.178-.183 1.502-.598 1.648-1.03" fill="none" stroke="#231f20" stroke-width=".3"/>
  <path d="M18.88 6.416c-.652-.397-1.25.123-1.25.123m-.4 1s-.494 1.68.597 1.75c1.09.07 1.25-1.6 1.287-1.96" fill="none" stroke="#231f20" stroke-width=".3"/>
  <path d="M18.866 6.677c0-.574.465-1.038 1.038-1.038.574 0 1.04.46 1.04 1.03 0 .57-.466 1.04-1.04 1.04-.573 0-1.038-.47-1.038-1.04zm-3.33.043c0-.574.465-1.04 1.038-1.04.574 0 1.04.466 1.04 1.04 0 .573-.466 1.037-1.04 1.037-.573 0-1.038-.464-1.038-1.038z" fill="none" stroke="#231f20" stroke-width=".3"/>
  <path d="M32.752 19.824l.015-.003-1.783 2.7-.81 1.04s-.326.39-.813.85c-.84.59-1.36 2.08-2.1 2.53-.74.52-1.38 1.62-.94 2.5.39.78 2.08 1.33 2.08 1.33s2.21 1.2 3.5 1.46c1.07.39 1.94.73 2.89 1.01 3.41 1.2 3.21 1.74 4.61 2.58.48 1.15.18 1.06-.33 1.9-.68.65-1.33.71-2.43.94-1.12-.11-1.45-.15-1.85-.26-.39-.11-2.05-.62-3.29-.95-1.23-.34-1.39-.64-2.32-1.06-1.23-.55-2.69-1.26-3.66-1.49-1.29-.26-1.83-.7-2.14-.87-.52-.29-.42-2.2-1.42-3.14-.84-.65-1.18-.82-1.91-1.55-1.43-.29-2.58.22-3.08.39-.84 1.36.55 2.21 1.27 2.76.94 1.17.26 1.95-.09 2.17-.94.49-2.56 1.14-3.11 1.59-1.23.46-3.24 1.96-3.85 2.01-.61.06-2.82.23-3.56.39-.78.23-1.85.62-2.79.62-.52.07-.71 0-2.3-.19-3.24-.39-1.59-2.75-.26-3.31 2.53-.81 3.73-1.17 4.86-1.46.91-.06 1.07-.62 2.81-.68.68-.25 1.32-.54 1.73-.85 1.23-.22.98-2.69-.84-3.31-1.05-.35-3.59-2.42-4.28-2.91l-2.8-1.87c2.16 1.14 5.8 2.13 6.25 2.13.51 0 3.35 1.22 4.92-3.21.66 2.94 2.02 4.9 5.2 4.32 1.85.71 6.94-2.63 9.31-4.38 1.12-.97 2.59-2.59 3.36-3.66z" fill="#231f20" stroke="#231f20" stroke-width=".3"/>
  <path d="M3.71 24.628l-.677-.332c-1.6-1.006-.437-3.386.044-4.225m30.176-1.06l-.5.82M3.126 24.24l.583.39m26.45-5.335c-1.8 1.13-6.03 3.255-12.84 3.657m-5.57-.1c-.18-.03-.32-.05-.49-.082-2.25-.43-4.18-1.163-4.89-1.452M9.1 18.22c.72.25 1.775.585 2.99.864m5.183.5c.184-.012.367-.03.548-.053 4.95-.27 8.87-1.81 10.73-2.68" fill="none" stroke="#231f20" stroke-width=".3"/>
  <path d="M13.86 18.715s-1.623-.44-1.88.655c-.256 1.097-.288 3.113-.288 3.113s-.056.808 1.136.936c1.193.12 3.665.16 3.665.16s.976.1.776-.91c-.2-1.01-.2-1.23-.13-1.66.06-.43.13-1.4.13-1.4s.24-.94-.82-.88c-1.07.06-2.59-.04-2.59-.04z" fill="none" stroke="#231f20" stroke-width=".3"/>
  <path d="M14.02 19.432s-.892-.31-1.033.463c-.14.773-.158 2.196-.158 2.196s-.04.57.62.67c.65.09 2.01.12 2.01.12s.53.08.42-.64c-.11-.71-.11-.87-.07-1.17.03-.3.07-.98.07-.98s.13-.66-.45-.61c-.59.05-1.43-.03-1.43-.03zm-9.298-6.87s-3.358 1.604-3.358 4.796c.108 1.35.8 2.264 1.615 2.88m2.77-3.358c-.29-.613-.51-1.327-.2-1.697.27-.324.82-.738 1.35-1.098" fill="none" stroke="#231f20" stroke-width=".3"/>
  <path d="M9.132 18.267c.128.16-1.008-2.336-2.952-1.624-1.945.712-3.08 3.344-3.08 3.344s-.52 1.745-.168 2.36c.103.457.39.585.72.68.48.193.615 1.497 1.424 1.273.808-.225.552-.264.552-.264s.352.224.744.032.128-.705-.032-1c-.16-.296-.256-.784-.096-1.336.16-.513.224-2.33.84-2.785.776-.744 1.92-.84 2.048-.68zM4.428 20.3s-1.16 1.688-.777 2.728m2.01-2.945L4.98 21.9s-.456.55-.032 1.096c.224.52.712 1.072.712 1.072M31.02 5.453l-.482-1.48s-.314-1.25.33-1.478c.646-.228.628.605.902 1.032.234.364.674 1.47.87 1.877" fill="none" stroke="#231f20" stroke-width=".3"/>
  <path d="M33.362 11.62s.987-3.222.085-4.283c-.057-.2.474-1.175-.815-1.962-1.848-.03-2.123.17-2.38.313-.53.16-.918.53-.918.53s-1.763-.444-.7 2.55c.216.19-.115 1.12.672 2.094.33.2.33.816.33.816M28.5 8.372s.19.557.55.614m.53 2.16s.788.076.873.247m-1.09-5.146s-.86.958-.028 1.792c0-.82 1.792-2.05 2.88-1.44M29.345 8s-.274.89.702 1.09m1.496-1.47s-1.563.02-1.478 1.506c.218.673.66.804 1.005.53.273-.216.376-.918.244-1.032.03.228.57.76 1.1.143" fill="none" stroke="#231f20" stroke-width=".3"/>
  <path d="M33.33 11.455c.656 1.162.664 1.63.968 3.548.304 1.92-.858 4.313-1.74 4.274-.88-.04-.685-.047-1.574.11-.89.155-1.272-.39-1.39-.617-.115-.226-1.73-2.527-1.613-3.728.12-1.2 1.08-2.698 1.08-2.698l.54-.655s2.12 1.23 3.74-.24" fill="none" stroke="#231f20" stroke-width=".3" stroke-linejoin="round" stroke-miterlimit="1.414"/>
  <path d="M33.33 11.455c.656 1.162.664 1.63.968 3.548.304 1.92-.858 4.313-1.74 4.274-.88-.04-.685-.047-1.574.11-.89.155-1.272-.39-1.39-.617-.115-.226-1.73-2.527-1.613-3.728.12-1.2 1.08-2.698 1.08-2.698l.54-.655s2.12 1.23 3.74-.24zm-3.696.195s.156 2.807.85 3.58m-.874-3.56s-3.192.438-2.44-3.623c.5-2.44 0-4.577-3.417-6.37-3.418-1.794-10.3-.836-10.95-.71-2.83.35-7.74 5.16-1.445 7.917" fill="none" stroke="#231f20" stroke-width=".3"/>
  <path d="M10.35 10.212c-1.07.008-4.676.197-5.626 2.334 1.43.57 2.66 2.16 3.847 2.708.6.662.19.372.81.593.45-.113-.01.437.33.662.34.22.11-.03.5.28.18.56.79.33 1.26.61.44.27.45.54 1.07.79.68.23.9-.1 1.47-.08.51.01 1.05.34 1.51.62.12.07.65-.03.75.03.27.08.44-.06.75.08.17.07.35-.08.47-.12.14-.03.07.03.23.15.5.07.64.02.89-.05.24-.03.06.23.4.35.34.11.49-.21.88-.38s.05.23.66.23.42-.15.92-.43c.12-.07.27.27.72.22.13-.02.3-.1.69-.22.14-.05.7.09 1.16-.03.47-.12 2.17-1.75 2.79-1.79.59-.3.95-.6 1.26-1.01M19.6 1.57c-3.02-.192-5.52-.08-5.94 0-3.3.498-6.65 3.96-1.036 6.26" fill="none" stroke="#231f20" stroke-width=".3"/>
  <path d="M11.235 9.02c-.448.465-1.416 1.63-1.335 3.042.25.34.43-.067.43-.067s-.71 2.65.457 3.72c.345.315.594.156.73.383.3.503.367.64.367.64s.594-.092 1.6-.092c.045.368-.592.615-.255.894.33.28 1.34.068 1.34.068s.92.113 1.25.225c.54.09 1.09-.435 1.09-.435s.11.48.46.48c1.03-.36 1.99.068 2.18.068.27-.113 1.17-.48 1.62-.48.45 0 .75.074 1.57-.362.49-.407.95-1.345 1.06-1.254.34-.113.3.638.27.615.55-.135.75-1.802.75-1.802s.57-1.532 1.01-.136c.38.023.75-2.247.36-2.696-.04-.11-.11-.24-.2-.36" fill="none" stroke="#231f20" stroke-width=".3"/>
  <path d="M26.04 11.462c-.304-.494-1.036-1.15-1.72-1.977-.144-.44-.18-.78-.226-1.164-.19-.29-.29-.35-.526-.73-.557-.9-.18-1.09-.39-2.69-.684-1.55-.835-1.89-2.233-2.94-.248-.09-1.365-.52-2.35-.38-2.066.29-3.45 1.33-4.178 3.04-.63 3.08-3.067 4.29-3.067 4.29s-.004.02-.18.2c0 0-.804 3.89 3.212 5.03 1.2.07 1.496.13 1.88 0 .387-.13.738-.65 2.267.49 2.59.72 3.11.03 4.24-.22 1.49-.33 3.31-2.86 3.26-2.91z" fill="none" stroke="#231f20" stroke-width=".3"/>
  <g stroke="#231f20" stroke-width=".1" stroke-linejoin="round" stroke-miterlimit="1.414">
    <path d="M49.664 37.846l-.174-.206c-.35.342-.658.516-1.007.516-.497 0-.813-.355-.813-.955 0-1 .562-1.67 1.168-1.67.323 0 .53.2.53.48 0 .13-.027.25-.065.41l.303.07.226-1.17-.304-.04-.07.34c-.123-.22-.362-.33-.678-.33-.38 0-.716.13-1 .38-.452.4-.697.95-.697 1.55 0 .78.503 1.28 1.303 1.28.465 0 .91-.2 1.278-.62" fill-rule="nonzero"/>
    <path d="M51.498 38.465c.936 0 1.684-.8 1.684-1.832 0-.807-.53-1.368-1.27-1.368-.485 0-.91.2-1.233.574-.3.34-.46.78-.46 1.23 0 .83.53 1.39 1.27 1.39m-.02-.25c-.44 0-.67-.31-.67-.92 0-.54.16-1.04.42-1.4.18-.26.43-.4.69-.4.44 0 .67.31.67.92 0 .67-.26 1.27-.61 1.58-.15.13-.33.2-.52.2m1.99.17c.2-.02.42-.02.64-.02.22 0 .44 0 .67.02l.05-.25h-.4l.3-1.54c.12-.64.6-1 1.07-1 .29 0 .46.15.46.4 0 .12-.03.29-.09.52l-.3 1.19c-.04.14-.06.25-.06.35 0 .25.16.4.46.4.25 0 .52-.12.73-.34l-.13-.19c-.16.15-.28.23-.38.23-.11 0-.16-.05-.16-.14 0-.07.02-.18.05-.32l.34-1.36c.03-.14.05-.26.05-.36 0-.45-.31-.74-.79-.74-.43 0-.76.17-1.13.55l.11-.55c-.31.05-.62.07-.93.07l-.06.25h.39l-.5 2.55h-.39l-.05.25zm5.65 0c.2-.02.42-.02.64-.02.21 0 .44 0 .67.02l.05-.25h-.4l.3-1.54c.05-.3.13-.49.38-.71.21-.18.43-.27.59-.27.26 0 .41.13.41.33 0 .09-.01.28-.07.56l-.32 1.62h-.4l-.05.25c.21-.01.42-.02.64-.02.22 0 .44.01.67.02l.05-.25h-.39l.29-1.54c.12-.63.58-.98 1.03-.98.26 0 .4.14.4.39 0 .12-.03.3-.09.52l-.3 1.19c-.04.14-.06.25-.06.35 0 .25.16.4.46.4.25 0 .52-.12.73-.34l-.13-.19c-.15.15-.27.23-.38.23-.1 0-.15-.05-.15-.15 0-.06.01-.17.05-.32l.34-1.35c.03-.14.04-.26.04-.36 0-.44-.31-.73-.75-.73-.38 0-.74.19-1.14.58-.05-.37-.3-.58-.69-.58-.38 0-.69.19-1.06.55l.11-.55c-.32.05-.63.08-.93.08l-.05.25h.4l-.49 2.54h-.39l-.05.25zm8.09-1.15c-.09.48-.55.92-.96.92-.43 0-.72-.33-.72-.89 0-.47.18-.98.45-1.34.2-.26.44-.4.71-.4.39 0 .68.31.68.73 0 .05-.01.11-.02.18l-.15.78zm.37-1.9l-.11.48c-.14-.36-.44-.56-.87-.56-.4 0-.8.17-1.07.47-.38.42-.59.97-.59 1.5 0 .77.41 1.22 1.06 1.22.43 0 .77-.18 1.09-.56-.01.06-.01.12-.01.17 0 .27.1.38.35.38.18 0 .38-.07.61-.2l.01-.27c-.13.1-.24.15-.31.15-.1 0-.16-.06-.16-.17 0-.05.01-.18.05-.4l.45-2.32-.53.08zm3.95-1.03l-.29 1.52c-.14-.36-.44-.56-.87-.56-.4 0-.8.17-1.07.48-.37.42-.59.97-.59 1.5 0 .77.41 1.22 1.05 1.22.43 0 .77-.18 1.09-.56-.01.06-.02.12-.02.17 0 .27.1.39.35.39.18 0 .38-.07.61-.2l.01-.27c-.14.09-.24.15-.31.15-.1 0-.16-.06-.16-.17 0-.04.01-.18.05-.4l.69-3.6c-.31.05-.62.08-.93.08h-.09l-.06.25h.5zm-.56 2.93c-.09.48-.55.92-.96.92-.44 0-.72-.33-.72-.89 0-.47.17-.98.44-1.34.2-.26.44-.4.71-.4.39 0 .68.32.68.73 0 .06-.01.12-.02.18l-.15.79zm4.2.53l-.2-.18c-.31.37-.64.55-1.02.55-.58 0-.89-.34-.91-1l2.39-.56c-.02-.85-.49-1.33-1.31-1.33-.43 0-.86.18-1.18.53-.3.33-.48.79-.48 1.28 0 .81.53 1.38 1.33 1.38.55 0 1.02-.23 1.36-.69m-2.1-.9c.1-.88.51-1.36 1.08-1.36.43 0 .73.34.73.93l-1.81.42zm3.94-1l.15-.61c-.29.04-.56.08-.83.08h-.08l-.06.25h.39l-.49 2.54h-.39l-.05.25c.22-.01.44-.02.67-.02.23 0 .46 0 .7.02l.06-.25h-.45l.31-1.54c.1-.55.33-.83.73-.83.11 0 .23.03.35.09l.16-.56c-.09-.04-.19-.04-.26-.04-.3 0-.55.21-.9.6m3.43 1.37c-.09.49-.55.93-.96.93-.44 0-.72-.33-.72-.89 0-.47.17-.98.44-1.34.2-.26.44-.4.71-.4.39 0 .68.31.68.73 0 .05-.01.11-.02.18l-.15.78zm.37-1.89l-.11.48c-.14-.36-.44-.56-.87-.56-.4 0-.8.17-1.07.47-.38.42-.59.96-.59 1.5 0 .77.41 1.22 1.06 1.22.43 0 .78-.18 1.09-.56-.01.06-.02.12-.02.17 0 .27.1.39.35.39.18 0 .38-.07.61-.2l.01-.27c-.136.09-.24.14-.31.14-.1 0-.16-.06-.16-.17 0-.045.01-.18.05-.39l.45-2.32-.52.08zm5.7-1.03l-.3 1.52c-.14-.36-.44-.56-.87-.56-.4 0-.79.17-1.06.48-.37.42-.59.96-.59 1.5 0 .76.413 1.22 1.06 1.22.43 0 .773-.18 1.09-.57-.007.06-.01.12-.01.17 0 .27.11.39.36.39.18 0 .38-.07.613-.2l.01-.27c-.138.09-.24.14-.31.14-.106 0-.16-.06-.16-.17 0-.04.01-.18.05-.4l.69-3.6c-.31.05-.62.08-.93.08h-.09l-.05.25h.5zm-.57 2.93c-.09.48-.55.92-.95.92-.43 0-.72-.33-.72-.89 0-.47.18-.98.45-1.34.2-.26.45-.4.71-.4.393 0 .683.31.683.73 0 .06 0 .11-.02.18l-.146.78zm4.21.53l-.19-.18c-.3.37-.63.55-1.02.55-.57 0-.89-.34-.91-1l2.39-.56c-.01-.85-.48-1.33-1.31-1.33-.43 0-.86.19-1.18.54-.3.33-.48.79-.48 1.29 0 .81.53 1.38 1.33 1.38.55 0 1.02-.23 1.36-.69m-2.1-.9c.1-.88.51-1.357 1.08-1.357.432 0 .73.34.73.93l-1.808.42z"/>
    <path d="M92.34 38.388c.205-.013.418-.02.638-.02.22 0 .445.007.67.02l.052-.252h-.4l.304-1.542c.122-.632.6-.993 1.077-.993.3 0 .46.15.46.4 0 .12-.02.29-.08.53l-.29 1.2c-.03.14-.06.25-.06.35 0 .26.17.4.46.4.26 0 .52-.11.74-.33l-.13-.18c-.15.15-.27.23-.38.23-.1 0-.15-.04-.15-.14 0-.06.02-.17.05-.32l.35-1.35c.03-.13.05-.25.05-.35 0-.44-.3-.73-.79-.73-.43 0-.76.18-1.12.55l.31-1.84c-.32.05-.64.08-.95.08l-.05.25h.45l-.72 3.82h-.4l-.05.25z" fill-rule="nonzero"/>
    <path d="M97.73 38.465c.935 0 1.683-.8 1.683-1.832 0-.807-.53-1.368-1.27-1.368-.485 0-.91.2-1.233.574-.29.34-.452.78-.452 1.23 0 .83.53 1.39 1.27 1.39m-.018-.25c-.433 0-.67-.31-.67-.92 0-.54.16-1.04.425-1.4.187-.26.432-.4.69-.4.44 0 .677.31.677.92 0 .67-.258 1.27-.606 1.58-.15.13-.323.2-.516.2m4.472-.98c-.09.48-.548.92-.955.92-.432 0-.716-.33-.716-.89 0-.48.18-.99.45-1.34.2-.26.45-.4.71-.4.4 0 .69.31.69.73 0 .06 0 .11-.02.18l-.14.79zm.374-1.9l-.11.48c-.135-.36-.438-.56-.864-.56-.4 0-.794.17-1.065.47-.374.42-.587.97-.587 1.5 0 .77.413 1.22 1.058 1.22.433 0 .762-.18 1.058-.54l-.07.35c-.168.84-.355 1.26-.86 1.26-.373 0-.637-.24-.792-.7l-.452.37c.252.39.652.59 1.155.59.865 0 1.278-.55 1.497-1.69l.484-2.52h.297l.05-.27c-.134.01-.276.02-.405.02-.136 0-.265-.01-.394-.02m3.39 1.9c-.09.48-.547.92-.954.92-.432 0-.716-.33-.716-.89 0-.47.174-.98.445-1.34.2-.26.45-.4.71-.4.4 0 .69.31.69.73 0 .06 0 .11-.02.18l-.15.79zm.375-1.9l-.1.48c-.13-.36-.44-.56-.86-.56-.4 0-.79.17-1.06.47-.37.42-.58.97-.58 1.5 0 .77.42 1.22 1.06 1.22.43 0 .78-.18 1.09-.56 0 .06-.01.12-.01.17 0 .27.1.38.36.38.18 0 .38-.07.61-.2l.02-.27c-.13.1-.24.15-.31.15-.1 0-.16-.06-.16-.17 0-.04.01-.18.05-.39l.45-2.32-.52.08zm2.27.53l.15-.61c-.28.05-.56.08-.82.08h-.08l-.05.25h.4l-.49 2.54h-.39l-.05.25c.22-.01.44-.02.67-.02.23 0 .46 0 .7.02l.05-.25h-.45l.3-1.54c.1-.55.33-.83.73-.83.11 0 .24.03.36.09l.16-.56c-.09-.04-.18-.04-.26-.04-.3 0-.55.21-.9.6"/>
    <path d="M42.318 38.426c.194 0 .348-.18.348-.44 0-.173-.122-.296-.283-.296-.194 0-.355.188-.355.452 0 .168.13.284.29.284m1.748 0c.194 0 .348-.18.348-.44 0-.173-.122-.296-.284-.296-.193 0-.354.188-.354.452 0 .168.13.284.29.284m1.747 0c.194 0 .348-.18.348-.44 0-.173-.12-.296-.28-.296-.19 0-.35.188-.35.452 0 .168.13.284.29.284" fill-rule="nonzero"/>
    <path d="M110.167 38.426c.194 0 .355-.18.355-.44 0-.173-.123-.296-.284-.296-.194 0-.355.188-.355.452 0 .168.123.284.284.284m.077-1.174h.207c.4-1.187.68-2.252.8-3.213h-.63c-.05 1.05-.17 2.12-.37 3.21"/>
  </g>
  <path d="M43.838 9.575h15.18v3.762H48.282v4.924h9.398v3.72h-9.397v8.98h-4.445V9.58z" fill-rule="nonzero"/>
  <path d="M69.2 26.743c.648-.862.972-2.087.972-3.675 0-1.588-.324-2.808-.973-3.66-.65-.862-1.58-1.292-2.79-1.293-1.21 0-2.15.43-2.81 1.293-.65.852-.98 2.072-.98 3.66s.32 2.813.97 3.675c.66.862 1.59 1.293 2.8 1.293s2.14-.43 2.79-1.293m3.31 2.295c-1.34 1.646-3.37 2.47-6.09 2.47s-4.75-.824-6.09-2.47c-1.34-1.656-2.01-3.646-2.01-5.97 0-2.285.67-4.265 2-5.94 1.34-1.675 3.36-2.513 6.09-2.513 2.72 0 4.75.838 6.08 2.513 1.33 1.675 2 3.655 2 5.94 0 2.324-.67 4.314-2 5.97" fill="#231f20"/>
  <path d="M84.338 14.76c.058 0 .18.005.363.014v4.242c-.26-.03-.49-.048-.69-.058-.2-.01-.37-.014-.49-.015-1.66 0-2.78.543-3.35 1.627-.32.61-.48 1.55-.48 2.818v7.567h-4.17V15.123h3.95v2.76c.64-1.055 1.2-1.777 1.67-2.164.78-.65 1.79-.98 3.03-.98.08 0 .14 0 .19.01" fill="#231f20" fill-rule="nonzero"/>
  <path d="M90.97 19.016c-.523.6-.852 1.414-.988 2.44h6.435c-.068-1.094-.402-1.922-1.002-2.484-.59-.57-1.327-.856-2.208-.857-.96 0-1.705.3-2.237.9m5.796-3.572c1.055.494 1.927 1.274 2.614 2.338.62.94 1.022 2.03 1.206 3.27.106.73.15 1.78.13 3.14H89.882c.06 1.59.557 2.7 1.497 3.34.57.4 1.25.6 2.06.6.85 0 1.54-.24 2.07-.72.29-.26.54-.62.77-1.09h4.22c-.11.94-.6 1.9-1.47 2.86-1.36 1.54-3.26 2.31-5.7 2.31-2.02 0-3.79-.65-5.33-1.94s-2.31-3.41-2.31-6.33c0-2.74.69-4.84 2.07-6.3 1.39-1.46 3.2-2.19 5.41-2.19 1.31 0 2.5.25 3.56.74m1.69-6.79L94.02 13h-2.99l2.79-4.345h4.62z" fill="#231f20"/>
  <path d="M105.243 25.9c.087.737.276 1.26.566 1.57.51.552 1.46.828 2.84.828.81 0 1.45-.12 1.93-.363.48-.242.72-.606.73-1.09 0-.465-.2-.818-.58-1.06-.39-.242-1.83-.658-4.32-1.25-1.8-.445-3.06-1-3.8-1.67-.74-.658-1.11-1.607-1.11-2.847 0-1.462.57-2.715 1.71-3.762 1.15-1.055 2.77-1.582 4.85-1.583 1.98 0 3.58.397 4.82 1.19 1.25.786 1.96 2.146 2.15 4.083h-4.14c-.06-.533-.21-.954-.45-1.264-.46-.56-1.23-.842-2.33-.842-.9 0-1.55.14-1.94.42-.38.282-.57.61-.57.99 0 .473.2.817.61 1.03.4.223 1.84.605 4.31 1.147 1.64.388 2.88.973 3.7 1.758.81.794 1.22 1.786 1.22 2.977 0 1.57-.59 2.852-1.76 3.85-1.16.987-2.96 1.48-5.4 1.48-2.49 0-4.33-.522-5.52-1.568-1.18-1.055-1.77-2.396-1.77-4.023h4.2z" fill-rule="nonzero"/>
</svg>
