<svg xmlns="http://www.w3.org/2000/svg" width="80" height="20" viewBox="0 0 80 20">
    <path d="M50.3.56v5.607h-.044c-.412-.89-1.15-1.26-1.91-1.26-1.626 0-3.166 1.74-3.166 5.477 0 3.456 1.28 5.39 3.06 5.39 1.105 0 1.842-.74 2.19-1.5h.065l.108 1.326h1.432c-.022-.608-.087-1.804-.087-2.52V.56H50.3zm0 11.324c0 .26-.022.5-.066.695-.368 1.52-1.084 1.8-1.605 1.8-1.22 0-1.78-1.78-1.78-4 0-2.11.47-4.04 1.86-4.04.8 0 1.45.95 1.56 2.04.02.24.02.48.02.69v2.8zm8.524-1.392c.022-.26.022-.543.022-.934 0-2.39-.846-4.65-2.994-4.65-2.104 0-3.535 2.13-3.535 5.54 0 3.218 1.3 5.282 3.817 5.282.825 0 1.714-.173 2.3-.5l-.26-1.238c-.413.24-1.02.412-1.736.412-1.215 0-2.473-.695-2.495-3.912h4.88zm-4.86-1.238c.066-1.435.63-3.043 1.715-3.043.8 0 1.6.94 1.56 3.05h-3.28zm4.47 5.868c.455.37 1.3.608 2.082.608 1.713 0 3.145-1.02 3.145-3.13 0-1.455-.95-2.412-2.16-3.194-1.04-.716-1.3-1.11-1.3-1.826 0-.674.46-1.326 1.37-1.326.55 0 1 .196 1.39.457l.46-1.26c-.43-.26-1.06-.54-1.882-.54-1.625 0-2.883 1.22-2.883 2.91 0 1.22.735 2.11 2.1 3 1.065.72 1.346 1.26 1.346 2.07 0 .94-.583 1.52-1.54 1.52-.67 0-1.32-.3-1.69-.54l-.41 1.27zm7.114-10.04h-1.67V15.6h1.67V5.08zm-.868-3.805c-.542 0-.976.435-.976 1.087 0 .652.412 1.087.954 1.087.63 0 1.042-.43 1.02-1.08 0-.65-.39-1.08-.998-1.08zm8.004 7.085c0-1.608.065-2.542.087-3.28h-1.49l-.08 1.194h-.04c-.3-.63-.82-1.37-1.95-1.37-1.54 0-3.3 1.61-3.3 5.478 0 3.086 1.22 5.195 3.08 5.195.89 0 1.65-.46 2.02-1.29h.05v1.06c0 2.39-.825 3.21-2.15 3.21-.845 0-1.54-.24-1.95-.46l-.39 1.306c.54.305 1.41.522 2.3.522 1.17 0 2.167-.416 2.796-1.13.694-.76 1.04-1.807 1.04-4.567V8.36zm-1.648 3.39c0 .305-.022.63-.11.958-.346 1.26-.997 1.5-1.496 1.5-1.02 0-1.865-1.218-1.865-3.913 0-2.326.65-3.956 1.865-3.956.955 0 1.324.9 1.52 1.61.064.22.086.5.086.76v3.05zm2.45 3.848h1.67V8.97c0-.347.023-.673.066-.934.216-1.13.89-1.716 1.583-1.716 1.215 0 1.453 1.26 1.453 2.5v6.78h1.67V8.536c0-2.543-1.084-3.63-2.537-3.63-1.1 0-1.95.588-2.4 1.435h-.04l-.08-1.26H73.4c.02.85.087 1.48.087 2.72v7.8z"/>
    <path d="M.497 15.6h3.926V9.297c0-.174.022-.457.087-.63.195-.413.542-.848 1.28-.848.975 0 1.388.76 1.388 2.02v5.76h3.926V9.4c0-3.022-1.345-4.738-3.753-4.738-.56 0-1.14.13-1.62.37-.47.238-.91.564-1.26 1h-.04V.144H.5V15.6zm20.976-6.216c0-2.674-1.28-4.716-4.946-4.716-2.213 0-3.753.608-4.425.977l.672 2.457c.716-.392 1.887-.783 3.015-.783 1.43 0 1.75.47 1.75.91v.08c-3.63 0-6.21 1.28-6.21 4.15 0 1.78 1.34 3.37 3.53 3.37 1.15 0 2.21-.33 2.95-1.18h.084l.195.93h3.533c-.11-.545-.175-1.545-.175-2.61v-3.6zm-3.796 2.195c0 .19 0 .39-.044.56-.195.58-.78.98-1.345.98-.672 0-1.106-.35-1.106-1.02 0-.96.89-1.39 2.495-1.39v.87zm4.663.65c0 1.3-.043 2.67-.087 3.37h3.32l.15-1.37h.044c.716 1.19 1.91 1.61 3.037 1.61 2.473 0 4.902-1.94 4.902-5.81.022-3.28-1.843-5.37-4.36-5.37-1.366 0-2.43.52-3.036 1.32h-.044V.14H22.34v12.09zm3.926-2.72c0-.18.022-.35.044-.52.13-.76.78-1.33 1.54-1.33 1.3 0 1.887 1.08 1.887 2.54 0 1.69-.738 2.56-1.887 2.56-.782 0-1.39-.59-1.54-1.28-.022-.15-.044-.35-.044-.55V9.51zM37.98 4.9h-3.927v10.7h3.926V4.907zm-1.953-1.11c1.215 0 1.995-.825 1.995-1.847-.02-1.086-.78-1.87-1.995-1.87S34.03.865 34.03 1.95c0 1.022.76 1.848 1.975 1.848h.022zm3.32-.89v2H38.02v2.87h1.324v3.74c0 1.63.346 2.673.997 3.325.57.56 1.52.974 2.67.974 1 0 1.87-.13 2.32-.31v-2.97c-.32.08-.47.08-.93.08-.95 0-1.23-.52-1.23-1.78V7.77h2.22V4.907h-2.22V1.864l-3.82 1.043z"/>
</svg>
