<svg width="168" height="56" viewBox="0 0 168 56" xmlns="http://www.w3.org/2000/svg">
  <title>
    Logo Forés
  </title>
    <path d="M10.3 25.1s7.8 3.5 14.1 2.6c10.1-.6 17.3-5.1 17.3-5.1l2.1 3.6s-7.2 6.5-22.3 6.8c-6.4.9-14.1-2.8-14.1-2.8s.4-2.8.6-3.2c.6-.9 2.3-1.9 2.3-1.9z" stroke="#FFF" stroke-width=".355"/>
    <path d="M7.5 28.5l-1.2 2.7s-.8.8-.1 1.7c.4.8 1.3 1.6 1.3 1.6m-2.1-5.7s-2 2.5-1.4 4.1m36.8-16.3s.3 4.2 1.9 5.3" stroke="#FFF" stroke-width=".355"/>
    <path d="M36 14.6c0 .4-.3.7-.7.7-.4 0-.7-.3-.7-.7 0-.4.3-.7.7-.7.4 0 .7.3.7.7m.1 0c0-.5-.4-.9-.9-.9s-.9.4-.9.9.4.9.9.9.9-.4.9-.9" stroke="#979797" fill="#F2DAA2"/>
    <path d="M35.7 14.6c0 .3-.2.5-.5.5s-.5-.2-.5-.5.2-.5.5-.5.5.2.5.5m.2 0c0-.4-.3-.7-.7-.7-.4 0-.7.3-.7.7 0 .4.3.7.7.7.4 0 .7-.3.7-.7" stroke="#979797" fill="#ECCBA0"/>
    <path d="M35.5 14.6c0 .2-.1.3-.3.3-.2 0-.3-.1-.3-.3 0-.2.1-.3.3-.3.2 0 .3.1.3.3m.2 0c0-.3-.2-.5-.5-.5s-.5.2-.5.5.2.5.5.5.5-.2.5-.5" stroke="#979797" fill="#E6BA9D"/>
    <path d="M35.3 14.6c0 .1 0 .1-.1.1s-.1 0-.1-.1 0-.1.1-.1.1 0 .1.1m.2 0c0-.2-.1-.3-.3-.3-.2 0-.3.1-.3.3 0 .2.1.3.3.3.2 0 .3-.2.3-.3" stroke="#979797" fill="#E0AA9A"/>
    <path d="M35.3 14.6c0-.1 0-.1-.1-.1s-.1 0-.1.1 0 .1.1.1.1-.1.1-.1" stroke="#979797" fill="#DB9A97"/>
    <path d="M25.7 7.5c0-1.2.8-2.1 1.8-2.1s1.5 1 1.5 2.1c0 1.2-.5 2.1-1.5 2.1s-1.8-.9-1.8-2.1" stroke="#979797" fill="#FFF"/>
    <path d="M25.7 7.5c0-1.2.8-2.1 1.8-2.1s1.5 1 1.5 2.1c0 1.2-.5 2.1-1.5 2.1s-1.8-.9-1.8-2.1z" stroke="#FFF" stroke-width=".355"/>
    <path d="M27.9 6.2c.2.2.3.5.3.7 0 .7-.4 1-1.4 1.3-.4.1-.8.3-1.1.1 0 0-.1-1 0-1.7l2.2-.4z" stroke="#979797" fill="#000"/>
    <path d="M27.9 6.2c.2.2.3.5.3.7 0 .7-.4 1-1.4 1.3-.4.1-.8.3-1.1.1 0 0-.1-1 0-1.7l2.2-.4z" stroke="#FFF" stroke-width=".355"/>
    <path d="M25.7 7.6c.1-1.1.8-2.3 1.8-2.3S29 6.4 29 7.4c0 .1-.7-.2-1.7-.2-1 .1-1.7.5-1.6.4" stroke="#979797" fill="#F2DAA2"/>
    <path d="M25.7 7.6c.1-1.1.8-2.3 1.8-2.3S29 6.4 29 7.4c0 .1-.7-.2-1.7-.2-1 .1-1.7.5-1.6.4z" stroke="#FFF" stroke-width=".355"/>
    <path d="M23.6 3.2c-.4 0-1.5.2-1.9 1-.4.7-.6 1.2-.3 1.5.3.4.9.6 1.4-.1.5-.7.6-1.4 1-1.5.4-.1 1.5-1-.2-.9" stroke="#979797" fill="#F2DAA2"/>
    <path d="M23.6 3.2c-.4 0-1.5.2-1.9 1-.4.7-.6 1.2-.3 1.5.3.4.9.6 1.4-.1.5-.7.6-1.4 1-1.5.4-.1 1.5-1-.2-.9z" stroke="#FFF" stroke-width=".355"/>
    <path d="M28.7 3.9s-1-.6-1.5-.6-1.1.7-.6 1.1c.5.4 1.3 1.1 1.4 1.2.1.1.7.7.9.6.2-.1 1-.9.7-1.2-.3-.4-.9-1.1-.9-1.1" stroke="#979797" fill="#F2DAA2"/>
    <path d="M28.7 3.9s-1-.6-1.5-.6-1.1.7-.6 1.1c.5.4 1.3 1.1 1.4 1.2.1.1.7.7.9.6.2-.1 1-.9.7-1.2-.3-.4-.9-1.1-.9-1.1z" stroke="#FFF" stroke-width=".355"/>
    <path d="M21.4 7.6c0-1.2.8-2.1 1.8-2.1s1.5 1 1.5 2.1c0 1.2-.5 2.1-1.5 2.1s-1.8-1-1.8-2.1" stroke="#979797" fill="#FFF"/>
    <path d="M21.4 7.6c0-1.2.8-2.1 1.8-2.1s1.5 1 1.5 2.1c0 1.2-.5 2.1-1.5 2.1s-1.8-1-1.8-2.1z" stroke="#FFF" stroke-width=".355"/>
    <path d="M23.6 6.2c.2.2.3.5.3.7 0 .7-.4 1-1.4 1.3-.4.1-.8.3-1.1.1 0 0-.1-1 0-1.7l2.2-.4z" stroke="#979797" fill="#000"/>
    <path d="M23.6 6.2c.2.2.3.5.3.7 0 .7-.4 1-1.4 1.3-.4.1-.8.3-1.1.1 0 0-.1-1 0-1.7l2.2-.4z" stroke="#FFF" stroke-width=".355"/>
    <path d="M21.4 7.7c.1-1.1.8-2.3 1.8-2.3s1.5 1.1 1.5 2.1c0 .1-.7-.2-1.7-.2-1 .1-1.6.4-1.6.4" stroke="#979797" fill="#F2DAA2"/>
    <path d="M21.4 7.7c.1-1.1.8-2.3 1.8-2.3s1.5 1.1 1.5 2.1c0 .1-.7-.2-1.7-.2-1 .1-1.6.4-1.6.4zm6.5 3.5s.5 2.2 2.3 1.9c1.8-.3 2.2-.9 2.5-1.6l-4.8-.3zm-8 1.6s1.1.4 1.2 1.2c.2.8 1.9 2 3.8 1.7 1.9-.2 3.6-.1 4.7-2.6l-9.7-.3zm-1.6-2.1s-.1 2.1 1.6 2c1.6-.1 1.8-1.9 1.8-1.9l-3.4-.1zm9.4-.2c0-1.6 1.1-2.9 2.6-2.9s2.2 1.3 2.2 2.8c0 1.6-.8 2.9-2.2 2.9-1.4 0-2.6-1.2-2.6-2.8z" stroke="#FFF" stroke-width=".355"/>
    <path d="M23.3 10.7s-.9 2.8 1.1 2.9c1.9.1 2.2-2.7 2.3-3.3l-3.4.4zm.7-1.6s1.1-.9 2.2-.2l-2.2.2zm2.2-.2c-1.1-.7-2.2.2-2.2.2l-.7 1.7s-.9 2.8 1.1 2.9c1.9.1 2.2-2.7 2.3-3.3-.1-.6.6-.9-.5-1.5z" stroke="#FFF" stroke-width=".355"/>
    <path d="M25.5 9.6c0-1 .8-1.8 1.8-1.8s1.8.8 1.8 1.8-.8 1.8-1.8 1.8-1.8-.8-1.8-1.8m-4.7 0c0-1 .8-1.8 1.8-1.8s1.8.8 1.8 1.8-.8 1.8-1.8 1.8-1.8-.7-1.8-1.8" stroke="#979797" fill="#FFF"/>
    <path d="M18.7 26.3s-2.5-.7-2.9 1c-.4 1.7-.4 4.9-.4 4.9s-.1 1.3 1.8 1.5c1.9.2 5.7.3 5.7.3s1.5.2 1.2-1.4c-.3-1.6-.3-1.9-.2-2.6.1-.7.2-2.2.2-2.2s.4-1.5-1.3-1.4c-1.7.1-4.1-.1-4.1-.1" stroke="#979797" fill="#FEEE00"/>
    <path d="M18.7 26.3s-2.5-.7-2.9 1c-.4 1.7-.4 4.9-.4 4.9s-.1 1.3 1.8 1.5c1.9.2 5.7.3 5.7.3s1.5.2 1.2-1.4c-.3-1.6-.3-1.9-.2-2.6.1-.7.2-2.2.2-2.2s.4-1.5-1.3-1.4c-1.7.1-4.1-.1-4.1-.1z" stroke="#FFF" stroke-width=".355"/>
    <path d="M18.9 27.3s-1.5-.5-1.7.8c-.2 1.3-.3 3.6-.3 3.6s-.1.9 1 1.1c1.1.1 3.3.2 3.3.2s.9.1.7-1c-.2-1.2-.2-1.4-.1-1.9s.1-1.6.1-1.6.2-1.1-.7-1c-.9-.1-2.3-.2-2.3-.2z" stroke="#FFF" stroke-width=".355"/>
    <path d="M43.2 8.2l-.8-2.4s-.4-1.8.5-2.1c.9-.3.9.9 1.3 1.5s1.2 2.7 1.3 2.9c.2.1-2.3.1-2.3.1" stroke="#000" stroke-width=".5" fill="#F2DAA2"/>
    <path d="M46.5 16.6s1.4-4.6.1-6.1c-.1-.3.7-1.7-1.2-2.8-2.6 0-3 .2-3.4.4-.8.2-1.3.8-1.3.8s-2.5-.6-1 3.6c.3.3-.2 1.6 1 3 .5.3.5 1.2.5 1.2l3.3 1.6 2-1.7z" fill="#F2DAA2"/>
    <path d="M43.9 10.9s-2.3 0-2.1 2.2c.3 1 1 1.2 1.4.8.4-.3.5-1.3.4-1.5 0 .3.8 1.1 1.6.2m-4.5-1.2s-.4 1.3 1 1.6m-1-4.1s-1.2 1.4 0 2.6c0-1.2 2.6-2.9 4.2-2.1m-3.8 6.5s1.1.1 1.3.4M39.5 12s.3.8.8.9m6.3-2.5c-.1-.3.7-1.7-1.2-2.8-2.7 0-3.1.2-3.4.5-.8.2-1.3.8-1.3.8s-2.5-.6-1 3.7c.3.3-.2 1.6 1 3 .5.3.5 1.2.5 1.2l3.4 1.6 1.9-1.8s1.4-4.6.1-6.2z" stroke="#000" stroke-width=".5"/>
    <path d="M3.6 34.5s3.8 2.5 4.8 3.2c1 .7 4.6 3.6 6.1 4.1 2.6.9 2.9 4.4 1.2 4.7-.6.4-1.5.8-2.5 1.2-2.5.1-2.7.9-4 1-1.6.4-3.3.9-6.9 2.1-1.9.8-4.2 4.1.4 4.7 2.3.3 2.5.4 3.3.3 1.3 0 2.9-.6 4-.9 1.1-.2 4.2-.5 5.1-.6.9-.1 3.7-2.2 5.5-2.8.8-.6 3.1-1.6 4.4-2.3.5-.3 1.5-1.4.1-3.1-1-.8-3-2-1.8-3.9.7-.2 2.3-1 4.4-.5 1 1 1.5 1.3 2.7 2.2 1.4 1.3 1.3 4 2 4.5.4.2 1.2.9 3 1.2 1.4.3 3.4 1.3 5.2 2.1 1.3.6 1.5 1 3.3 1.5 1.7.5 4.1 1.2 4.7 1.4.6.2 1 .2 2.6.4 1.6-.3 2.5-.4 3.4-1.3.7-1.2 1.1-1.1.5-2.7-2-1.2-1.7-2-6.5-3.7-1.4-.4-2.6-.9-4.1-1.4-1.8-.4-5-2.1-5-2.1s-2.4-.8-2.9-1.9c-.6-1.2.3-2.8 1.3-3.5 1.1-.6 1.8-2.8 3-3.6.7-.6 1.2-1.2 1.2-1.2l1.1-1.5 2.5-3.8-11.1 2.2-20.3.5-10.7 3.5z" fill="#000"/>
    <path d="M3.7 28.1s-3.1 4.7-.3 6.5c2.8 1.8 9.2 3.5 9.9 3.5.7 0 4.7 1.6 6.9-4.7.9 4.2 2.9 7.1 7.4 6.3 2.6 1 9.9-3.8 13.2-6.3 2.1-1.8 5-5.2 5.5-6.4.5-1.2-1.5-6-1.5-6l-9.6.4-27.9-2.7-3.6 9.4z" stroke="#000" stroke-width=".5" fill="#C9D240"/>
    <path d="M10.6 25.4s7.6 3.2 13.8 2.4c9.9-.6 16.9-4.7 16.9-4.7l2.1 3.3s-7 6-21.8 6.3c-6.2.8-13.8-2.6-13.8-2.6s.4-2.6.6-2.9c.6-.9 2.2-1.8 2.2-1.8" stroke="#000" stroke-width=".5" fill="#BD6237"/>
    <path d="M1 24.7c.2 2.1 1.3 3.4 2.6 4.3 1.3.9 4.6-3.4 4.6-3.4s-2-2.9-1.2-4c.9-1 3.7-2.7 3.7-2.7l-4.6-1.4-.3.4S1 20.2 1 24.7z" fill="#C9D240"/>
    <path d="M5.9 17.8S1 20.1 1 24.7c.2 2.1 1.3 3.4 2.6 4.3 1.3.9 4.7-3.4 4.7-3.4s-2.1-3-1.2-4c.9-1 3.8-2.7 3.8-2.7l-4.7-1.4-.3.3z" stroke="#000" stroke-width=".5"/>
    <g stroke="#000" stroke-width=".5">
      <path d="M7.9 23.7c-2.8 1-4.4 4.7-4.4 4.7s-.7 2.5-.2 3.3c.1.6.6.8 1 1 .7.3.9 2.1 2 1.8 1.1-.3.468-.615.468-.615S7.6 34.4 8.2 34.1c.6-.3.2-1 0-1.4-.2-.4-.4-1.1-.1-1.9.2-.7.3-3.3 1.2-4 1-.9 2.6-1 2.8-.8.2.2-1.4-3.3-4.2-2.3z" fill="#F2DAA2"/>
      <path d="M7.2 28.6l-1 2.6s-.7.8 0 1.6c.3.7 1 1.5 1 1.5m-1.8-5.4s-1.7 2.4-1.1 3.9"/>
    </g>
    <path d="M46.4 16.3c.9 1.6.9 2.3 1.4 5 .4 2.7-1.2 6.1-2.5 6.1-1.2-.1-1-.1-2.2.2-1.3.2-1.8-.6-2-.9-.2-.3-2.5-3.6-2.3-5.3.2-1.7 1.5-3.8 1.5-3.8l.8-.9s3 1.7 5.3-.4" stroke="#000" stroke-width=".5" fill="#C9D240"/>
    <path d="M5.9 17.9c2 .8 3.8 3.1 5.5 3.8.8.9.3.5 1.1.8.6-.2 0 .6.5.9.5.3.1 0 .7.4.2.8 1.1.5 1.8.9.6.4.6.8 1.5 1.1 1 .3 1.3-.1 2.1-.1.9 0 1.9.7 2.6 1.2.6.2 1.8-.1 2.3-.3.2 0 .1 0 .3.2.7.1.9 0 1.3-.1.3 0 .1.3.6.5s.7-.3 1.3-.5c.6-.2.1.3.9.3.9 0 .6-.2 1.3-.6.2-.1.4.4 1 .3.2 0 .4-.1 1-.3.2-.1 1 .1 1.6 0 .7-.2 3.1-2.5 4-2.5 1.1-.5 1.6-1.1 2.2-2 .6-.9 1.9-1.5 2.3-2.2l-.3-2.1-.1-1s-4.5.6-3.5-5.1c.7-3.5 0-6.5-4.8-9s-14.6-1.2-15.5-1c-4 .5-11 7.4-2 11.3-.2.1-1.3 1.8-1.3 1.8s-6.8-.3-8.4 3.3z" stroke="#000" stroke-width=".5" fill="#007948"/>
    <path d="M26.9 2.3c-4.3-.3-7.8-.1-8.4 0-4.7.7-9.4 5.6-1.5 8.9l4.6 3.3 5.7-7.7-.4-4.5z" fill="#254720"/>
    <path d="M15.1 12.9c-.6.7-2 2.3-1.9 4.3.4.5.6-.1.6-.1s-1 3.8.6 5.3c.5.4.8.2 1 .5.4.7.5.9.5.9s.8-.1 2.3-.1c.1.5-.8.9-.4 1.3.5.4 1.9.1 1.9.1s1.3.2 1.8.3c.8.1 1.6-.6 1.6-.6s.2.7.6.7c1.5-.5 2.8.1 3.1.1.4-.2 1.7-.7 2.3-.7.6 0 1.1.1 2.2-.5.7-.6 1.4-1.9 1.5-1.8.5-.2.4.9.4.9.8-.2 1.1-2.6 1.1-2.6s.8-2.2 1.4-.2c.5 0 1.1-3.2.5-3.8-.1-.2-.2-.3-.3-.5l-11.3 1.5-9.5-5z" stroke="#000" stroke-width=".5" fill="#FFF"/>
    <path d="M33.7 13.5c-.2-.6-.3-1.1-.3-1.7-.3-.4-.4-.5-.7-1-.8-1.3-.3-1.5-.6-3.8-.993-2.184-1.197-2.693-3.157-4.168C28.5 2.7 27 2.1 25.6 2.3c-2.9.4-4.9 1.9-5.9 4.3-.9 4.4-4.3 6.1-4.3 6.1l-.3.3s-1.1 5.5 4.6 7.1c1.7.1 2.1.2 2.7 0 .5-.2 1-.9 3.2.7 3.7 1 4.4 0 6-.3 2-.5 4.5-4.1 4.5-4.2-.4-.7-1.5-1.6-2.4-2.8z" stroke="#000" stroke-width=".5" fill="#F2DAA2"/>
    <path d="M26.1 7.5c0-1 .6-1.8 1.4-1.8.8 0 1.2.8 1.2 1.8s-.4 1.8-1.2 1.8c-.8 0-1.4-.9-1.4-1.8" fill="#FFF"/>
    <path d="M26 7.5c0-1 .7-1.8 1.5-1.8s1.2.8 1.2 1.8-.4 1.8-1.2 1.8c-.8 0-1.5-.8-1.5-1.8z" stroke="#000" stroke-width=".5"/>
    <path d="M27.6 6.5c.1.1.2.3.2.5 0 .5-.3.7-.9.9-.3.1-.6.2-.7.1 0 0-.1-.7 0-1.1l1.4-.4z" fill="#000"/>
    <path d="M26.1 7.2c.1-.7.6-1.6 1.4-1.6.8 0 1.2.8 1.2 1.4 0 .1-.6-.1-1.3-.1-.7 0-1.4.4-1.3.3" stroke="#000" stroke-width=".5" fill="#F2DAA2"/>
    <path d="M23.5 3.5c-.3 0-1.2.2-1.6.8-.3.6-.5.9-.2 1.2.3.3.7.5 1.2-.1s.5-1.1.8-1.2c.2-.1 1.1-.8-.2-.7zm5.1.5s-.8-.5-1.2-.5c-.5 0-.9.5-.5.8.4.3 1 .8 1.1.9.1.1.6.6.8.5.2-.1.8-.7.6-1-.3-.1-.8-.7-.8-.7z" stroke="#000" stroke-width=".5"/>
    <path d="M21.8 7.5c0-1 .6-1.8 1.4-1.8.8 0 1.2.8 1.2 1.8s-.4 1.8-1.2 1.8c-.8 0-1.4-.8-1.4-1.8" stroke="#000" stroke-width=".5" fill="#FFF"/>
    <path d="M21.7 7.5c0-1 .7-1.8 1.5-1.8s1.2.8 1.2 1.8-.4 1.8-1.2 1.8c-.8.1-1.5-.8-1.5-1.8z" stroke="#000" stroke-width=".066"/>
    <path d="M23.3 6.6c.1.1.2.3.2.5 0 .5-.3.7-.9.9-.3.1-.6.2-.7.1 0 0-.1-.7 0-1.1l1.4-.4z" fill="#000"/>
    <path d="M21.8 7.3c.1-.7.6-1.6 1.4-1.6.8 0 1.2.8 1.2 1.4 0 .1-.6-.1-1.3-.1-.7 0-1.4.3-1.3.3" stroke="#000" stroke-width=".5" fill="#F2DAA2"/>
    <path d="M27.8 11.2s.5 2.1 2.2 1.8c1.7-.3 2.1-.9 2.4-1.5m-12.3 1.2s1 .4 1.2 1.1c.2.7 1.9 1.8 3.7 1.6 1.8-.2 3.5-.1 4.5-2.4m-10.9-2.2s-.1 1.9 1.5 1.9c1.6-.1 1.7-1.8 1.7-1.8" stroke="#000" stroke-width=".5"/>
    <path d="M23.5 10.8s-.7 2.5.9 2.6c1.6.1 1.9-2.3 1.9-2.9m-2.2-1.2s.9-.8 1.9-.2m0 0c-1-.6-1.9.2-1.9.2l-.6 1.5s-.7 2.5.9 2.6c1.6.1 1.9-2.3 1.9-2.9.1-.6.6-.8-.3-1.4z" stroke="#000" stroke-width=".5"/>
    <path d="M25.9 9.6c0-.8.7-1.5 1.5-1.5s1.5.7 1.5 1.5-.7 1.5-1.5 1.5c-.8-.1-1.5-.7-1.5-1.5m-4.7 0c0-.8.7-1.5 1.5-1.5s1.5.7 1.5 1.5-.7 1.5-1.5 1.5c-.9 0-1.5-.7-1.5-1.5" stroke="#000" stroke-width=".5" fill="#FFF"/>
    <path d="M18.8 26.6s-2.3-.6-2.7.9c-.4 1.6-.4 4.4-.4 4.4s-.1 1.1 1.6 1.3c1.7.2 5.2.2 5.2.2s1.4.1 1.1-1.3c-.3-1.4-.3-1.7-.2-2.3.1-.6.2-2 .2-2s.4-1.3-1.2-1.2c-1.4.2-3.6 0-3.6 0" stroke="#000" stroke-width=".5" fill="#F1CF00"/>
    <path d="M19 27.6s-1.3-.4-1.5.7c-.2 1.1-.2 3.1-.2 3.1s0 .8.9.9c.9.1 2.9.2 2.9.2s.8.1.6-.9c-.2-1-.1-1.2-.1-1.7 0-.4.1-1.4.1-1.4s.2-.9-.6-.9H19" stroke="#000" stroke-width=".5" fill="#BD6237"/>
    <path d="M44.1 37.4h.8c.4 0 .8.1.8.6 0 .6-.5.6-1 .6h-.6v-1.2zm-.6 3.3h.6V39h.6l1 1.6h.6l-1.1-1.7c.6-.1 1-.3 1-1s-.4-1.1-1.3-1.1h-1.4v3.9zm-1.4-1.9c0-1.5 1.1-2.7 2.7-2.7 1.5 0 2.6 1.2 2.6 2.7 0 1.6-1.1 2.8-2.6 2.8-1.5-.1-2.7-1.3-2.7-2.8zm-.6 0c0 1.8 1.5 3.2 3.2 3.2 1.8 0 3.2-1.4 3.2-3.2 0-1.8-1.5-3.2-3.2-3.2-1.7 0-3.2 1.4-3.2 3.2zm18.2 15.1c.3 0 .5-.3.5-.6 0-.2-.2-.4-.4-.4-.3 0-.5.3-.5.6s.2.4.4.4m2.5 0c.3 0 .5-.3.5-.6 0-.2-.2-.4-.4-.4-.3 0-.5.3-.5.6s.2.4.4.4m2.5 0c.3 0 .5-.3.5-.6 0-.2-.2-.4-.4-.4-.3 0-.5.3-.5.6s.2.4.4.4m5.5-.8l-.2-.3c-.5.5-.9.7-1.4.7-.7 0-1.2-.5-1.2-1.4 0-1.4.8-2.4 1.7-2.4.5 0 .8.3.8.7 0 .2 0 .4-.1.6l.4.1.3-1.7-.4-.1-.1.5c-.2-.3-.5-.5-1-.5s-1 .2-1.4.5c-.6.6-1 1.3-1 2.2 0 1.1.7 1.8 1.8 1.8.6.2 1.2-.1 1.8-.7m2.5.5c-.6 0-1-.4-1-1.3 0-.8.2-1.5.6-2 .3-.4.6-.6 1-.6.6 0 1 .4 1 1.3 0 1-.4 1.8-.9 2.3-.2.2-.4.3-.7.3m.1.4c1.3 0 2.4-1.1 2.4-2.6 0-1.1-.8-1.9-1.8-1.9-.7 0-1.3.3-1.7.8-.4.5-.6 1.1-.6 1.7-.1 1.2.6 2 1.7 2m2.8-.1h1.9l.1-.4H77l.4-2.2c.2-.9.9-1.4 1.5-1.4.4 0 .6.2.6.6 0 .2 0 .4-.1.7l-.4 1.7c0 .2-.1.4-.1.5 0 .4.2.6.6.6.4 0 .7-.2 1-.5l-.2-.3c-.2.2-.4.3-.5.3-.1 0-.2-.1-.2-.2s0-.2.1-.5l.5-1.9c0-.2.1-.4.1-.5 0-.6-.4-1-1.1-1-.6 0-1.1.2-1.6.8l.2-.8c-.4.1-.9.1-1.3.1l-.1.4h.6l-.7 3.6h-.6l-.1.4zm8 0h1.9l.1-.4H85l.4-2.2c.1-.4.2-.7.5-1 .3-.3.6-.4.8-.4.4 0 .6.2.6.5 0 .1 0 .4-.1.8l-.5 2.3h-.6l-.1.4h1.9l.1-.4h-.6l.4-2.2c.2-.9.8-1.4 1.5-1.4.4 0 .6.2.6.6 0 .2 0 .4-.1.7l-.4 1.7c0 .2-.1.4-.1.5 0 .4.2.6.7.6.4 0 .7-.2 1-.5l-.2-.3c-.2.2-.4.3-.5.3-.1 0-.2-.1-.2-.2s0-.2.1-.5l.5-1.9c0-.2.1-.4.1-.5 0-.6-.4-1-1.1-1-.5 0-1 .3-1.6.8-.1-.5-.4-.8-1-.8-.5 0-1 .3-1.5.8l.2-.8c-.4.1-.9.1-1.3.1l-.1.4h.6l-.7 3.6h-.6l-.1.4zm12-4.3l-.2.7c-.2-.5-.6-.8-1.2-.8s-1.1.2-1.5.7c-.5.6-.8 1.4-.8 2.1 0 1.1.6 1.7 1.5 1.7.6 0 1.1-.3 1.5-.8v.2c0 .4.1.5.5.5.3 0 .5-.1.9-.3v-.4c-.2.1-.3.2-.4.2-.1 0-.2-.1-.2-.2s0-.3.1-.6l.6-3.3-.8.3zm-.5 2.6c-.1.7-.8 1.3-1.4 1.3-.6 0-1-.5-1-1.3 0-.7.2-1.4.6-1.9.3-.4.6-.6 1-.6.6 0 1 .4 1 1v.3l-.2 1.2zm5.3 0c-.1.7-.8 1.3-1.4 1.3-.6 0-1-.5-1-1.3 0-.7.2-1.4.6-1.9.3-.4.6-.6 1-.6.6 0 1 .4 1 1v.3l-.2 1.2zm.8-4.1l-.4 2.2c-.2-.5-.6-.8-1.2-.8s-1.1.2-1.5.7c-.5.6-.8 1.4-.8 2.1 0 1.1.6 1.7 1.5 1.7.6 0 1.1-.3 1.5-.8v.2c0 .4.1.5.5.5.3 0 .5-.1.9-.3v-.4c-.2.1-.3.2-.4.2-.1 0-.2-.1-.2-.2s0-.2.1-.6l1-5.1c-.4.1-.9.1-1.3.1h-.1l-.1.4h.5v.1zm2.2 3.6c.1-1.2.7-1.9 1.5-1.9.6 0 1 .5 1 1.3l-2.5.6zm3 1.3l-.3-.2c-.4.5-.9.8-1.4.8-.8 0-1.3-.5-1.3-1.4l3.4-.8c0-1.2-.7-1.9-1.9-1.9-.6 0-1.2.3-1.7.8-.4.5-.7 1.1-.7 1.8 0 1.2.8 2 1.9 2 .8-.1 1.5-.4 2-1.1zm2.5-2.7l.2-.9c-.4.1-.8.1-1.2.1h-.1l-.1.4h.6l-.7 3.6h-.6l-.1.4h1.9l.1-.4h-.6l.4-2.2c.1-.8.5-1.2 1-1.2.2 0 .3 0 .5.1l.2-.8c-.1 0-.3-.1-.4-.1-.2.1-.6.4-1.1 1m5.4-.7l-.2.7c-.2-.5-.6-.8-1.2-.8s-1.1.2-1.5.7c-.5.6-.8 1.4-.8 2.1 0 1.1.6 1.7 1.5 1.7.6 0 1.1-.3 1.5-.8v.2c0 .4.1.5.5.5.3 0 .5-.1.9-.3v-.4c-.2.1-.3.2-.4.2-.1 0-.2-.1-.2-.2s0-.3.1-.6l.6-3.3-.8.3zm-.5 2.6c-.1.7-.8 1.3-1.4 1.3-.6 0-1-.5-1-1.3 0-.7.2-1.4.6-1.9.3-.4.6-.6 1-.6.6 0 1 .4 1 1v.3l-.2 1.2zm7.8 0c-.1.7-.8 1.3-1.4 1.3-.6 0-1-.5-1-1.3 0-.7.2-1.4.6-1.9.3-.4.6-.6 1-.6.6 0 1 .4 1 1v.3l-.2 1.2zm.8-4.1l-.4 2.2c-.2-.5-.6-.8-1.2-.8s-1.1.2-1.5.7c-.5.6-.8 1.4-.8 2.1 0 1.1.6 1.7 1.5 1.7.6 0 1.1-.3 1.5-.8v.2c0 .4.1.5.5.5.3 0 .5-.1.9-.3v-.4c-.2.1-.3.2-.4.2-.1 0-.2-.1-.2-.2s0-.2.1-.6l1-5.1c-.4.1-.9.1-1.3.1h-.1l-.1.4h.5v.1zm2.2 3.6c.1-1.2.7-1.9 1.5-1.9.6 0 1 .5 1 1.3l-2.5.6zm3 1.3l-.3-.2c-.4.5-.9.8-1.4.8-.8 0-1.3-.5-1.3-1.4l3.4-.8c0-1.2-.7-1.9-1.9-1.9-.6 0-1.2.3-1.7.8-.4.5-.7 1.1-.7 1.8 0 1.2.8 2 1.9 2 .8-.1 1.5-.4 2-1.1zm3.1.9h1.9l.1-.4h-.6l.4-2.2c.2-.9.9-1.4 1.5-1.4.4 0 .6.2.6.6 0 .2 0 .4-.1.7l-.4 1.7c0 .2-.1.4-.1.5 0 .4.2.6.7.6.4 0 .7-.2 1-.5l-.2-.3c-.2.2-.4.3-.5.3-.1 0-.2-.1-.2-.2s0-.2.1-.5l.5-1.9c0-.2.1-.4.1-.5 0-.6-.4-1-1.1-1-.6 0-1.1.2-1.6.8l.4-2.6c-.5.1-.9.1-1.4.1l-.1.4h.6l-1 5.4h-.6v.4zm7.6-.3c-.6 0-1-.4-1-1.3 0-.8.2-1.5.6-2 .3-.4.6-.6 1-.6.6 0 1 .4 1 1.3 0 1-.4 1.8-.9 2.3-.2.2-.4.3-.7.3m0 .4c1.3 0 2.4-1.1 2.4-2.6 0-1.1-.8-1.9-1.8-1.9-.7 0-1.3.3-1.7.8-.4.5-.6 1.1-.6 1.7-.1 1.2.7 2 1.7 2m6.9-4.4l-.2.7c-.2-.5-.6-.8-1.2-.8s-1.1.2-1.5.7c-.5.6-.8 1.4-.8 2.1 0 1.1.6 1.7 1.5 1.7.6 0 1.1-.2 1.5-.8l-.1.5c-.2 1.2-.5 1.8-1.2 1.8-.5 0-.9-.3-1.1-1l-.6.5c.4.5.9.8 1.6.8 1.2 0 1.8-.8 2.1-2.4l.7-3.6h.4l.1-.4h-.6c-.2.2-.4.2-.6.2zm-.5 2.6c-.1.7-.8 1.3-1.4 1.3-.6 0-1-.5-1-1.3 0-.7.2-1.4.6-1.9.3-.4.6-.6 1-.6.6 0 1 .4 1 1v.3l-.2 1.2zm5.8-2.6l-.2.7c-.2-.5-.6-.8-1.2-.8s-1.1.2-1.5.7c-.5.6-.8 1.4-.8 2.1 0 1.1.6 1.7 1.5 1.7.6 0 1.1-.3 1.5-.8v.2c0 .4.1.5.5.5.3 0 .5-.1.9-.3v-.4c-.2.1-.3.2-.4.2-.1 0-.2-.1-.2-.2s0-.3.1-.6l.6-3.3-.8.3zm-.5 2.6c-.1.7-.8 1.3-1.4 1.3-.6 0-1-.5-1-1.3 0-.7.2-1.4.6-1.9.3-.4.6-.6 1-.6.6 0 1 .4 1 1v.3l-.2 1.2zm3.7-1.9l.2-.9c-.4.1-.8.1-1.2.1h-.1l-.1.4h.6l-.7 3.6h-.6l-.1.4h1.9l.1-.4h-.6l.4-2.2c.1-.8.5-1.2 1-1.2.2 0 .3 0 .5.1l.2-.8c-.1 0-.3-.1-.4-.1-.2.1-.6.4-1.1 1m2.4 2h.3c.6-1.7 1-3.2 1.1-4.6h-.9c-.1 1.5-.2 3-.5 4.6m-.1 1.6c.3 0 .5-.3.5-.6 0-.2-.2-.4-.4-.4-.3 0-.5.3-.5.6s.2.4.4.4m8.1-36.3h.8c.4 0 .8.1.8.6 0 .6-.5.6-1 .6h-.6v-1.2zm-.6 3.3h.6v-1.6h.6l1 1.6h.6l-1.1-1.7c.6-.1 1-.3 1-1s-.4-1.1-1.3-1.1h-1.4v3.8zm-1.4-1.9c0-1.5 1.1-2.7 2.7-2.7 1.5 0 2.6 1.2 2.6 2.7 0 1.6-1.1 2.8-2.6 2.8-1.5-.1-2.7-1.2-2.7-2.8zm-.6 0c0 1.8 1.5 3.2 3.2 3.2 1.8 0 3.2-1.4 3.2-3.2 0-1.8-1.5-3.2-3.2-3.2-1.7 0-3.2 1.4-3.2 3.2zM63 14.4h21.5v5.3H69.3v7h13.3V32H69.3v12.7H63V14.4z" fill="#000"/>
    <path d="M63 14.4h21.5v5.3H69.3v7h13.3V32H69.3v12.7H63V14.4z"/>
    <path d="M103.7 42c-1.9 2.3-4.8 3.5-8.6 3.5-3.9 0-6.7-1.2-8.6-3.5-1.9-2.3-2.8-5.2-2.8-8.5 0-3.2.9-6.1 2.8-8.4 1.9-2.4 4.8-3.6 8.6-3.6 3.9 0 6.7 1.2 8.6 3.6 1.9 2.4 2.8 5.2 2.8 8.4 0 3.3-.9 6.1-2.8 8.5M99 38.7c.9-1.2 1.4-3 1.4-5.2 0-2.3-.5-4-1.4-5.2-.9-1.2-2.2-1.8-4-1.8-1.7 0-3 .6-4 1.8-.9 1.2-1.4 2.9-1.4 5.2 0 2.3.5 4 1.4 5.2.9 1.2 2.3 1.8 4 1.8 1.7 0 3.1-.6 4-1.8" fill="#000"/>
    <path d="M103.7 42c-1.9 2.3-4.8 3.5-8.6 3.5-3.9 0-6.7-1.2-8.6-3.5-1.9-2.3-2.8-5.2-2.8-8.5 0-3.2.9-6.1 2.8-8.4 1.9-2.4 4.8-3.6 8.6-3.6 3.9 0 6.7 1.2 8.6 3.6 1.9 2.4 2.8 5.2 2.8 8.4 0 3.3-.9 6.1-2.8 8.5zM99 38.7c.9-1.2 1.4-3 1.4-5.2 0-2.3-.5-4-1.4-5.2-.9-1.2-2.2-1.8-4-1.8-1.7 0-3 .6-4 1.8-.9 1.2-1.4 2.9-1.4 5.2 0 2.3.5 4 1.4 5.2.9 1.2 2.3 1.8 4 1.8 1.7 0 3.1-.6 4-1.8z"/>
    <path d="M120.5 21.7h.5v6c-.4 0-.7-.1-1-.1h-.7c-2.4 0-3.9.8-4.8 2.3-.5.9-.7 2.2-.7 4v10.7h-5.9V22.1h5.6V26c.9-1.5 1.7-2.5 2.4-3.1 1.1-.9 2.5-1.4 4.3-1.4.1.2.2.2.3.2" fill="#000"/>
    <path d="M120.5 21.7h.5v6c-.4 0-.7-.1-1-.1h-.7c-2.4 0-3.9.8-4.8 2.3-.5.9-.7 2.2-.7 4v10.7h-5.9V22.1h5.6V26c.9-1.5 1.7-2.5 2.4-3.1 1.1-.9 2.5-1.4 4.3-1.4.1.2.2.2.3.2z"/>
    <path d="M140.5 13l-6.3 6.2H130l4-6.2h6.5zm-2.4 9.7c1.5.7 2.7 1.8 3.7 3.3.9 1.3 1.4 2.9 1.7 4.6.1 1 .2 2.5.2 4.5h-15.4c.1 2.3.8 3.8 2.1 4.7.8.6 1.8.8 2.9.8 1.2 0 2.2-.3 2.9-1 .4-.4.8-.9 1.1-1.5h6c-.2 1.3-.8 2.7-2.1 4.1-1.9 2.2-4.6 3.3-8.1 3.3-2.9 0-5.4-.9-7.6-2.8-2.2-1.8-3.3-4.8-3.3-9 0-3.9 1-6.9 2.9-8.9 2-2.1 4.5-3.1 7.7-3.1 2.1-.1 3.8.3 5.3 1zm-8.2 5c-.7.9-1.2 2-1.4 3.5h9.1c-.1-1.6-.6-2.7-1.4-3.5-.8-.8-1.9-1.2-3.1-1.2-1.4 0-2.5.4-3.2 1.2z" fill="#000"/>
    <path d="M140.5 13l-6.3 6.2H130l4-6.2h6.5zm-2.4 9.7c1.5.7 2.7 1.8 3.7 3.3.9 1.3 1.4 2.9 1.7 4.6.1 1 .2 2.5.2 4.5h-15.4c.1 2.3.8 3.8 2.1 4.7.8.6 1.8.8 2.9.8 1.2 0 2.2-.3 2.9-1 .4-.4.8-.9 1.1-1.5h6c-.2 1.3-.8 2.7-2.1 4.1-1.9 2.2-4.6 3.3-8.1 3.3-2.9 0-5.4-.9-7.6-2.8-2.2-1.8-3.3-4.8-3.3-9 0-3.9 1-6.9 2.9-8.9 2-2.1 4.5-3.1 7.7-3.1 2.1-.1 3.8.3 5.3 1zm-8.2 5c-.7.9-1.2 2-1.4 3.5h9.1c-.1-1.6-.6-2.7-1.4-3.5-.8-.8-1.9-1.2-3.1-1.2-1.4 0-2.5.4-3.2 1.2z"/>
    <path d="M150.1 37.5c.1 1 .4 1.8.8 2.2.7.8 2.1 1.2 4 1.2 1.2 0 2.1-.2 2.7-.5.7-.3 1-.9 1-1.5 0-.7-.3-1.2-.8-1.5-.5-.3-2.6-.9-6.1-1.8-2.5-.6-4.3-1.4-5.4-2.4-1-.9-1.6-2.3-1.6-4 0-2.1.8-3.9 2.4-5.3 1.6-1.5 3.9-2.2 6.9-2.2 2.8 0 5.1.6 6.8 1.7 1.8 1.1 2.8 3 3 5.8h-5.9c-.1-.8-.3-1.4-.6-1.8-.6-.8-1.7-1.2-3.3-1.2-1.3 0-2.2.2-2.7.6-.5.4-.8.9-.8 1.4 0 .7.3 1.2.9 1.5.6.3 2.6.9 6.1 1.6 2.3.5 4.1 1.4 5.3 2.5 1.2 1.1 1.7 2.5 1.7 4.2 0 2.2-.8 4-2.5 5.5-1.6 1.4-4.2 2.1-7.7 2.1s-6.1-.7-7.8-2.2c-1.7-1.5-2.5-3.4-2.5-5.7h6.1v-.2z" fill="#000"/>
    <path d="M150.1 37.5c.1 1 .4 1.8.8 2.2.7.8 2.1 1.2 4 1.2 1.2 0 2.1-.2 2.7-.5.7-.3 1-.9 1-1.5 0-.7-.3-1.2-.8-1.5-.5-.3-2.6-.9-6.1-1.8-2.5-.6-4.3-1.4-5.4-2.4-1-.9-1.6-2.3-1.6-4 0-2.1.8-3.9 2.4-5.3 1.6-1.5 3.9-2.2 6.9-2.2 2.8 0 5.1.6 6.8 1.7 1.8 1.1 2.8 3 3 5.8h-5.9c-.1-.8-.3-1.4-.6-1.8-.6-.8-1.7-1.2-3.3-1.2-1.3 0-2.2.2-2.7.6-.5.4-.8.9-.8 1.4 0 .7.3 1.2.9 1.5.6.3 2.6.9 6.1 1.6 2.3.5 4.1 1.4 5.3 2.5 1.2 1.1 1.7 2.5 1.7 4.2 0 2.2-.8 4-2.5 5.5-1.6 1.4-4.2 2.1-7.7 2.1s-6.1-.7-7.8-2.2c-1.7-1.5-2.5-3.4-2.5-5.7h6.1v-.2z"/>
    <path d="M61.9 13h21.5v5.3H68.2v7h13.3v5.3H68.2v12.7h-6.3V13z" fill="#F1CF00"/>
    <path d="M61.9 13h21.5v5.3H68.2v7h13.3v5.3H68.2v12.7h-6.3V13z"/>
    <path d="M102.6 40.6c-1.9 2.3-4.8 3.5-8.6 3.5-3.9 0-6.7-1.2-8.6-3.5-1.9-2.3-2.8-5.2-2.8-8.5 0-3.2.9-6.1 2.8-8.4 1.9-2.3 4.8-3.6 8.6-3.6 3.9 0 6.7 1.2 8.6 3.6 1.9 2.4 2.8 5.2 2.8 8.4 0 3.3-.9 6.2-2.8 8.5m-4.7-3.2c.9-1.2 1.4-3 1.4-5.2 0-2.3-.5-4-1.4-5.2-.9-1.2-2.2-1.8-4-1.8-1.7 0-3 .6-4 1.8-.9 1.2-1.4 2.9-1.4 5.2 0 2.3.5 4 1.4 5.2.9 1.2 2.3 1.8 4 1.8 1.7 0 3-.6 4-1.8" fill="#F1CF00"/>
    <path d="M102.6 40.6c-1.9 2.3-4.8 3.5-8.6 3.5-3.9 0-6.7-1.2-8.6-3.5-1.9-2.3-2.8-5.2-2.8-8.5 0-3.2.9-6.1 2.8-8.4 1.9-2.3 4.8-3.6 8.6-3.6 3.9 0 6.7 1.2 8.6 3.6 1.9 2.4 2.8 5.2 2.8 8.4 0 3.3-.9 6.2-2.8 8.5zm-4.7-3.2c.9-1.2 1.4-3 1.4-5.2 0-2.3-.5-4-1.4-5.2-.9-1.2-2.2-1.8-4-1.8-1.7 0-3 .6-4 1.8-.9 1.2-1.4 2.9-1.4 5.2 0 2.3.5 4 1.4 5.2.9 1.2 2.3 1.8 4 1.8 1.7 0 3-.6 4-1.8z"/>
    <path d="M119.3 20.4h.5v6c-.4 0-.7-.1-1-.1h-.7c-2.4 0-4 .8-4.8 2.3-.5.9-.7 2.2-.7 4v10.7h-5.9V20.8h5.6v3.9c.9-1.5 1.7-2.5 2.4-3.1 1.1-.9 2.5-1.4 4.3-1.4.2.1.3.1.3.2" fill="#F1CF00"/>
    <path d="M119.3 20.4h.5v6c-.4 0-.7-.1-1-.1h-.7c-2.4 0-4 .8-4.8 2.3-.5.9-.7 2.2-.7 4v10.7h-5.9V20.8h5.6v3.9c.9-1.5 1.7-2.5 2.4-3.1 1.1-.9 2.5-1.4 4.3-1.4.2.1.3.1.3.2z"/>
    <path d="M139.4 11.7l-6.3 6.2h-4.2l4-6.2h6.5zm-2.4 9.6c1.5.7 2.7 1.8 3.7 3.3.9 1.3 1.4 2.9 1.7 4.6.2 1 .2 2.5.2 4.5h-15.4c.1 2.3.8 3.8 2.1 4.7.8.6 1.8.8 2.9.8 1.2 0 2.2-.3 2.9-1 .4-.4.8-.9 1.1-1.5h6c-.2 1.3-.8 2.7-2.1 4.1-1.9 2.2-4.6 3.3-8.1 3.3-2.9 0-5.4-.9-7.6-2.8-2.2-1.8-3.3-4.8-3.3-9 0-3.9 1-6.9 2.9-8.9 2-2.1 4.5-3.1 7.7-3.1 2.1 0 3.8.3 5.3 1zm-8.2 5.1c-.7.9-1.2 2-1.4 3.5h9.1c-.1-1.6-.6-2.7-1.4-3.5-.8-.8-1.9-1.2-3.1-1.2-1.4-.1-2.5.3-3.2 1.2z" fill="#F1CF00"/>
    <path d="M139.4 11.7l-6.3 6.2h-4.2l4-6.2h6.5zm-2.4 9.6c1.5.7 2.7 1.8 3.7 3.3.9 1.3 1.4 2.9 1.7 4.6.2 1 .2 2.5.2 4.5h-15.4c.1 2.3.8 3.8 2.1 4.7.8.6 1.8.8 2.9.8 1.2 0 2.2-.3 2.9-1 .4-.4.8-.9 1.1-1.5h6c-.2 1.3-.8 2.7-2.1 4.1-1.9 2.2-4.6 3.3-8.1 3.3-2.9 0-5.4-.9-7.6-2.8-2.2-1.8-3.3-4.8-3.3-9 0-3.9 1-6.9 2.9-8.9 2-2.1 4.5-3.1 7.7-3.1 2.1 0 3.8.3 5.3 1zm-8.2 5.1c-.7.9-1.2 2-1.4 3.5h9.1c-.1-1.6-.6-2.7-1.4-3.5-.8-.8-1.9-1.2-3.1-1.2-1.4-.1-2.5.3-3.2 1.2z"/>
    <path d="M149 36.2c.1 1 .4 1.8.8 2.2.7.8 2.1 1.2 4 1.2 1.2 0 2.1-.2 2.7-.5.7-.3 1-.9 1-1.5 0-.7-.3-1.2-.8-1.5-.5-.3-2.6-.9-6.1-1.8-2.5-.6-4.3-1.4-5.4-2.4-1-.9-1.6-2.3-1.6-4 0-2.1.8-3.9 2.4-5.3 1.6-1.5 3.9-2.2 6.9-2.2 2.8 0 5.1.6 6.8 1.7 1.8 1.1 2.8 3 3 5.8h-5.9c-.1-.8-.3-1.4-.6-1.8-.6-.8-1.7-1.2-3.3-1.2-1.3 0-2.2.2-2.7.6-.5.4-.8.9-.8 1.4 0 .7.3 1.2.9 1.5.6.3 2.6.9 6.1 1.6 2.3.6 4.1 1.4 5.3 2.5 1.2 1.1 1.7 2.5 1.7 4.2 0 2.2-.8 4-2.5 5.5-1.6 1.4-4.2 2.1-7.7 2.1s-6.1-.7-7.8-2.2c-1.7-1.5-2.5-3.4-2.5-5.7h6.1v-.2z" fill="#F1CF00"/>
    <path d="M149 36.2c.1 1 .4 1.8.8 2.2.7.8 2.1 1.2 4 1.2 1.2 0 2.1-.2 2.7-.5.7-.3 1-.9 1-1.5 0-.7-.3-1.2-.8-1.5-.5-.3-2.6-.9-6.1-1.8-2.5-.6-4.3-1.4-5.4-2.4-1-.9-1.6-2.3-1.6-4 0-2.1.8-3.9 2.4-5.3 1.6-1.5 3.9-2.2 6.9-2.2 2.8 0 5.1.6 6.8 1.7 1.8 1.1 2.8 3 3 5.8h-5.9c-.1-.8-.3-1.4-.6-1.8-.6-.8-1.7-1.2-3.3-1.2-1.3 0-2.2.2-2.7.6-.5.4-.8.9-.8 1.4 0 .7.3 1.2.9 1.5.6.3 2.6.9 6.1 1.6 2.3.6 4.1 1.4 5.3 2.5 1.2 1.1 1.7 2.5 1.7 4.2 0 2.2-.8 4-2.5 5.5-1.6 1.4-4.2 2.1-7.7 2.1s-6.1-.7-7.8-2.2c-1.7-1.5-2.5-3.4-2.5-5.7h6.1v-.2z"/>
</svg>
