<svg xmlns="http://www.w3.org/2000/svg" width="100" height="13" viewBox="0 0 100 13">
    <path stroke="#000" stroke-width="1.12" d="M68.802 11.542c2.95 0 5.39-2.027 5.39-5.467 0-3.013-2.088-5.258-5.267-5.258-3.087 0-5.375 2.258-5.375 5.484 0 3.01 2.15 5.24 5.237 5.24h.02l-.005.01z"/>
    <path fill="#000" d="M66.253 3.564h5.236V8.8h-5.24m-59.6.392l.71 2.604h3.25L7.27.546h-4L0 11.796h3.12l.635-2.603h2.903zm-2.5-2.236l.48-2.003c.16-.635.33-1.57.5-2.236h.03c.16.667.38 1.585.55 2.22l.52 2.02H4.15zm8.41 4.84h2.98V7.57h.48c.93 0 1.35.285 1.65 1.637.33 1.384.61 2.252.78 2.585h3.09c-.22-.434-.59-2.07-.94-3.22-.29-.97-.69-1.686-1.44-2.003V6.5c.884-.32 1.936-1.32 1.936-2.724 0-1.1-.4-1.906-1.12-2.454-.844-.632-2.08-.864-3.8-.864-1.5 0-2.787.1-3.636.233V11.8l.01.003zm2.99-9.046c.14-.03.44-.062 1.01-.062 1 .017 1.55.484 1.55 1.335 0 .834-.66 1.4-1.79 1.4h-.78V2.75zm7.8 9.05h2.98V8.39l.9-1.15 2.37 4.555h3.49L29.4 5.337l3.572-4.79H29.27l-2.153 3.54c-.25.402-.5.82-.735 1.236h-.033V.547h-2.99v11.248h-.01zm11.27 0h3.02V.547h-3.01v11.25zm7.77 0h3.02V3.07h2.92V.547h-8.8v2.52h2.87v8.73zm17.97 0h.787L60.41.547h-.953L56.954 7.04c-.568 1.5-.968 2.603-1.268 3.637h-.034c-.317-1.085-.717-2.22-1.234-3.654L51.998.547h-.92l-.816 11.248h.785l.35-5.173c.138-1.874.22-3.824.24-5.145h.05c.332 1.233.817 2.585 1.452 4.34l2.22 5.975h.55l2.37-6.126c.63-1.673 1.1-2.975 1.5-4.19h.05c-.02 1.215.12 3.284.23 4.97l.33 5.34-.03.01zm16.14-.017c.433.05 1.083.1 1.95.1 1.585 0 2.804-.302 3.54-1.07.515-.532.833-1.234.833-2.15 0-1.838-1.435-2.655-2.37-2.87v-.035c1.12-.402 1.94-1.37 1.94-2.522 0-.786-.237-1.39-.688-1.855-.63-.62-1.55-.92-2.95-.92-.84 0-1.64.09-2.25.24v11.08l-.01.01zm.79-10.535c.25-.066.685-.117 1.434-.117 1.67 0 2.854.57 2.854 2.16 0 1.25-1.02 2.2-2.64 2.2H77.3V1.25v.003zm0 4.89h1.42c1.784 0 3.302.767 3.302 2.534 0 1.92-1.617 2.537-3.336 2.537-.585 0-1.05-.02-1.386-.09V6.13v.008zm13.433-.604H86.22v-4.32H91V.547h-5.555v11.245h5.824v-.666h-5.04V6.204h4.5v-.67zm2.987 6.258h5.81v-.665H94.5V.547h-.78v11.248-.003z"/>
</svg>
