<svg xmlns="http://www.w3.org/2000/svg" width="100" height="34" viewBox="0 0 100 34" xmlns:xlink="http://www.w3.org/1999/xlink">
  <defs>
    <linearGradient id="a" x1="0%" y1="50.023%" y2="50.023%">
      <stop stop-color="#CD5A40" offset="0%"/>
      <stop stop-color="#DA8673" offset="15%"/>
      <stop stop-color="#FFFFFF" offset="32%"/>
      <stop stop-color="#D87D68" offset="63%"/>
      <stop stop-color="#CD5A40" offset="100%"/>
    </linearGradient>
    <linearGradient id="b" x1="-.284%" x2="99.235%" y1="49.947%" y2="49.947%">
      <stop stop-color="#FFFFFF" offset="0%"/>
      <stop stop-color="#DA8673" offset="36%"/>
      <stop stop-color="#CD5A40" offset="70%"/>
      <stop stop-color="#CD5A40" offset="100%"/>
    </linearGradient>
    <path id="c" d="M0.386666667,1.42219512 C0.386666667,2.16604878 0.845,2.76809756 1.41416667,2.76809756 C1.98083333,2.76809756 2.44166667,2.16604878 2.44166667,1.42219512 C2.44166667,0.68 1.98166667,0.0787804878 1.41416667,0.0787804878 C0.845833333,0.0787804878 0.386666667,0.68 0.386666667,1.42219512 Z"/>
    <path id="e" d="M0.733333333,2.24565854 C0.733333333,3.08736585 1.37166667,3.7715122 2.15833333,3.7715122 C2.94666667,3.7715122 3.375,3.07326829 3.375,2.23156098 C3.375,1.394 2.94666667,0.722292683 2.15833333,0.722292683 C1.37166667,0.722292683 0.733333333,1.41058537 0.733333333,2.24814634 L0.733333333,2.24565854 Z"/>
    <path id="g" d="M1.195,0.713170732 L0.86,1.54243902 C0.86,1.54243902 0.45,2.93892683 1.36,2.99946341 C2.26666667,3.06082927 2.40166667,1.67595122 2.43166667,1.37658537 C2.46166667,1.07804878 2.78166667,0.941219512 2.23666667,0.612 C2.08666667,0.520780488 1.94,0.487609756 1.80666667,0.487609756 C1.45666667,0.487609756 1.195,0.714 1.195,0.714 L1.195,0.713170732 Z"/>
  </defs>
  <g fill="none" fill-rule="evenodd">
    <path fill="#231F20" stroke="#231F20" stroke-width=".04" d="M2.90833333,20.4331707 C2.90833333,20.4331707 5.15,21.9059512 5.725,22.3098049 C6.3,22.7144878 8.41666667,24.436878 9.29166667,24.7254634 C10.8033333,25.237122 11.0166667,27.2845854 9.99166667,27.4703415 C9.64416667,27.7207805 9.11666667,27.9679024 8.55,28.1752195 C7.1,28.2249756 6.96416667,28.6810732 6.20666667,28.7358049 C5.26083333,28.9762927 4.26083333,29.2731707 2.15333333,29.944878 C1.045,30.4009756 -0.3325,32.3663415 2.37,32.6872683 C3.695,32.8489756 3.85666667,32.902878 4.28833333,32.8489756 C5.07166667,32.8489756 5.96333333,32.525561 6.61333333,32.3389756 C7.23416667,32.2029756 9.07166667,32.0603415 9.585,32.015561 C10.0983333,31.9699512 11.7733333,30.7252195 12.8,30.3487317 C13.26,29.9714146 14.6116667,29.4340488 15.3941667,29.0301951 C15.6925,28.8427805 16.2591667,28.1976098 15.475,27.2306829 C14.8808333,26.7729268 13.7191667,26.0721951 14.4208333,24.9419024 C14.8408333,24.8042439 15.8,24.378 16.9891667,24.6218049 C17.5958333,25.2271707 17.8808333,25.376439 18.5825,25.9154634 C19.4158333,26.6949756 19.3325,28.2871707 19.7658333,28.5276585 C20.0241667,28.6769268 20.4658333,29.0418049 21.5491667,29.2574146 C22.3575,29.4481463 23.5741667,30.0369268 24.5991667,30.4930244 C25.3658333,30.8413171 25.4991667,31.0900976 26.5325,31.3720488 C27.5575,31.654 28.9491667,32.0686341 29.2741667,32.1681463 C29.5991667,32.2676585 29.8741667,32.2925366 30.8075,32.3837561 C31.7241667,32.2013171 32.2658333,32.1432683 32.8325,31.6042439 C33.2491667,30.9076585 33.5075,30.9905854 33.0991667,30.0286341 C31.9325,29.3320488 32.0991667,28.8925366 29.2575,27.8974146 C28.4575,27.6652195 27.7408333,27.391561 26.8491667,27.0681463 C25.7658333,26.8525366 23.9325,25.8574146 23.9325,25.8574146 C23.9325,25.8574146 22.5241667,25.4013171 22.1991667,24.7544878 C21.8325,24.0330244 22.3575,23.1208293 22.9825,22.6896098 C23.5991667,22.316439 24.0325,21.0808293 24.7325,20.591561 C25.1325,20.2183902 25.4075,19.8949756 25.4075,19.8949756 L26.0825,19.0408293 L27.5658333,16.8100976 L21.0408333,18.1203415 L9.14083333,18.4022927 L2.86583333,20.4837561 L2.90833333,20.4331707 Z"/>
    <path fill="#AFCB43" stroke="#231F20" stroke-width=".14" d="M3.01833333,16.728 C3.01833333,16.728 1.19583333,19.4596098 2.83,20.480439 C4.46333333,21.5020976 8.19166667,22.5245854 8.61166667,22.5245854 C9.03166667,22.5245854 11.3675,23.4649756 12.68,19.7938049 C13.2325,22.223561 14.3941667,23.9152683 17.0425,23.4342927 C18.5841667,24.0230732 22.8258333,21.2533171 24.8008333,19.8020976 C26.0175,18.7489268 27.7341667,16.7918537 28.0175,16.0952683 C28.3008333,15.3986829 27.1508333,12.6372195 27.1508333,12.6372195 L21.5091667,12.8694146 L5.17583333,11.2855122 L3.02583333,16.7172195 L3.01833333,16.728 Z"/>
    <path fill="url(#a)" stroke="#231F20" stroke-width=".14" d="M7.04666667,15.13 C7.04666667,15.13 11.5075,16.987561 15.155,16.5298049 C20.9633333,16.2047317 25.0691667,13.8098049 25.0691667,13.8098049 L26.2833333,15.7469756 C26.2833333,15.7469756 22.15,19.2381951 13.4916667,19.4123415 C9.84416667,19.868439 5.38333333,17.9030732 5.38333333,17.9030732 C5.38333333,17.9030732 5.6,16.3855122 5.72,16.1947805 C6.07333333,15.6557561 7.04666667,15.1167317 7.04666667,15.1167317 L7.04666667,15.13 Z"/>
    <g stroke="#231F20" stroke-width=".14" transform="translate(10 15.756)">
      <path fill="#FFF200" d="M1.85416667,0.0970243902 C1.85416667,0.0970243902 0.500833333,-0.267853659 0.2875,0.640195122 C0.0733333333,1.54990244 0.0458333333,3.22170732 0.0458333333,3.22170732 C0.0458333333,3.22170732 -7.32053307e-15,3.8917561 0.993333333,3.99790244 C1.9875,4.10570732 4.0475,4.13887805 4.0475,4.13887805 C4.0475,4.13887805 4.86083333,4.23009756 4.69416667,3.39253659 C4.5275,2.55497561 4.53416667,2.37253659 4.5875,2.0242439 C4.64083333,1.67595122 4.69416667,0.871560976 4.69416667,0.871560976 C4.69416667,0.871560976 4.9025,0.0920487805 4.01416667,0.150097561 C3.1275,0.208146341 1.85416667,0.116926829 1.85416667,0.116926829 L1.85416667,0.0970243902 Z"/>
      <path fill="url(#b)" d="M1.9875,0.692439024 C1.9875,0.692439024 1.24333333,0.435365854 1.12583333,1.07639024 C1.00916667,1.71741463 1.00083333,2.89746341 1.00083333,2.89746341 C1.00083333,2.89746341 0.975833333,3.37014634 1.52583333,3.44478049 C2.07583333,3.51941463 3.20916667,3.53931707 3.20916667,3.53931707 C3.20916667,3.53931707 3.65916667,3.59985366 3.5675,3.0102439 C3.47583333,2.41980488 3.48416667,2.28878049 3.50916667,2.04 C3.5425,1.79287805 3.5675,1.22565854 3.5675,1.22565854 C3.5675,1.22565854 3.68416667,0.678341463 3.1925,0.715658537 C2.70916667,0.75297561 2.00916667,0.692439024 2.00916667,0.692439024 L1.9875,0.692439024 Z"/>
    </g>
    <path fill="#AFCB43" stroke="#231F20" stroke-width=".14" d="M4.23833333,10.7514634 C4.23833333,10.7514634 1.44,12.0807805 1.44,14.7278049 C1.53666667,15.9319024 2.19583333,16.7130732 2.94166667,17.2239024 C3.6875,17.7347317 5.625,15.2386341 5.625,15.2386341 C5.625,15.2386341 4.42333333,13.5286829 4.93666667,12.9249756 C5.45,12.3196098 7.12666667,11.3410732 7.12666667,11.3410732 L4.40416667,10.5051707 L4.2375,10.7514634 L4.23833333,10.7514634 Z"/>
    <path fill="#FFD49A" d="M7.91333333,15.482439 C8.02,15.615122 7.07333333,13.544439 5.45333333,14.134878 C3.8325,14.7253171 2.88666667,16.9079512 2.88666667,16.9079512 C2.88666667,16.9079512 2.45333333,18.350878 2.74666667,18.8650244 C2.8325,19.2381951 3.07166667,19.346 3.34666667,19.4289268 C3.74666667,19.5864878 3.85916667,20.6645366 4.53333333,20.4820976 C5.20666667,20.2913659 4.99333333,20.2581951 4.99333333,20.2581951 C4.99333333,20.2581951 5.28666667,20.4406341 5.61333333,20.2830732 C5.94,20.1255122 5.72,19.6942927 5.58666667,19.4538049 C5.45333333,19.2050244 5.37333333,18.7986829 5.50666667,18.3425854 C5.64,17.9113659 5.69333333,16.4103902 6.20666667,16.0289268 C6.85333333,15.4069756 7.80666667,15.3323415 7.91333333,15.4650244"/>
    <path stroke="#231F20" stroke-width=".14" d="M5.45333333,14.134878 C3.8325,14.7253171 2.88666667,16.9079512 2.88666667,16.9079512 C2.88666667,16.9079512 2.45333333,18.350878 2.74666667,18.8650244 C2.8325,19.2381951 3.07166667,19.346 3.34666667,19.4289268 C3.74666667,19.5864878 3.85916667,20.6645366 4.53333333,20.4820976 C5.20666667,20.2913659 4.99333333,20.2581951 4.99333333,20.2581951 C4.99333333,20.2581951 5.28666667,20.4406341 5.61333333,20.2830732 C5.94,20.1255122 5.72,19.6942927 5.58666667,19.4538049 C5.45333333,19.2050244 5.37333333,18.7986829 5.50666667,18.3425854 C5.64,17.9113659 5.69333333,16.4103902 6.20666667,16.0289268 C6.85333333,15.4069756 7.80666667,15.3323415 7.91333333,15.4650244 C8.02,15.615122 7.07333333,13.544439 5.45333333,14.134878 Z M3.99333333,17.1675122 C3.99333333,17.1675122 3.02666667,18.5673171 3.34583333,19.4297561 M5.02083333,16.987561 L4.45416667,18.4935122 C4.45416667,18.4935122 4.07333333,18.9579024 4.42666667,19.4057073 C4.61333333,19.8369268 5.02,20.2930244 5.02,20.2930244"/>
    <path fill="#F9BCBF" stroke="#231F20" stroke-width=".14" d="M26.2166667,5.0502439 L25.7516667,3.62804878 C25.7516667,3.62804878 25.49,2.59146341 26.0266667,2.40239024 C26.565,2.21331707 26.55,2.90409756 26.7783333,3.25819512 C27.0066667,3.6064878 27.4725,4.80892683 27.5675,4.93331707 C27.6675,5.04941463 26.2175,5.04941463 26.2175,5.04941463 L26.2166667,5.0502439 Z"/>
    <path fill="#FFD49A" d="M28.105,9.97112195 C28.105,9.97112195 28.9275,7.29839024 28.1758333,6.41853659 C28.1341667,6.25268293 28.5758333,5.44414634 27.5008333,4.7915122 C25.9591667,4.76663415 25.7341667,4.9324878 25.5175,5.05107317 C25.0758333,5.1837561 24.7508333,5.49887805 24.7508333,5.49887805 C24.7508333,5.49887805 23.2841667,5.134 24.1675,7.6135122 C24.3508333,7.77107317 24.0758333,8.54229268 24.7258333,9.35497561 C25.0008333,9.52082927 25.0008333,10.0349756 25.0008333,10.0349756 L26.9591667,10.9637561 L28.1091667,9.9935122 L28.105,9.97112195 Z"/>
    <path stroke="#231F20" stroke-width=".14" d="M28.105,9.97112195 C28.105,9.97112195 28.9275,7.29839024 28.1758333,6.41853659 C28.1341667,6.25268293 28.5758333,5.44414634 27.5008333,4.7915122 C25.9591667,4.76663415 25.7341667,4.9324878 25.5175,5.05107317 C25.0758333,5.1837561 24.7508333,5.49887805 24.7508333,5.49887805 C24.7508333,5.49887805 23.2841667,5.134 24.1675,7.6135122 C24.3508333,7.77107317 24.0758333,8.54229268 24.7258333,9.35497561 C25.0008333,9.52082927 25.0008333,10.0349756 25.0008333,10.0349756 L26.9591667,10.9637561 L28.1091667,9.9935122 L28.105,9.97112195 Z M24.055,7.276 C24.055,7.276 24.2116667,7.73873171 24.5108333,7.786 M24.9525,9.57721951 C24.9525,9.57721951 25.6091667,9.63526829 25.68,9.7762439 M24.7716667,5.5055122 C24.7716667,5.5055122 24.055,6.29331707 24.7483333,6.98990244 C24.7483333,6.30990244 26.2416667,5.28990244 27.1483333,5.80404878 M24.7566667,6.95673171 C24.7566667,6.95673171 24.5283333,7.69478049 25.3416667,7.86063415 M26.5883333,6.64160976 C26.5883333,6.64160976 25.2858333,6.65819512 25.3566667,7.8855122 C25.5383333,8.44112195 25.9066667,8.54892683 26.1941667,8.32502439 C26.4225,8.14258537 26.5083333,7.56209756 26.3983333,7.46258537 C26.4233333,7.64502439 26.8733333,8.08453659 27.315,7.57868293"/>
    <path fill="#AFCB43" d="M28.0791667,9.83263415 C28.625,10.7962439 28.6316667,11.1843415 28.885,12.774878 C29.1383333,14.3670732 28.17,16.3515122 27.435,16.3191707 C26.7016667,16.286 26.8641667,16.2777073 26.1233333,16.4020976 C25.3816667,16.5264878 25.0633333,16.0786829 24.965,15.8879512 C24.8691667,15.6972195 23.5233333,13.7899024 23.6208333,12.7947805 C23.7183333,11.7996585 24.5175,10.5557561 24.5175,10.5557561 L24.9675,10.008439 C24.9675,10.008439 26.7341667,11.028439 28.0841667,9.80941463"/>
    <path stroke="#231F20" stroke-width=".14" d="M28.0791667,9.83263415 C28.625,10.7962439 28.6316667,11.1843415 28.885,12.774878 C29.1383333,14.3670732 28.17,16.3515122 27.435,16.3191707 C26.7016667,16.286 26.8641667,16.2777073 26.1233333,16.4020976 C25.3816667,16.5264878 25.0633333,16.0786829 24.965,15.8879512 C24.8691667,15.6972195 23.5233333,13.7899024 23.6208333,12.7947805 C23.7183333,11.7996585 24.5175,10.5557561 24.5175,10.5557561 L24.9675,10.008439 C24.9675,10.008439 26.7341667,11.028439 28.0841667,9.80941463 L28.0791667,9.83263415 Z M24.9983333,9.99434146 C24.9983333,9.99434146 25.1283333,12.3220976 25.7066667,12.963122"/>
    <g stroke="#231F20" stroke-width=".14" transform="translate(4.167)">
      <path fill="#007442" d="M5.01333333,8.80434146 C5.01333333,8.80434146 1.00666667,8.64843902 0.0733333333,10.7365366 C1.265,11.2092195 2.29,12.5294146 3.27916667,12.9838537 C3.77333333,13.5311707 3.43416667,13.2906829 3.9475,13.4747805 C4.3225,13.3752683 3.93916667,13.8313659 4.21916667,14.0220976 C4.5,14.2045366 4.30583333,13.9972195 4.63583333,14.2542927 C4.78083333,14.7269756 5.29416667,14.5279512 5.6825,14.7601463 C6.04916667,14.9840488 6.0575,15.2079512 6.56583333,15.4152683 C7.12416667,15.606 7.3075,15.3323415 7.7825,15.3489268 C8.29916667,15.3655122 8.8825,15.7801463 9.29916667,16.0206341 C9.62416667,16.1118537 10.3325,15.946 10.6658333,15.8547805 C10.7825,15.8381951 10.7241667,15.8796585 10.8575,15.9791707 C11.2741667,16.0372195 11.3908333,15.9957561 11.5908333,15.9377073 C11.7825,15.9128293 11.6408333,16.128439 11.9241667,16.2279512 C12.1991667,16.3191707 12.3325,16.0538049 12.6575,15.9128293 C12.9825,15.7718537 12.6991667,16.103561 13.2075,16.103561 C13.7158333,16.103561 13.5491667,15.9791707 13.9741667,15.7469756 C14.0741667,15.6889268 14.1908333,15.970878 14.5741667,15.9294146 C14.6825,15.9128293 14.8241667,15.8464878 15.1408333,15.7469756 C15.2575,15.7055122 15.7158333,15.8216098 16.1075,15.7220976 C16.4908333,15.6225854 17.9158333,14.270878 18.4325,14.2377073 C19.0658333,13.9142927 19.3741667,13.5991707 19.6991667,13.0850244 C20.0241667,12.570878 20.8325,12.181122 21.0325,11.7913659 C21.0408333,11.7747805 20.8241667,10.5806341 20.8241667,10.5806341 L20.7741667,9.96697561 C20.7741667,9.96697561 18.1158333,10.3318537 18.7408333,6.96502439 C19.1575,4.93331707 18.7408333,3.16697561 15.8908333,1.67429268 C13.0408333,0.189902439 7.3075,0.977707317 6.76583333,1.0855122 C4.39916667,1.3757561 0.290833333,5.38112195 5.59916667,7.66990244 C5.64916667,7.76941463 4.96583333,8.7562439 4.96583333,8.7562439 L5.01333333,8.80434146 Z"/>
      <path fill="#05361A" d="M12.4483333,1.65604878 C9.935,1.49434146 7.84833333,1.58721951 7.49833333,1.65604878 C4.74833333,2.06653659 1.96,4.93995122 6.63583333,6.84726829 L9.3475,8.78609756 L12.7091667,4.2815122 L12.4508333,1.65604878 L12.4483333,1.65604878 Z"/>
    </g>
    <g transform="translate(7.967 .896)">
      <path fill="#FFFFFF" stroke="#231F20" stroke-width=".14" d="M7.29166667,9.8284878 L1.7,6.9177561 C1.325,7.30336585 0.519166667,8.26946341 0.586666667,9.44039024 C0.795,9.72234146 0.945,9.38482927 0.945,9.38482927 C0.945,9.38482927 0.353333333,11.5823902 1.32583333,12.4697073 C1.6175,12.7309268 1.82583333,12.5990732 1.93416667,12.7873171 C2.18416667,13.204439 2.2425,13.3180488 2.2425,13.3180488 C2.2425,13.3180488 2.7425,13.2417561 3.57583333,13.2417561 C3.6175,13.5469268 3.08416667,13.7517561 3.3675,13.983122 C3.65083333,14.2153171 4.4925,14.0395122 4.4925,14.0395122 C4.4925,14.0395122 5.25916667,14.1332195 5.5425,14.2260976 C6.00083333,14.3007317 6.45916667,13.8653659 6.45916667,13.8653659 C6.45916667,13.8653659 6.55916667,14.2634146 6.8425,14.2634146 C7.70083333,13.964878 8.50916667,14.3198049 8.6675,14.3198049 C8.90083333,14.2260976 9.65083333,13.9217561 10.0175,13.9217561 C10.3925,13.9217561 10.6425,13.983122 11.3341667,13.621561 C11.7508333,13.2840488 12.1341667,12.5061951 12.2258333,12.5816585 C12.5175,12.4879512 12.4758333,13.1107317 12.4591667,13.0916585 C12.9175,12.9797073 13.0841667,11.5973171 13.0841667,11.5973171 C13.0841667,11.5973171 13.5675,10.326878 13.9258333,11.4845366 C14.2508333,11.501122 14.5591667,9.61868293 14.2341667,9.2455122 C14.2008333,9.146 14.1425,9.0464878 14.0675,8.93868293 L7.32583333,9.826 L7.29166667,9.8284878 Z"/>
      <path fill="#FFD49A" d="M14.0375,8.94282927 C13.7833333,8.53317073 13.1733333,7.98917073 12.6041667,7.30336585 C12.4833333,6.9384878 12.4525,6.65653659 12.415,6.33809756 C12.2566667,6.09180488 12.1733333,6.04536585 11.9766667,5.72858537 C11.5125,4.97809756 11.8266667,4.82468293 11.6516667,3.49785366 C11.0816667,2.21414634 10.9558333,1.92721951 9.79083333,1.05565854 C9.5825,0.98102439 8.64916667,0.622780488 7.82416667,0.737219512 C6.09916667,0.969414634 4.94916667,1.83185366 4.34083333,3.24990244 C3.81583333,5.80404878 1.7825,6.79917073 1.7825,6.79917073 L1.6325,6.96502439 C1.6325,6.96502439 0.9575,10.190878 4.3075,11.1279512 C5.3075,11.1777073 5.54916667,11.2357561 5.87416667,11.1279512 C6.19083333,11.0201463 6.4825,10.5889268 7.7575,11.526 C9.91583333,12.1147805 10.3491667,11.550878 11.2908333,11.343561 C12.5325,11.0699024 14.0491667,8.97185366 14.0075,8.92209756 L14.0375,8.94282927 Z"/>
      <path fill="#FFFFFF" stroke="#231F20" stroke-width=".14" d="M8.15333333,3.74829268 C8.15333333,3.17609756 8.52,2.71170732 8.97333333,2.71170732 C9.42666667,2.71170732 9.665,3.17609756 9.665,3.74829268 C9.665,4.32214634 9.42666667,4.78653659 8.97333333,4.78653659 C8.52083333,4.78653659 8.15333333,4.32214634 8.15333333,3.74995122 L8.15333333,3.74829268 Z"/>
      <path fill="#231F20" stroke="#231F20" stroke-width=".14" d="M9.05,3.18853659 C9.13083333,3.26980488 9.1775,3.37263415 9.1775,3.48458537 C9.1775,3.74995122 9.0175,3.8942439 8.6225,4.01531707 C8.45416667,4.06673171 8.295,4.14136585 8.185,4.046 C8.185,4.046 8.14166667,3.6562439 8.19666667,3.37429268 L9.05,3.18356098 L9.05,3.18853659 Z"/>
      <path fill="#FFD49A" d="M8.15333333,3.62141463 C8.195,3.18604878 8.52,2.71170732 8.97333333,2.71170732 C9.42666667,2.71170732 9.67083333,3.15453659 9.665,3.55756098 C9.67333333,3.59073171 9.32833333,3.48956098 8.875,3.48956098 C8.42166667,3.48956098 8.13,3.63385366 8.15333333,3.6222439"/>
      <path stroke="#231F20" stroke-width=".14" d="M8.15333333,3.62141463 C8.195,3.18604878 8.52,2.71170732 8.97333333,2.71170732 C9.42666667,2.71170732 9.67083333,3.15453659 9.665,3.55756098 C9.67333333,3.59073171 9.32833333,3.48956098 8.875,3.48956098 C8.42166667,3.48956098 8.13,3.63385366 8.15333333,3.6222439 L8.15333333,3.62141463 Z M6.61666667,1.48190244 C6.42333333,1.48190244 5.92166667,1.58721951 5.74166667,1.9015122 C5.56416667,2.21497561 5.45416667,2.40073171 5.60583333,2.56326829 C5.75833333,2.72912195 6.00166667,2.82863415 6.25583333,2.52180488 C6.51083333,2.22326829 6.52583333,1.92473171 6.69333333,1.85839024 C6.86,1.80034146 7.37083333,1.4437561 6.61833333,1.48521951 L6.61666667,1.48190244 Z M9.64166667,1.76385366 C9.64166667,1.76385366 9.20333333,1.51092683 8.945,1.51092683 C8.68666667,1.51092683 8.45833333,1.79536585 8.67,1.97697561 C8.88416667,2.15941463 9.245,2.44136585 9.30583333,2.48780488 C9.36666667,2.53258537 9.63666667,2.79795122 9.72833333,2.7564878 C9.82,2.71502439 10.185,2.36258537 10.0475,2.21497561 C9.91083333,2.074 9.64083333,1.76717073 9.64083333,1.76717073 L9.64166667,1.76385366 Z"/>
      <path fill="#FFFFFF" d="M5.635,3.78395122 C5.635,3.2117561 6.00166667,2.74736585 6.45583333,2.74736585 C6.90833333,2.74736585 7.1475,3.2117561 7.1475,3.78395122 C7.1475,4.35614634 6.90833333,4.82053659 6.45583333,4.82053659 C6.0025,4.82053659 5.635,4.35614634 5.635,3.78395122"/>
      <path stroke="#231F20" stroke-width=".14" d="M5.635,3.78395122 C5.635,3.2117561 6.00166667,2.74736585 6.45583333,2.74736585 C6.90833333,2.74736585 7.1475,3.2117561 7.1475,3.78395122 C7.1475,4.35614634 6.90833333,4.82053659 6.45583333,4.82053659 C6.0025,4.82053659 5.635,4.35614634 5.635,3.78395122 Z"/>
      <path fill="#231F20" stroke="#231F20" stroke-width=".14" d="M6.53166667,3.22336585 C6.6125,3.30463415 6.65916667,3.40746341 6.65916667,3.51941463 C6.65916667,3.78478049 6.50083333,3.92907317 6.10916667,4.05014634 C5.9425,4.10156098 5.78416667,4.17619512 5.67583333,4.08082927 C5.67583333,4.08082927 5.63416667,3.69936585 5.6925,3.41741463 L6.55083333,3.22668293 L6.53166667,3.22336585 Z"/>
      <path fill="#FFD49A" d="M5.635,3.65707317 C5.67666667,3.22087805 6.00166667,2.74653659 6.45583333,2.74653659 C6.90833333,2.74653659 7.1525,3.18936585 7.1475,3.59239024 C7.15583333,3.62556098 6.81,3.52439024 6.35583333,3.52439024 C5.90416667,3.52439024 5.61166667,3.66868293 5.635,3.65707317"/>
      <path stroke="#231F20" stroke-width=".14" d="M5.635,3.65707317 C5.67666667,3.22087805 6.00166667,2.74653659 6.45583333,2.74653659 C6.90833333,2.74653659 7.1525,3.18936585 7.1475,3.59239024 C7.15583333,3.62556098 6.81,3.52439024 6.35583333,3.52439024 C5.90416667,3.52439024 5.61166667,3.66868293 5.635,3.65707317 Z"/>
      <g transform="translate(3.333 4.146)">
        <mask id="d" fill="white">
          <use xlink:href="#c"/>
        </mask>
        <g transform="translate(-.833 -.83)" mask="url(#d)">
          <path fill="#FFD49A" d="M3.89166667,2.24731707 C3.89166667,1.34009756 3.15166667,0.605365854 2.24166667,0.605365854 C1.33083333,0.605365854 0.591666667,1.34009756 0.591666667,2.24731707 C0.591666667,3.15287805 1.33083333,3.88760976 2.24166667,3.88760976 C3.15166667,3.88760976 3.89166667,3.15287805 3.89166667,2.24565854 M3.53083333,2.25395122 C3.53083333,2.95882927 2.95583333,3.53102439 2.2475,3.53102439 C1.53916667,3.53102439 0.964166667,2.95882927 0.964166667,2.25395122 C0.964166667,1.54907317 1.53916667,0.976878049 2.2475,0.976878049 C2.95583333,0.976878049 3.53083333,1.54907317 3.53083333,2.25395122"/>
          <path fill="#FCC49A" d="M3.525,2.24731707 C3.525,1.54243902 2.95,0.970243902 2.24166667,0.970243902 C1.53333333,0.970243902 0.958333333,1.54243902 0.958333333,2.24731707 C0.958333333,2.95219512 1.53333333,3.52273171 2.24166667,3.52273171 C2.95,3.52273171 3.525,2.95053659 3.525,2.24565854 M3.16416667,2.25395122 C3.16416667,2.7564878 2.75416667,3.16614634 2.2475,3.16614634 C1.7425,3.16614634 1.33083333,2.7564878 1.33083333,2.25395122 C1.33083333,1.7497561 1.7425,1.3417561 2.2475,1.3417561 C2.75416667,1.3417561 3.16416667,1.7497561 3.16416667,2.25395122"/>
          <path fill="#FAB598" d="M3.15833333,2.24731707 C3.15833333,1.74312195 2.74666667,1.33512195 2.24166667,1.33512195 C1.735,1.33512195 1.325,1.74312195 1.325,2.24731707 C1.325,2.74985366 1.735,3.1595122 2.24166667,3.1595122 C2.74666667,3.1595122 3.15833333,2.74985366 3.15833333,2.24731707 M2.7975,2.25312195 C2.7975,2.55497561 2.55166667,2.80043902 2.2475,2.80043902 C1.94416667,2.80043902 1.6975,2.55497561 1.6975,2.25312195 C1.6975,1.95126829 1.94416667,1.70580488 2.2475,1.70580488 C2.55166667,1.70580488 2.7975,1.95126829 2.7975,2.25312195"/>
          <path fill="#F8A596" d="M2.79166667,2.24731707 C2.79166667,1.94463415 2.54416667,1.7 2.24166667,1.7 C1.9375,1.7 1.69166667,1.94463415 1.69166667,2.24731707 C1.69166667,2.54834146 1.9375,2.79463415 2.24166667,2.79463415 C2.54416667,2.79463415 2.79166667,2.54834146 2.79166667,2.24731707 M2.43083333,2.25312195 C2.43083333,2.35429268 2.34916667,2.43556098 2.2475,2.43556098 C2.1475,2.43556098 2.06416667,2.35429268 2.06416667,2.25312195 C2.06416667,2.15360976 2.1475,2.07068293 2.2475,2.07068293 C2.34916667,2.07068293 2.43083333,2.15360976 2.43083333,2.25312195"/>
          <path fill="#F69694" d="M2.425,2.24731707 C2.425,2.14614634 2.34166667,2.06487805 2.24166667,2.06487805 C2.14,2.06487805 2.05833333,2.14614634 2.05833333,2.24731707 C2.05833333,2.34682927 2.14,2.4297561 2.24166667,2.4297561 C2.34166667,2.4297561 2.425,2.34682927 2.425,2.24731707"/>
        </g>
      </g>
      <g transform="translate(8.333 3.317)">
        <mask id="f" fill="white">
          <use xlink:href="#e"/>
        </mask>
        <g mask="url(#f)">
          <path fill="#FFD49A" d="M4.06166667,2.24731707 C4.06166667,1.15102439 3.16833333,0.26204878 2.06666667,0.26204878 C0.966666667,0.26204878 0.0725,1.15102439 0.0725,2.2464878 C0.0725,3.34112195 0.965833333,4.22843902 2.06666667,4.22843902 C3.16833333,4.22843902 4.06166667,3.34112195 4.06166667,2.23819512 M3.605,2.23819512 C3.605,3.08404878 2.91,3.78063415 2.05333333,3.78063415 C1.1975,3.78063415 0.503333333,3.08404878 0.503333333,2.23819512 C0.503333333,1.38404878 1.1975,0.687463415 2.05333333,0.687463415 C2.91,0.687463415 3.605,1.3757561 3.605,2.22990244"/>
          <path fill="#FCC49A" d="M3.61833333,2.24731707 C3.61833333,1.39317073 2.92333333,0.702390244 2.06666667,0.702390244 C1.21083333,0.702390244 0.516666667,1.394 0.516666667,2.2464878 C0.516666667,3.09234146 1.21083333,3.78892683 2.06666667,3.78892683 C2.92333333,3.78892683 3.61833333,3.09234146 3.61833333,2.2464878 M3.16166667,2.2464878 C3.16166667,2.85185366 2.665,3.34941463 2.05333333,3.34941463 C1.44166667,3.34941463 0.945,2.85185366 0.945,2.2464878 C0.945,1.63282927 1.44166667,1.14356098 2.05333333,1.14356098 C2.665,1.14356098 3.16166667,1.63282927 3.16166667,2.2464878"/>
          <path fill="#FAB598" d="M3.175,2.24731707 C3.175,1.63780488 2.67833333,1.14439024 2.06666667,1.14439024 C1.455,1.14439024 0.958333333,1.63780488 0.958333333,2.24731707 C0.958333333,2.85517073 1.455,3.3502439 2.06666667,3.3502439 C2.67833333,3.3502439 3.175,2.85517073 3.175,2.24731707 M2.71833333,2.24731707 C2.71833333,2.61219512 2.42,2.9082439 2.05333333,2.9082439 C1.68666667,2.9082439 1.38833333,2.61136585 1.38833333,2.2464878 C1.38833333,1.88160976 1.68666667,1.58307317 2.05333333,1.58307317 C2.42,1.58307317 2.71833333,1.88160976 2.71833333,2.2464878"/>
          <path fill="#F8A596" d="M2.73166667,2.24731707 C2.73166667,1.88243902 2.43416667,1.58390244 2.06666667,1.58390244 C1.7,1.58390244 1.40166667,1.88243902 1.40166667,2.24731707 C1.40166667,2.61219512 1.7,2.9082439 2.06666667,2.9082439 C2.43333333,2.9082439 2.73166667,2.61136585 2.73166667,2.2464878 M2.275,2.2464878 C2.275,2.36258537 2.175,2.46209756 2.05333333,2.46209756 C1.93083333,2.46209756 1.83166667,2.36258537 1.83166667,2.23819512 C1.83166667,2.11380488 1.93166667,2.01429268 2.05333333,2.01429268 C2.17583333,2.01429268 2.275,2.11380488 2.275,2.22990244"/>
          <path fill="#F69694" d="M2.28833333,2.24731707 C2.28833333,2.12458537 2.18833333,2.02590244 2.06666667,2.02590244 C1.94416667,2.02590244 1.845,2.12541463 1.845,2.2464878 C1.845,2.36258537 1.945,2.46209756 2.06666667,2.46209756 C2.18916667,2.46209756 2.28833333,2.36258537 2.28833333,2.23819512"/>
        </g>
      </g>
      <path stroke="#231F20" stroke-width=".14" d="M3.825,5.70536585 C3.825,5.70536585 3.795,6.81658537 4.7,6.78673171 C5.60583333,6.75687805 5.7125,5.75014634 5.7125,5.75014634 M4.685,6.80165854 C4.685,6.80165854 5.29,7.02556098 5.38166667,7.4302439 C5.47333333,7.83492683 6.46916667,8.47843902 7.52583333,8.3615122 C8.58416667,8.2437561 9.55916667,8.30097561 10.1425,6.99487805 M9.17583333,5.94170732 C9.17583333,5.94170732 9.4675,7.13087805 10.4425,6.97995122 C11.4258333,6.82819512 11.6925,6.48404878 11.8175,6.12580488"/>
      <g transform="translate(5.833 4.146)">
        <mask id="h" fill="white">
          <use xlink:href="#g"/>
        </mask>
        <g mask="url(#h)">
          <polygon fill="#FFD49A" points=".767 .486 2.546 .486 2.546 .848 .767 .848"/>
          <polygon fill="#FDC99A" points=".767 .846 2.546 .846 2.546 1.207 .767 1.207"/>
          <polygon fill="#FBBF9A" points=".767 1.204 2.546 1.204 2.546 1.566 .767 1.566"/>
          <polygon fill="#FAB598" points=".767 1.563 2.546 1.563 2.546 1.926 .767 1.926"/>
          <polygon fill="#F8AA97" points=".767 1.922 2.546 1.922 2.546 2.285 .767 2.285"/>
          <polygon fill="#F7A096" points=".767 2.28 2.546 2.28 2.546 2.644 .767 2.644"/>
          <polygon fill="#F69694" points=".767 2.64 2.546 2.64 2.546 3.003 .767 3.003"/>
        </g>
      </g>
      <path stroke="#231F20" stroke-width=".14" d="M8.07,4.75834146 C7.52583333,4.42912195 7.02833333,4.86034146 7.02833333,4.86034146 L6.69333333,5.68960976 C6.69333333,5.68960976 6.2825,7.09107317 7.19166667,7.14912195 C8.1,7.21546341 8.23333333,5.82229268 8.26416667,5.5237561 C8.29416667,5.22521951 8.61416667,5.09253659 8.07,4.76082927 L8.07,4.75834146 Z"/>
      <path fill="#FFFFFF" stroke="#231F20" stroke-width=".14" d="M8.05833333 4.97560976C8.05833333 4.49878049 8.44583333 4.11317073 8.92333333 4.11317073 9.40166667 4.11317073 9.79 4.49878049 9.79 4.97560976 9.79 5.45078049 9.40166667 5.83556098 8.92333333 5.83556098 8.44583333 5.83556098 8.05833333 5.45078049 8.05833333 4.97478049L8.05833333 4.97560976zM5.28333333 5.00878049C5.28333333 4.53443902 5.67083333 4.14882927 6.14833333 4.14882927 6.62666667 4.14882927 7.015 4.53443902 7.015 5.00960976 7.015 5.49058537 6.62666667 5.87204878 6.14833333 5.87204878 5.67083333 5.87204878 5.28333333 5.49058537 5.28333333 5.00960976L5.28333333 5.00878049z"/>
      <path stroke="#231F20" stroke-width=".14" d="M14.0375,8.94282927 C13.7833333,8.53317073 13.1733333,7.98917073 12.6041667,7.30336585 C12.4833333,6.9384878 12.4525,6.65653659 12.415,6.33809756 C12.2566667,6.09180488 12.1733333,6.04536585 11.9766667,5.72858537 C11.5125,4.97809756 11.8266667,4.82468293 11.6516667,3.49785366 C11.0816667,2.21414634 10.9558333,1.92721951 9.79083333,1.05565854 C9.5825,0.98102439 8.64916667,0.622780488 7.82416667,0.737219512 C6.09916667,0.969414634 4.94916667,1.83185366 4.34083333,3.24990244 C3.81583333,5.80404878 1.7825,6.79917073 1.7825,6.79917073 L1.6325,6.96502439 C1.6325,6.96502439 0.9575,10.190878 4.3075,11.1279512 C5.3075,11.1777073 5.54916667,11.2357561 5.87416667,11.1279512 C6.19083333,11.0201463 6.4825,10.5889268 7.7575,11.526 C9.91583333,12.1147805 10.3491667,11.550878 11.2908333,11.343561 C12.5325,11.0699024 14.0491667,8.97185366 14.0075,8.92209756 L14.0375,8.94282927 Z"/>
    </g>
    <path fill="#231F20" d="M24.8783333,23.3389268 C24.8783333,24.4186341 25.745,25.2246829 26.7783333,25.2246829 C27.8075,25.2246829 28.67,24.4186341 28.67,23.3389268 C28.67,22.2816098 27.8075,21.4730732 26.7783333,21.4730732 C25.745,21.4730732 24.8783333,22.2816098 24.8783333,23.3389268 L24.8783333,23.3389268 Z M25.22,23.3389268 C25.22,22.4416585 25.8966667,21.7492195 26.7783333,21.7492195 C27.6508333,21.7492195 28.3266667,22.4416585 28.3266667,23.3389268 C28.3266667,24.2569268 27.6516667,24.9501951 26.7783333,24.9501951 C25.8966667,24.9501951 25.22,24.2569268 25.22,23.3389268 L25.22,23.3389268 Z M26.0425,24.4435122 L26.3925,24.4435122 L26.3925,23.4998049 L26.7591667,23.4998049 L27.3591667,24.4435122 L27.7258333,24.4435122 L27.1008333,23.4749268 C27.4341667,23.4392683 27.6841667,23.2742439 27.6841667,22.8778537 C27.6841667,22.4549268 27.4425,22.2509268 26.9175,22.2509268 L26.0675,22.2509268 L26.0675,24.4435122 L26.0425,24.4435122 Z M26.3925,22.5262439 L26.8508333,22.5262439 C27.0841667,22.5262439 27.3341667,22.5726829 27.3341667,22.8620976 C27.3341667,23.2020976 27.0591667,23.2186829 26.7591667,23.2186829 L26.4008333,23.2186829 L26.4008333,22.5220976 L26.3925,22.5262439 Z"/>
    <path fill="#000000" d="M41.69 31.7178537L41.545 31.5470244C41.2533333 31.8306341 40.9966667 31.9749268 40.7058333 31.9749268 40.2916667 31.9749268 40.0283333 31.6805366 40.0283333 31.1829756 40.0283333 30.3479024 40.4966667 29.7980976 41.0016667 29.7980976 41.2708333 29.7980976 41.4433333 29.9639512 41.4433333 30.1928293 41.4433333 30.2923415 41.4208333 30.4001463 41.3891667 30.5245366L41.6416667 30.5742927 41.83 29.6040488 41.5766667 29.5625854 41.5183333 29.8362439C41.4158333 29.6538049 41.2166667 29.5542927 40.9533333 29.5542927 40.6366667 29.5542927 40.3566667 29.6620976 40.12 29.8694146 39.7433333 30.201122 39.5391667 30.6489268 39.5391667 31.1464878 39.5391667 31.7850244 39.9583333 32.1996585 40.625 32.1996585 41.0125 32.1996585 41.3833333 32.0255122 41.69 31.6855122M43.2183333 32.2311707C43.9983333 32.2311707 44.6216667 31.5677561 44.6216667 30.7119512 44.6216667 30.0427317 44.18 29.5775122 43.5633333 29.5775122 43.1591667 29.5775122 42.805 29.7433659 42.5358333 30.0535122 42.2941667 30.3437561 42.1591667 30.7086341 42.1591667 31.0818049 42.1591667 31.7783902 42.6008333 32.2427805 43.2258333 32.2427805L43.2183333 32.2311707zM43.2091667 32.0437561C42.8508333 32.0437561 42.6508333 31.7866829 42.6508333 31.289122 42.6508333 30.8496098 42.7841667 30.4266829 43.0091667 30.1281463 43.1675 29.9125366 43.3675 29.8047317 43.5841667 29.8047317 43.9508333 29.8047317 44.1508333 30.0700976 44.1508333 30.5676585 44.1508333 31.1232683 43.9341667 31.629122 43.6508333 31.8861951 43.5258333 31.994 43.3841667 32.0520488 43.2258333 32.0520488L43.2091667 32.0437561zM44.8925 32.1930244C45.0675 32.1847317 45.2425 32.176439 45.4258333 32.176439 45.6091667 32.176439 45.8008333 32.1847317 45.9841667 32.1930244L46.0258333 31.9857073 45.6925 31.9857073 45.9508333 30.7086341C46.0508333 30.1861951 46.4508333 29.8876585 46.8508333 29.8876585 47.0925 29.8876585 47.2341667 30.0120488 47.2341667 30.2193659 47.2341667 30.318878 47.2175 30.4598537 47.1675 30.6505854L46.9258333 31.6457073C46.9008333 31.7618049 46.8841667 31.8530244 46.8841667 31.9359512 46.8841667 32.1432683 47.0175 32.2676585 47.2675 32.2676585 47.4841667 32.2676585 47.7008333 32.176439 47.8841667 31.994L47.7758333 31.836439C47.6508333 31.9608293 47.5425 32.0354634 47.4591667 32.0354634 47.3758333 32.0354634 47.3258333 31.994 47.3258333 31.9193659 47.3258333 31.8696098 47.3425 31.7783902 47.3758333 31.654L47.6591667 30.5344878C47.6841667 30.4266829 47.7008333 30.3271707 47.7008333 30.2442439 47.7008333 29.8793659 47.4508333 29.638878 47.0425 29.638878 46.6841667 29.638878 46.4091667 29.7881463 46.1008333 30.0949756L46.1925 29.638878C45.9341667 29.6803415 45.6758333 29.7052195 45.4175 29.7052195L45.3758333 29.9125366 45.7091667 29.9125366 45.3008333 32.018878 44.9758333 32.018878 44.9341667 32.2344878 44.8925 32.1930244zM49.6008333 32.1930244C49.7758333 32.1847317 49.9508333 32.176439 50.1341667 32.176439 50.3175 32.176439 50.5091667 32.1847317 50.6925 32.1930244L50.7341667 31.9857073 50.4008333 31.9857073 50.6591667 30.7086341C50.7091667 30.4681463 50.7675 30.3022927 50.9841667 30.1198537 51.1675 29.9705854 51.3508333 29.8959512 51.4841667 29.8959512 51.7091667 29.8959512 51.8258333 30.0120488 51.8258333 30.1779024 51.8258333 30.2525366 51.8175 30.4183902 51.7675 30.6422927L51.5008333 31.994 51.1758333 31.994 51.1341667 32.2013171C51.3091667 32.1930244 51.4841667 32.1847317 51.6675 32.1847317 51.8508333 32.1847317 52.0425 32.1930244 52.2258333 32.2013171L52.2675 31.994 51.9425 31.994 52.1925 30.7169268C52.3008333 30.1944878 52.6758333 29.9042439 53.0508333 29.9042439 53.2591667 29.9042439 53.3841667 30.0203415 53.3841667 30.2276585 53.3841667 30.3271707 53.3591667 30.476439 53.3175 30.658878L53.0675 31.654C53.0425 31.7700976 53.0175 31.8613171 53.0175 31.9442439 53.0175 32.1598537 53.1508333 32.2759512 53.4008333 32.2759512 53.6175 32.2759512 53.8425 32.1847317 54.0175 32.0022927L53.9091667 31.8447317C53.7841667 31.969122 53.6841667 32.0354634 53.5925 32.0354634 53.5091667 32.0354634 53.4675 32.0022927 53.4675 31.9193659 53.4675 31.8696098 53.4841667 31.7783902 53.5175 31.654L53.8008333 30.5344878C53.8258333 30.4183902 53.8341667 30.318878 53.8341667 30.2359512 53.8341667 29.8710732 53.5758333 29.6305854 53.2091667 29.6305854 52.8925 29.6305854 52.6008333 29.796439 52.2591667 30.111561 52.2258333 29.8130244 52.0091667 29.6305854 51.6925 29.6305854 51.3758333 29.6305854 51.1258333 29.7881463 50.8091667 30.0866829L50.9008333 29.6305854C50.6425 29.6720488 50.3841667 29.6969268 50.1258333 29.6969268L50.0841667 29.9042439 50.4091667 29.9042439 50.0008333 32.0105854 49.6758333 32.0105854 49.6341667 32.2179024 49.6008333 32.1930244zM56.3508333 31.2393659C56.2758333 31.6457073 55.8925 32.0105854 55.5591667 32.0105854 55.2008333 32.0105854 54.9675 31.7369268 54.9675 31.2725366 54.9675 30.8827805 55.1091667 30.4598537 55.3341667 30.1696098 55.5008333 29.954 55.7091667 29.8461951 55.9258333 29.8461951 56.2508333 29.8461951 56.4925 30.111561 56.4925 30.451561 56.4925 30.5013171 56.4925 30.5510732 56.4758333 30.6008293L56.3508333 31.2559512 56.3508333 31.2393659zM56.6591667 29.6720488L56.5675 30.0783902C56.4591667 29.7798537 56.2008333 29.614 55.8508333 29.614 55.5175 29.614 55.1925 29.7549756 54.9675 30.0120488 54.6591667 30.3603415 54.4841667 30.816439 54.4841667 31.2642439 54.4841667 31.9027805 54.8258333 32.2759512 55.3675 32.2759512 55.7258333 32.2759512 56.0175 32.1266829 56.2758333 31.811561 56.2758333 31.8696098 56.2675 31.9110732 56.2675 31.9608293 56.2675 32.1847317 56.3508333 32.2842439 56.5591667 32.2842439 56.7091667 32.2842439 56.8758333 32.2261951 57.0675 32.1183902L57.0841667 31.8944878C56.9758333 31.9774146 56.8841667 32.018878 56.8258333 32.018878 56.7425 32.018878 56.6925 31.969122 56.6925 31.8861951 56.6925 31.8530244 56.7008333 31.7369268 56.7341667 31.5627805L57.1091667 29.638878 56.6758333 29.7135122 56.6591667 29.6720488zM59.9508333 28.8179024L59.7091667 30.0783902C59.6008333 29.7798537 59.3425 29.614 58.9925 29.614 58.6591667 29.614 58.3341667 29.7632683 58.1091667 30.0120488 57.8008333 30.3603415 57.6175 30.816439 57.6175 31.2642439 57.6175 31.9027805 57.9675 32.2759512 58.5008333 32.2759512 58.8675 32.2759512 59.1508333 32.1266829 59.4091667 31.811561 59.4091667 31.8696098 59.4008333 31.9110732 59.4008333 31.9608293 59.4008333 32.1847317 59.4925 32.2842439 59.7008333 32.2842439 59.8508333 32.2842439 60.0175 32.2261951 60.2175 32.1183902L60.2341667 31.8944878C60.1175 31.9774146 60.0341667 32.018878 59.9758333 32.018878 59.8841667 32.018878 59.8425 31.969122 59.8425 31.8779024 59.8425 31.8447317 59.8591667 31.7286341 59.8925 31.5461951L60.4675 28.5608293C60.2091667 28.6022927 59.9508333 28.6271707 59.6925 28.6271707L59.6175 28.6271707 59.5758333 28.8344878 59.9925 28.8344878 59.9508333 28.8179024zM59.4841667 31.2476585C59.4091667 31.6457073 59.0258333 32.0105854 58.6925 32.0105854 58.3341667 32.0105854 58.1008333 31.7369268 58.1008333 31.2725366 58.1008333 30.8827805 58.2508333 30.4598537 58.4758333 30.1696098 58.6425 29.954 58.8508333 29.8379024 59.0675 29.8379024 59.3925 29.8379024 59.6341667 30.1032683 59.6341667 30.4432683 59.6341667 30.4930244 59.6341667 30.5427805 59.6175 30.5925366L59.5008333 31.2476585 59.4841667 31.2476585zM62.9925 31.6954634L62.8341667 31.5544878C62.5841667 31.8613171 62.3091667 32.0105854 61.9841667 32.0105854 61.5091667 32.0105854 61.2425 31.7286341 61.2258333 31.1813171L63.2175 30.7252195C63.2091667 30.0203415 62.8175 29.6222927 62.1258333 29.6222927 61.7758333 29.6222927 61.4091667 29.7798537 61.1508333 30.0700976 60.9008333 30.3437561 60.7508333 30.7252195 60.7508333 31.131561 60.7508333 31.811561 61.1925 32.2759512 61.8591667 32.2759512 62.3258333 32.2759512 62.7091667 32.0852195 63.0008333 31.7037561L62.9925 31.6954634zM61.2508333 30.9657073C61.3425 30.2359512 61.6758333 29.8461951 62.1508333 29.8461951 62.5091667 29.8461951 62.7591667 30.1281463 62.7591667 30.6174146L61.2591667 30.974 61.2508333 30.9657073zM64.5258333 30.1281463L64.6508333 29.6305854C64.4175 29.6720488 64.1841667 29.6969268 63.9675 29.6969268L63.9008333 29.6969268 63.8591667 29.9042439 64.1841667 29.9042439 63.7758333 32.018878 63.4508333 32.018878 63.4091667 32.2261951C63.5925 32.2096098 63.7758333 32.2096098 63.9675 32.2096098 64.1591667 32.2096098 64.3508333 32.2096098 64.5508333 32.2261951L64.6008333 32.018878 64.1841667 32.018878 64.4341667 30.7335122C64.5175 30.2774146 64.7091667 30.0535122 65.0425 30.0535122 65.1341667 30.0535122 65.2341667 30.0783902 65.3341667 30.1281463L65.4675 29.6720488C65.3925 29.6471707 65.3175 29.638878 65.2508333 29.638878 65.0008333 29.638878 64.7925 29.8130244 64.5008333 30.1447317L64.5258333 30.1281463zM67.3675 31.2725366C67.2925 31.6705854 66.9091667 32.0354634 66.5758333 32.0354634 66.2175 32.0354634 65.9841667 31.7618049 65.9841667 31.2974146 65.9841667 30.9076585 66.1258333 30.4847317 66.3508333 30.1944878 66.5175 29.978878 66.7175 29.8710732 66.9425 29.8710732 67.2675 29.8710732 67.5091667 30.136439 67.5091667 30.476439 67.5091667 30.5261951 67.5008333 30.5759512 67.4925 30.6257073L67.3675 31.2808293 67.3675 31.2725366zM67.6841667 29.6969268L67.5925 30.1032683C67.4841667 29.8047317 67.2258333 29.638878 66.8758333 29.638878 66.5425 29.638878 66.2091667 29.7798537 65.9841667 30.0369268 65.6758333 30.3852195 65.5008333 30.8413171 65.5008333 31.2808293 65.5008333 31.9193659 65.8425 32.2925366 66.3841667 32.2925366 66.7425 32.2925366 67.0341667 32.1432683 67.2925 31.8281463 67.2925 31.8861951 67.2841667 31.9276585 67.2841667 31.9774146 67.2841667 32.2013171 67.3758333 32.3008293 67.5841667 32.3008293 67.7341667 32.3008293 67.9008333 32.2427805 68.1008333 32.1349756L68.1091667 31.9110732C68.0008333 31.9857073 67.9091667 32.0354634 67.8508333 32.0354634 67.7675 32.0354634 67.7175 31.9857073 67.7175 31.8944878 67.7175 31.8530244 67.7258333 31.7452195 67.7591667 31.5710732L68.1425 29.6471707 67.7091667 29.7218049 67.6841667 29.6969268zM72.4341667 28.8427805L72.1841667 30.1032683C72.0758333 29.8047317 71.8175 29.638878 71.4675 29.638878 71.1341667 29.638878 70.8091667 29.7798537 70.5841667 30.0369268 70.2758333 30.3852195 70.1008333 30.8413171 70.1008333 31.289122 70.1008333 31.9276585 70.4508333 32.3008293 70.9841667 32.3008293 71.3425 32.3008293 71.6258333 32.151561 71.8925 31.836439 71.8841667 31.8861951 71.8841667 31.9359512 71.8841667 31.9774146 71.8841667 32.2013171 71.9758333 32.2983415 72.1841667 32.2983415 72.3341667 32.2983415 72.5008333 32.2402927 72.6925 32.1324878L72.7008333 31.9085854C72.5841667 31.9832195 72.5008333 32.0271707 72.4425 32.0271707 72.3508333 32.0271707 72.3091667 31.9774146 72.3091667 31.8861951 72.3091667 31.8530244 72.3175 31.7369268 72.3508333 31.5544878L72.9258333 28.569122C72.6675 28.6022927 72.4091667 28.6271707 72.1508333 28.6271707L72.0758333 28.6271707 72.0258333 28.8386341 72.4425 28.8386341 72.4341667 28.8427805zM71.9675 31.2725366C71.8925 31.6705854 71.5091667 32.0354634 71.1675 32.0354634 70.8091667 32.0354634 70.5758333 31.7618049 70.5758333 31.2974146 70.5758333 30.9076585 70.7258333 30.4847317 70.9508333 30.1944878 71.1175 29.978878 71.3258333 29.8710732 71.5425 29.8710732 71.8758333 29.8710732 72.1175 30.136439 72.1175 30.476439 72.1175 30.5261951 72.1175 30.5759512 72.1008333 30.6257073L71.9758333 31.2808293 71.9675 31.2725366zM75.4675 31.7120488L75.3091667 31.5710732C75.0591667 31.8779024 74.7841667 32.0271707 74.4591667 32.0271707 73.9841667 32.0271707 73.7175 31.7452195 73.7008333 31.1979024L75.6925 30.7418049C75.6758333 30.0369268 75.2841667 29.638878 74.6008333 29.638878 74.2425 29.638878 73.8841667 29.796439 73.6175 30.0866829 73.3675 30.3603415 73.2175 30.7418049 73.2175 31.1481463 73.2175 31.8281463 73.6591667 32.2925366 74.3258333 32.2925366 74.7841667 32.2925366 75.1758333 32.1018049 75.4591667 31.7203415L75.4675 31.7120488zM73.7091667 30.9822927C73.7925 30.2608293 74.1341667 29.8627805 74.6091667 29.8627805 74.9675 29.8627805 75.2175 30.1447317 75.2175 30.634L73.7091667 30.9822927zM77.2516667 32.1673171C77.4233333 32.1565366 77.6016667 32.1507317 77.785 32.1507317 77.9666667 32.1507317 78.155 32.1565366 78.3433333 32.1673171L78.385 31.9583415 78.0516667 31.9583415 78.3058333 30.6796098C78.4075 30.1555122 78.8058333 29.8561463 79.2033333 29.8561463 79.445 29.8561463 79.585 29.978878 79.585 30.1878537 79.585 30.2840488 79.5641667 30.4283415 79.515 30.6207317L79.2683333 31.610878C79.2408333 31.7269756 79.22 31.8181951 79.22 31.8928293 79.22 32.1001463 79.3533333 32.2245366 79.6016667 32.2245366 79.8166667 32.2245366 80.0366667 32.1250244 80.2141667 31.9425854L80.1058333 31.7850244C79.9775 31.9094146 79.8758333 31.9757561 79.7891667 31.9757561 79.7033333 31.9757561 79.6608333 31.9342927 79.6608333 31.8513659 79.6608333 31.8016098 79.6716667 31.7103902 79.7025 31.586L79.9883333 30.4581951C80.0158333 30.3420976 80.0258333 30.2425854 80.0258333 30.1596585 80.0258333 29.7864878 79.7758333 29.546 79.3758333 29.546 79.0175 29.546 78.7425 29.6869756 78.4341667 30.0020976L78.7008333 28.4762439C78.4341667 28.5177073 78.1675 28.5425854 77.9091667 28.5425854L77.8675 28.7499024 78.2425 28.7499024 77.6425 31.9177073 77.3175 31.9177073 77.2758333 32.1250244 77.2516667 32.1673171zM81.7441667 32.2311707C82.5241667 32.2311707 83.1475 31.5677561 83.1475 30.7119512 83.1475 30.0427317 82.7058333 29.5775122 82.0891667 29.5775122 81.685 29.5775122 81.3308333 29.7433659 81.0616667 30.0535122 80.82 30.3437561 80.685 30.7086341 80.685 31.0818049 80.685 31.7783902 81.1266667 32.2427805 81.7433333 32.2427805L81.7441667 32.2311707zM81.7283333 32.0437561C81.3675 32.0437561 81.17 31.7866829 81.17 31.289122 81.17 30.8496098 81.3033333 30.4266829 81.5241667 30.1281463 81.6741667 29.9125366 81.8825 29.8047317 82.0991667 29.8047317 82.4575 29.8047317 82.6575 30.0700976 82.6575 30.5676585 82.6575 31.1232683 82.4408333 31.629122 82.1491667 31.8861951 82.0241667 31.994 81.8741667 32.0520488 81.7158333 32.0520488L81.7283333 32.0437561zM85.4408333 31.2393659C85.3658333 31.6457073 84.9825 32.0105854 84.6408333 32.0105854 84.2825 32.0105854 84.0408333 31.7369268 84.0408333 31.2725366 84.0408333 30.8827805 84.1825 30.4598537 84.4075 30.1696098 84.5741667 29.954 84.7741667 29.8461951 84.9991667 29.8461951 85.3241667 29.8461951 85.5658333 30.111561 85.5658333 30.451561 85.5658333 30.5013171 85.5575 30.5510732 85.5491667 30.6008293L85.4241667 31.2559512 85.4408333 31.2393659zM85.7491667 29.6720488L85.6575 30.0783902C85.5408333 29.7798537 85.2908333 29.614 84.9325 29.614 84.5991667 29.614 84.2741667 29.7549756 84.0408333 30.0120488 83.7241667 30.3603415 83.5491667 30.816439 83.5491667 31.2642439 83.5491667 31.9027805 83.8908333 32.2759512 84.4325 32.2759512 84.7908333 32.2759512 85.0658333 32.1349756 85.3158333 31.836439L85.2575 32.1349756C85.1158333 32.831561 84.9575 33.1881463 84.5408333 33.1881463 84.2241667 33.1881463 84.0075 32.989122 83.8825 32.6076585L83.4991667 32.9144878C83.7075 33.2379024 84.0408333 33.4037561 84.4575 33.4037561 85.1741667 33.4037561 85.5241667 32.9476585 85.7075 32.0105854L86.1075 29.9208293 86.3491667 29.9208293 86.3908333 29.7052195C86.2825 29.7218049 86.1575 29.7218049 86.0491667 29.7218049 85.9325 29.7218049 85.8241667 29.7218049 85.7158333 29.7052195L85.7491667 29.6720488zM88.5408333 31.2808293C88.4658333 31.6871707 88.0825 32.0520488 87.7408333 32.0520488 87.3825 32.0520488 87.1408333 31.7866829 87.1408333 31.314 87.1408333 30.9242439 87.2825 30.5013171 87.5075 30.2110732 87.6741667 30.0037561 87.8825 29.8876585 88.0991667 29.8876585 88.4241667 29.8876585 88.6658333 30.1530244 88.6658333 30.4930244 88.6658333 30.5427805 88.6575 30.5925366 88.6491667 30.6422927L88.5241667 31.2974146 88.5408333 31.2808293zM88.8491667 29.7135122L88.7575 30.1198537C88.6408333 29.8213171 88.3908333 29.6554634 88.0325 29.6554634 87.6991667 29.6554634 87.3741667 29.8047317 87.1491667 30.0535122 86.8325 30.4018049 86.6575 30.8579024 86.6575 31.3057073 86.6575 31.9442439 86.9991667 32.3174146 87.5325 32.3174146 87.8991667 32.3174146 88.1825 32.1681463 88.4408333 31.8530244 88.4408333 31.9027805 88.4325 31.9525366 88.4325 32.0022927 88.4325 32.2261951 88.5158333 32.3232195 88.7325 32.3232195 88.8825 32.3232195 89.0491667 32.2651707 89.2408333 32.1573659L89.2491667 31.9334634C89.1325 32.0163902 89.0491667 32.0578537 88.9908333 32.0578537 88.8991667 32.0578537 88.8575 32.0080976 88.8575 31.9251707 88.8575 31.892 88.8658333 31.7759024 88.8991667 31.6017561L89.2741667 29.6778537 88.8325 29.7524878 88.8491667 29.7135122zM90.7325 30.1530244L90.8575 29.6554634C90.6158333 29.6969268 90.3908333 29.7218049 90.1658333 29.7218049L90.0991667 29.7218049 90.0575 29.929122 90.3825 29.929122 89.9741667 32.0354634 89.6408333 32.0354634 89.5991667 32.2427805C89.7825 32.2344878 89.9658333 32.2261951 90.1575 32.2261951 90.3491667 32.2261951 90.5408333 32.2344878 90.7408333 32.2427805L90.7825 32.0354634 90.4075 32.0354634 90.6575 30.7583902C90.7408333 30.3022927 90.9325 30.0783902 91.2658333 30.0783902 91.3575 30.0783902 91.4575 30.1032683 91.5575 30.1530244L91.6908333 29.6936098C91.6075 29.6687317 91.5325 29.660439 91.4658333 29.660439 91.2158333 29.660439 91.0075 29.8345854 90.7158333 30.1629756L90.7325 30.1530244zM35.5683333 32.2004878C35.73 32.2004878 35.8583333 32.049561 35.8583333 31.8356098 35.8583333 31.6913171 35.7566667 31.5893171 35.6225 31.5893171 35.4608333 31.5893171 35.3266667 31.7452195 35.3266667 31.9641463 35.3266667 32.1034634 35.435 32.1996585 35.5683333 32.1996585M37.025 32.1996585C37.1866667 32.1996585 37.315 32.0420976 37.315 31.8347805 37.315 31.6855122 37.2133333 31.586 37.0783333 31.586 36.9175 31.586 36.7833333 31.743561 36.7833333 31.9591707 36.7833333 32.1001463 36.8916667 32.1913659 37.025 32.1913659M38.4808333 32.1913659C38.6425 32.1913659 38.7708333 32.0420976 38.7708333 31.8264878 38.7708333 31.6772195 38.6691667 31.5777073 38.535 31.5777073 38.3733333 31.5777073 38.2391667 31.7352683 38.2391667 31.950878 38.2391667 32.083561 38.3475 32.1830732 38.4808333 32.1830732M92.1083333 32.2004878C92.2708333 32.2004878 92.405 32.049561 92.405 31.8356098 92.405 31.6913171 92.3025 31.5893171 92.1683333 31.5893171 92.0066667 31.5893171 91.8725 31.7452195 91.8725 31.9641463 91.8725 32.1034634 91.975 32.1996585 92.1091667 32.1996585M92.1758333 31.221122L92.3508333 31.221122C92.6841667 30.2342927 92.9091667 29.3552683 93.0175 28.550878L92.4841667 28.550878C92.4425 29.4216098 92.3508333 30.3089268 92.1841667 31.2128293"/>
    <path fill="#231F20" d="M95.3766667,11.7698049 C95.3766667,12.8478537 96.2433333,13.655561 97.2766667,13.655561 C98.3058333,13.655561 99.1683333,12.8486829 99.1683333,11.7698049 C99.1683333,10.7116585 98.3058333,9.90395122 97.2766667,9.90395122 C96.2433333,9.90395122 95.3766667,10.7116585 95.3766667,11.7698049 L95.3766667,11.7698049 Z M95.7183333,11.7698049 C95.7183333,10.8717073 96.395,10.1800976 97.2766667,10.1800976 C98.1491667,10.1800976 98.825,10.8717073 98.825,11.7698049 C98.825,12.6878049 98.15,13.3802439 97.2775,13.3802439 C96.3941667,13.3802439 95.7191667,12.6878049 95.7191667,11.7698049 L95.7183333,11.7698049 Z M96.5408333,12.8727317 L96.8825,12.8727317 L96.8825,11.9306829 L97.2408333,11.9306829 L97.8408333,12.873561 L98.2075,12.873561 L97.5741667,11.9049756 C97.8991667,11.8701463 98.1491667,11.7042927 98.1491667,11.3079024 C98.1491667,10.8866341 97.8991667,10.6809756 97.3741667,10.6809756 L96.5158333,10.6809756 L96.5158333,12.873561 L96.5408333,12.8727317 Z M96.8825,10.957122 L97.3325,10.957122 C97.5658333,10.957122 97.8158333,11.0027317 97.8158333,11.2929756 C97.8158333,11.6396098 97.5408333,11.6545366 97.2325,11.6545366 L96.8741667,11.6545366 L96.8741667,10.9579512 L96.8825,10.957122 Z"/>
    <polygon fill="#231F20" stroke="#231F20" stroke-width=".13" points="37.495 9.064 50.145 9.064 50.145 12.184 41.2 12.184 41.2 16.268 49.03 16.268 49.03 19.351 41.198 19.351 41.198 26.795 37.493 26.795 37.493 9.066"/>
    <path fill="#231F20" d="M58.6291667 23.302439C59.1708333 22.5867805 59.44 21.5709268 59.44 20.2540488 59.44 18.9371707 59.17 17.9254634 58.6291667 17.2189268 58.0875 16.5040976 57.3125 16.1475122 56.3041667 16.1466829 55.2958333 16.1466829 54.5175 16.511561 53.9691667 17.2247317 53.4275 17.9296098 53.1583333 18.9413171 53.1583333 20.2598537 53.1583333 21.5783902 53.4283333 22.5983902 53.9691667 23.311561 54.5175 24.0247317 55.2966667 24.3896098 56.305 24.3896098 57.3133333 24.3896098 58.0883333 24.0330244 58.63 23.3198537M61.3883333 25.2271707C60.2758333 26.5954634 58.5841667 27.2754634 56.3175 27.2754634 54.0508333 27.2754634 52.3591667 26.5954634 51.2508333 25.2271707 50.1425 23.8505854 49.5841667 22.2003415 49.5841667 20.276439 49.5841667 18.3857073 50.1425 16.7437561 51.2591667 15.3505854 52.3758333 13.9657073 54.0675 13.269122 56.3341667 13.269122 58.6008333 13.269122 60.2925 13.9657073 61.4091667 15.358878 62.5258333 16.7520488 63.0841667 18.394 63.0841667 20.2847317 63.0841667 22.2169268 62.5341667 23.8671707 61.4175 25.2354634M71.245 13.3644878C71.2933333 13.3644878 71.395 13.3686341 71.5475 13.3760976L71.5475 16.8938537C71.3308333 16.8689756 71.1358333 16.8540488 70.9666667 16.8457561 70.7975 16.8374634 70.66 16.8341463 70.555 16.8333171 69.1666667 16.8333171 68.235 17.281122 67.7591667 18.1767317 67.4925 18.6825854 67.3591667 19.4620976 67.3591667 20.5152683L67.3591667 26.7845366 63.8925 26.7845366 63.8925 13.6572195 67.1841667 13.6572195 67.1841667 15.946C67.7175 15.0669756 68.1841667 14.4699024 68.5758333 14.1464878 69.2258333 13.6074634 70.0675 13.3338049 71.0925 13.3338049 71.1591667 13.3338049 71.2091667 13.3338049 71.2508333 13.3420976M76.7716667 16.8938537C76.3358333 17.3914146 76.0616667 18.066439 75.9483333 18.9172683L81.3108333 18.9172683C81.2541667 18.0100488 80.9758333 17.3234146 80.4758333 16.8573659 79.9841667 16.3846829 79.3758333 16.1475122 78.6425 16.1466829 77.8425 16.1466829 77.2258333 16.4037561 76.7841667 16.9013171L76.7716667 16.8938537zM81.6175 13.9408293C82.5008333 14.3554634 83.2258333 15.0022927 83.8008333 15.8813171 84.3175 16.6608293 84.6508333 17.5647317 84.8091667 18.5930244 84.9008333 19.1983902 84.9341667 20.0608293 84.9175 21.1969268L75.8841667 21.1969268C75.9341667 22.5154634 76.3508333 23.4359512 77.1341667 23.9666829 77.6091667 24.2983902 78.1841667 24.4642439 78.8508333 24.4642439 79.5591667 24.4642439 80.1425 24.2652195 80.5841667 23.858878 80.8258333 23.6432683 81.0425 23.3447317 81.2258333 22.9549756L84.7508333 22.9549756C84.6675 23.7344878 84.2591667 24.5305854 83.5341667 25.3349756 82.4091667 26.6120488 80.8258333 27.2505854 78.7925 27.2505854 77.1175 27.2505854 75.6341667 26.711561 74.3508333 25.6335122 73.0675 24.5554634 72.4258333 22.8057073 72.4258333 20.3842439 72.4258333 18.1120488 73.0008333 16.3705854 74.1591667 15.1598537 75.3175 13.949122 76.8258333 13.3437561 78.6758333 13.3437561 79.7758333 13.3437561 80.7675 13.5510732 81.6425 13.9574146L81.6175 13.9408293zM83.0508333 8.32668293L79.3758333 11.934 76.8841667 11.934 79.2091667 8.33497561 83.0591667 8.33497561 83.0508333 8.32668293z"/>
    <path fill="#231F20" stroke="#231F20" stroke-width=".13" d="M88.6666667,22.6033659 C88.7383333,23.2137073 88.8958333,23.6482439 89.1375,23.9053171 C89.565,24.3614146 90.3566667,24.591122 91.5108333,24.591122 C92.1883333,24.591122 92.725,24.4916098 93.1191667,24.2892683 C93.5233333,24.0902439 93.725,23.787561 93.7258333,23.3853659 C93.7258333,23.0005854 93.5675,22.7078537 93.2425,22.5063415 C92.9258333,22.3073171 91.7258333,21.9615122 89.6508333,21.4714146 C88.1591667,21.101561 87.1091667,20.6404878 86.4925,20.0865366 C85.8841667,19.5392195 85.5758333,18.7530732 85.5758333,17.7247805 C85.5758333,16.5123902 86.0591667,15.4733171 87.0091667,14.6050732 C87.9758333,13.7301951 89.3175,13.2931707 91.0508333,13.2923415 C92.7008333,13.2923415 94.0425,13.6157561 95.0675,14.2791707 C96.1091667,14.926 96.7091667,16.0538049 96.8591667,17.6625854 L93.4091667,17.6625854 C93.3591667,17.2147805 93.2341667,16.8664878 93.0341667,16.6094146 C92.6591667,16.1450244 92.0091667,15.9128293 91.1008333,15.9128293 C90.3508333,15.9128293 89.8175,16.0289268 89.4925,16.261122 C89.1758333,16.4933171 89.0258333,16.7669756 89.0258333,17.0820976 C89.0258333,17.4718537 89.1925,17.7538049 89.5341667,17.9362439 C89.8758333,18.1186829 91.0675,18.4338049 93.1258333,18.8816098 C94.5008333,19.2050244 95.5258333,19.686 96.2175,20.341122 C96.8925,20.9962439 97.2341667,21.8172195 97.2341667,22.8040488 C97.2341667,24.106 96.7508333,25.1674634 95.7675,25.9967317 C94.8008333,26.8094146 93.3008333,27.2240488 91.2675,27.2240488 C89.1925,27.2240488 87.6591667,26.7928293 86.6675,25.9220976 C85.6841667,25.0430732 85.1925,23.9318537 85.1925,22.5801463 L88.6925,22.5801463 L88.6666667,22.6033659 Z"/>
    <polygon fill="#FFCB03" stroke="#FFCB03" stroke-width=".13" points="36.835 8.274 49.485 8.274 49.485 11.393 40.539 11.393 40.539 15.473 48.371 15.473 48.371 18.558 40.539 18.558 40.539 25.997 36.835 25.997 36.835 8.267"/>
    <path fill="#FFCB03" d="M57.9691667 22.5104878C58.5108333 21.7973171 58.78 20.7798049 58.78 19.4637561 58.78 18.1535122 58.51 17.1418049 57.9691667 16.4286341 57.4275 15.7154634 56.6525 15.358878 55.6441667 15.358878 54.6358333 15.358878 53.8575 15.7154634 53.3091667 16.4369268 52.7758333 17.1500976 52.5008333 18.1618049 52.5008333 19.4720488 52.5008333 20.7822927 52.7758333 21.8105854 53.3175 22.5237561 53.8675 23.2369268 54.6508333 23.6018049 55.6591667 23.6018049 56.6675 23.6018049 57.4425 23.2452195 57.9841667 22.5320488M60.7425 24.4393659C59.6341667 25.8076585 57.9425 26.4876585 55.6758333 26.4876585 53.4091667 26.4876585 51.7175 25.8076585 50.6091667 24.4393659 49.5008333 23.0710732 48.9425 21.4208293 48.9425 19.4886341 48.9425 17.5979024 49.5008333 15.9559512 50.6091667 14.5627805 51.7258333 13.1779024 53.4175 12.4813171 55.6841667 12.4813171 57.9508333 12.4813171 59.6425 13.1779024 60.7591667 14.5710732 61.8758333 15.9642439 62.4341667 17.6061951 62.4341667 19.4969268 62.4341667 21.429122 61.8758333 23.0793659 60.7675 24.4476585M70.585 12.5733659C70.6333333 12.5733659 70.735 12.5775122 70.8875 12.5849756L70.8875 16.1027317C70.6708333 16.0778537 70.4758333 16.0629268 70.3066667 16.0546341 70.1375 16.0463415 70 16.0430244 69.895 16.0421951 68.5066667 16.0421951 67.575 16.4924878 67.0991667 17.3914146 66.8325 17.8972683 66.6991667 18.6767805 66.6991667 19.7282927L66.6991667 26.0033659 63.2241667 26.0033659 63.2241667 12.8743902 66.5158333 12.8743902 66.5158333 15.1631707C67.0491667 14.2882927 67.5075 13.689561 67.9075 13.3686341 68.5491667 12.8379024 69.3908333 12.5642439 70.4241667 12.5642439 70.4908333 12.5642439 70.5408333 12.5725366 70.5825 12.5808293M76.1116667 16.1027317C75.6758333 16.6002927 75.4016667 17.2753171 75.2883333 18.1261463L80.6508333 18.1261463C80.6008333 17.2189268 80.3175 16.5322927 79.8175 16.0662439 79.3258333 15.593561 78.7175 15.3563902 77.9758333 15.355561 77.1841667 15.355561 76.5591667 15.6043415 76.1175 16.1019024L76.1116667 16.1027317zM80.9508333 13.1397561C81.8341667 13.5494146 82.5591667 14.1962439 83.1341667 15.0785854 83.6508333 15.8580976 83.9841667 16.762 84.1425 17.7902927 84.2341667 18.3915122 84.2675 19.2580976 84.2508333 20.390878L75.2175 20.390878C75.2675 21.701122 75.6841667 22.6299024 76.4675 23.1606341 76.9425 23.4840488 77.5175 23.6499024 78.1925 23.6499024 78.9008333 23.6499024 79.4841667 23.450878 79.9258333 23.0445366 80.1675 22.8289268 80.3841667 22.5220976 80.5675 22.1406341L84.0925 22.1406341C84.0091667 22.9201463 83.6008333 23.7079512 82.8675 24.5123415 81.7425 25.7894146 80.1591667 26.4279512 78.1258333 26.4279512 76.4508333 26.4279512 74.9675 25.8889268 73.6841667 24.810878 72.4008333 23.7328293 71.7591667 21.9830732 71.7591667 19.5533171 71.7591667 17.281122 72.3425 15.5396585 73.4925 14.3206341 74.6591667 13.1099024 76.1591667 12.5045366 78.0091667 12.4962439 79.1091667 12.4962439 80.1008333 12.703561 80.9758333 13.1099024L80.9508333 13.1397561zM82.3841667 7.47087805L78.7091667 11.0699024 76.2175 11.0699024 78.5425 7.46258537 82.3925 7.46258537 82.3841667 7.47087805z"/>
    <path fill="#FFCB03" stroke="#FFCB03" stroke-width=".13" d="M88.0058333,21.8122439 C88.0783333,22.4225854 88.2358333,22.857122 88.4775,23.1141951 C88.905,23.5702927 89.6966667,23.8 90.8508333,23.8 C91.5341667,23.8 92.0675,23.7004878 92.4675,23.4989756 C92.8758333,23.2982927 93.0758333,22.996439 93.0758333,22.5950732 C93.0758333,22.2094634 92.9175,21.9167317 92.5925,21.7160488 C92.2675,21.5153659 91.0758333,21.1703902 89.0008333,20.6794634 C87.5091667,20.310439 86.4591667,19.8501951 85.8425,19.2945854 C85.2341667,18.7489268 84.9258333,17.9619512 84.9258333,16.9336585 C84.9258333,15.7212683 85.4008333,14.6821951 86.3591667,13.8139512 C87.3175,12.9390732 88.6675,12.5020488 90.4008333,12.5012195 C92.0508333,12.5012195 93.3925,12.830439 94.4258333,13.4880488 C95.4675,14.1398537 96.0675,15.2676585 96.2175,16.8739512 L92.7675,16.8739512 C92.7258333,16.4319512 92.6008333,16.0828293 92.3925,15.8257561 C92.0175,15.3613659 91.3675,15.1275122 90.4591667,15.1275122 C89.7091667,15.1275122 89.1758333,15.2436098 88.8508333,15.4758049 C88.5341667,15.7096585 88.3841667,15.9816585 88.3841667,16.2967805 C88.3841667,16.6890244 88.5508333,16.9742927 88.8925,17.1509268 C89.2341667,17.3358537 90.4341667,17.6526341 92.4841667,18.1020976 C93.8591667,18.4172195 94.8841667,18.9064878 95.5758333,19.5533171 C96.2508333,20.208439 96.5925,21.0294146 96.5925,22.0162439 C96.5925,23.3181951 96.1008333,24.3796585 95.1258333,25.2089268 C94.1591667,26.0216098 92.6591667,26.4362439 90.6258333,26.4362439 C88.5591667,26.4362439 87.0258333,26.0050244 86.0258333,25.1342927 C85.0425,24.2552683 84.5508333,23.1440488 84.5508333,21.7923415 L88.0508333,21.7923415 L88.0058333,21.8122439 Z"/>
  </g>
</svg>
